<?xml version="1.0" encoding="utf-8"?>
<!-- Generator: Adobe Illustrator 14.0.0, SVG Export Plug-In . SVG Version: 6.00 Build 43363)  -->
<!DOCTYPE svg PUBLIC "-//W3C//DTD SVG 1.1//EN" "http://www.w3.org/Graphics/SVG/1.1/DTD/svg11.dtd">
<svg version="1.1" id="Layer_1" xmlns="http://www.w3.org/2000/svg" xmlns:xlink="http://www.w3.org/1999/xlink" x="0px" y="0px"
	 width="376.404px" height="792px" viewBox="0 0 376.404 792" enable-background="new 0 0 376.404 792" xml:space="preserve">
<path fill="#EFB830" d="M183.405,18.241v49.503c-41.456,0.994-74.977,34.514-75.97,75.97c-0.016,0.629-0.049,1.254-0.049,1.887
	s0.033,1.258,0.049,1.888h3.775c-0.016-0.629-0.048-1.254-0.048-1.888s0.032-1.258,0.048-1.887
	c0.991-39.375,32.82-71.203,72.194-72.195c0.629-0.016,1.255-0.048,1.889-0.048c0.632,0,1.258,0.032,1.888,0.048v-1.936v-1.839
	V18.241H183.405z"/>
<path fill="#EFB830" d="M263.151,143.714h-3.775c0.015,0.629,0.047,1.254,0.047,1.887s-0.032,1.258-0.047,1.888
	c-0.992,39.375-32.821,71.202-72.194,72.195h-3.776v3.776v19.91c-41.456,0.995-74.977,34.514-75.97,75.971
	c-0.016,0.629-0.049,1.254-0.049,1.887c0,0.634,0.033,1.258,0.049,1.888h3.775c-0.016-0.629-0.048-1.254-0.048-1.888
	c0-0.633,0.032-1.258,0.048-1.887c0.991-39.374,32.82-71.203,72.194-72.195c0.629-0.017,1.255-0.048,1.889-0.048
	c0.632,0,1.258,0.032,1.888,0.048v-1.807v-1.969v-19.91c41.455-0.994,74.976-34.514,75.97-75.971
	c0.015-0.629,0.048-1.254,0.048-1.888S263.166,144.343,263.151,143.714z"/>
<path fill="#EFB830" d="M263.151,319.594h-3.775c0.015,0.629,0.047,1.254,0.047,1.887c0,0.634-0.032,1.259-0.047,1.888
	c-0.992,39.374-32.821,71.203-72.194,72.195h-3.776v3.776v20.213c-41.456,0.994-74.977,34.514-75.97,75.97
	c-0.016,0.63-0.049,1.255-0.049,1.889c0,0.632,0.033,1.259,0.049,1.888h3.775c-0.016-0.629-0.048-1.256-0.048-1.888
	c0-0.634,0.032-1.259,0.048-1.889c0.991-39.374,32.82-71.202,72.194-72.194c0.629-0.016,1.255-0.048,1.889-0.048
	c0.632,0,1.258,0.032,1.888,0.048v-2.109v-1.666V399.34c41.455-0.995,74.976-34.515,75.97-75.971
	c0.015-0.629,0.048-1.254,0.048-1.888C263.199,320.848,263.166,320.223,263.151,319.594z"/>
<path fill="#EFB830" d="M263.151,495.799h-3.775c0.015,0.629,0.047,1.254,0.047,1.888s-0.032,1.259-0.047,1.888
	c-0.992,39.374-32.821,71.202-72.194,72.195h-3.776v3.774v19.978c-41.456,0.994-74.977,34.514-75.97,75.971
	c-0.016,0.629-0.049,1.254-0.049,1.888c0,0.632,0.033,1.258,0.049,1.887h3.775c-0.016-0.629-0.048-1.255-0.048-1.887
	c0-0.634,0.032-1.259,0.048-1.888c0.991-39.374,32.82-71.203,72.194-72.195c0.629-0.016,1.255-0.048,1.889-0.048
	c0.632,0,1.258,0.032,1.888,0.048v-1.873v-1.902v-19.978c41.455-0.993,74.976-34.513,75.97-75.97
	c0.015-0.629,0.048-1.254,0.048-1.888S263.166,496.428,263.151,495.799z"/>
<path fill="#EFB830" d="M263.151,671.791h-3.775c0.015,0.629,0.047,1.254,0.047,1.888c0,0.633-0.032,1.258-0.047,1.888
	c-0.992,39.375-32.821,71.202-72.194,72.194h-3.776v3.776v21.878h3.776v-21.878c41.455-0.994,74.976-34.515,75.97-75.971
	c0.015-0.63,0.048-1.255,0.048-1.888C263.199,673.045,263.166,672.42,263.151,671.791z"/>
<g>
	<path d="M252.728,246.622h3.524c1.588,0,2.754,0.27,3.498,0.809s1.116,1.354,1.116,2.443c0,0.744-0.228,1.364-0.681,1.859
		c-0.455,0.495-1.118,0.813-1.991,0.953v0.053c1.025,0.152,1.78,0.477,2.263,0.971c0.484,0.496,0.726,1.186,0.726,2.07
		c0,1.184-0.393,2.095-1.178,2.733s-1.898,0.958-3.34,0.958h-3.938V246.622z M253.624,252.343h2.83c1.207,0,2.084-0.2,2.632-0.603
		c0.548-0.4,0.822-1.029,0.822-1.885s-0.31-1.477-0.928-1.863s-1.539-0.58-2.764-0.58h-2.593V252.343z M253.624,253.134v5.546h3.023
		c2.379,0,3.568-0.967,3.568-2.9c0-1.764-1.254-2.646-3.762-2.646H253.624z"/>
	<path d="M263.67,247.263c0-0.563,0.185-0.844,0.554-0.844c0.182,0,0.323,0.073,0.427,0.22c0.102,0.146,0.153,0.354,0.153,0.624
		c0,0.264-0.052,0.472-0.153,0.624c-0.104,0.152-0.245,0.229-0.427,0.229C263.854,248.116,263.67,247.832,263.67,247.263z
		 M264.663,259.471h-0.87v-9.554h0.87V259.471z"/>
	<path d="M275.764,254.681c0,1.559-0.378,2.776-1.134,3.651c-0.756,0.877-1.799,1.314-3.129,1.314c-0.838,0-1.576-0.202-2.215-0.606
		s-1.128-0.984-1.468-1.74s-0.51-1.629-0.51-2.619c0-1.559,0.378-2.772,1.134-3.644c0.756-0.869,1.793-1.305,3.111-1.305
		c1.313,0,2.343,0.441,3.089,1.322C275.391,251.938,275.764,253.146,275.764,254.681z M268.223,254.681
		c0,1.313,0.288,2.337,0.865,3.071c0.577,0.736,1.394,1.104,2.448,1.104s1.87-0.367,2.448-1.104
		c0.576-0.734,0.865-1.759,0.865-3.071c0-1.318-0.292-2.341-0.875-3.067s-1.401-1.09-2.456-1.09s-1.868,0.362-2.438,1.086
		C268.508,252.333,268.223,253.357,268.223,254.681z"/>
	<path d="M281.907,249.733c0.691,0,1.289,0.126,1.793,0.378s0.955,0.683,1.354,1.292h0.053c-0.035-0.738-0.053-1.462-0.053-2.171
		v-3.437h0.861v13.676h-0.571l-0.22-1.459h-0.07c-0.727,1.09-1.77,1.635-3.129,1.635c-1.318,0-2.326-0.41-3.023-1.23
		s-1.046-2.016-1.046-3.586c0-1.652,0.346-2.915,1.037-3.788S280.589,249.733,281.907,249.733z M281.907,250.524
		c-1.043,0-1.827,0.366-2.351,1.099c-0.525,0.732-0.787,1.796-0.787,3.19c0,2.707,1.052,4.061,3.155,4.061
		c1.078,0,1.869-0.313,2.373-0.94s0.756-1.661,0.756-3.103v-0.149c0-1.477-0.248-2.538-0.743-3.187
		C283.815,250.848,283.015,250.524,281.907,250.524z"/>
	<path d="M289,247.263c0-0.563,0.185-0.844,0.554-0.844c0.182,0,0.323,0.073,0.427,0.22c0.102,0.146,0.153,0.354,0.153,0.624
		c0,0.264-0.052,0.472-0.153,0.624c-0.104,0.152-0.245,0.229-0.427,0.229C289.185,248.116,289,247.832,289,247.263z
		 M289.993,259.471h-0.87v-9.554h0.87V259.471z"/>
	<path d="M295.284,259.471l-3.691-9.554h0.896l2.47,6.495c0.328,0.832,0.574,1.559,0.738,2.18h0.053
		c0.24-0.797,0.486-1.529,0.738-2.197l2.47-6.478h0.896l-3.691,9.554H295.284z"/>
	<path d="M305.313,259.647c-1.389,0-2.472-0.428-3.248-1.283s-1.164-2.054-1.164-3.595c0-1.523,0.375-2.743,1.125-3.661
		c0.75-0.916,1.761-1.375,3.032-1.375c1.125,0,2.013,0.393,2.663,1.178s0.976,1.852,0.976,3.199v0.703h-6.882
		c0.012,1.313,0.317,2.314,0.918,3.006s1.461,1.037,2.58,1.037c0.545,0,1.023-0.038,1.438-0.114c0.412-0.076,0.936-0.24,1.568-0.492
		v0.791c-0.539,0.234-1.037,0.395-1.494,0.479C306.367,259.604,305.863,259.647,305.313,259.647z M305.058,250.506
		c-0.92,0-1.658,0.303-2.215,0.91c-0.557,0.605-0.882,1.48-0.976,2.623h5.906c0-1.107-0.24-1.973-0.721-2.598
		C306.572,250.819,305.907,250.506,305.058,250.506z"/>
	<path d="M315.095,249.733c0.404,0,0.838,0.041,1.301,0.123l-0.167,0.835c-0.398-0.1-0.812-0.149-1.239-0.149
		c-0.814,0-1.482,0.346-2.004,1.037s-0.782,1.564-0.782,2.619v5.273h-0.87v-9.554h0.738l0.088,1.723h0.062
		c0.393-0.703,0.812-1.196,1.257-1.481C313.923,249.875,314.462,249.733,315.095,249.733z"/>
	<path d="M324.262,256.984c0,0.855-0.325,1.514-0.976,1.974s-1.573,0.689-2.769,0.689c-1.277,0-2.291-0.196-3.041-0.589v-0.94
		c0.961,0.48,1.975,0.721,3.041,0.721c0.943,0,1.659-0.156,2.148-0.471c0.489-0.313,0.734-0.73,0.734-1.252
		c0-0.48-0.195-0.885-0.584-1.213c-0.391-0.328-1.03-0.65-1.921-0.967c-0.955-0.346-1.626-0.643-2.013-0.893
		c-0.387-0.248-0.679-0.529-0.875-0.844c-0.196-0.313-0.294-0.695-0.294-1.146c0-0.715,0.3-1.28,0.901-1.696
		c0.6-0.416,1.439-0.624,2.518-0.624c1.031,0,2.01,0.193,2.936,0.58l-0.325,0.791c-0.938-0.387-1.808-0.58-2.61-0.58
		c-0.779,0-1.397,0.129-1.854,0.387s-0.686,0.615-0.686,1.072c0,0.498,0.177,0.896,0.532,1.195c0.354,0.299,1.047,0.633,2.078,1.002
		c0.861,0.311,1.488,0.591,1.881,0.84s0.687,0.531,0.883,0.848S324.262,256.556,324.262,256.984z"/>
	<path d="M326.6,247.263c0-0.563,0.185-0.844,0.554-0.844c0.182,0,0.323,0.073,0.427,0.22c0.102,0.146,0.153,0.354,0.153,0.624
		c0,0.264-0.052,0.472-0.153,0.624c-0.104,0.152-0.245,0.229-0.427,0.229C326.784,248.116,326.6,247.832,326.6,247.263z
		 M327.593,259.471h-0.87v-9.554h0.87V259.471z"/>
	<path d="M333.314,258.874c0.551,0,1.031-0.047,1.441-0.141v0.703c-0.422,0.141-0.908,0.211-1.459,0.211
		c-0.844,0-1.467-0.226-1.867-0.677c-0.402-0.451-0.603-1.16-0.603-2.127v-6.17h-1.415v-0.51l1.415-0.396l0.439-2.162h0.448v2.312
		h2.804v0.756h-2.804v6.047c0,0.732,0.129,1.274,0.387,1.626S332.764,258.874,333.314,258.874z"/>
	<path d="M335.222,249.917h0.896l2.021,5.361c0.615,1.646,1.005,2.757,1.169,3.331h0.053c0.246-0.756,0.647-1.884,1.204-3.384
		l2.021-5.309h0.896l-4.28,11.101c-0.346,0.902-0.636,1.512-0.87,1.828s-0.509,0.554-0.821,0.712
		c-0.314,0.158-0.693,0.237-1.139,0.237c-0.334,0-0.706-0.062-1.116-0.185v-0.756c0.34,0.094,0.706,0.141,1.099,0.141
		c0.299,0,0.563-0.07,0.791-0.211s0.436-0.359,0.619-0.655c0.186-0.296,0.398-0.764,0.643-1.406c0.242-0.641,0.399-1.059,0.47-1.252
		L335.222,249.917z"/>
	<path d="M243.691,281.072h-0.905v-6.319h-7.506v6.319h-0.896v-12.85h0.896v5.704h7.506v-5.704h0.905V281.072z"/>
	<path d="M250.969,281.248c-1.389,0-2.472-0.428-3.248-1.283s-1.164-2.054-1.164-3.595c0-1.523,0.375-2.743,1.125-3.66
		s1.761-1.376,3.032-1.376c1.125,0,2.013,0.393,2.663,1.178s0.976,1.852,0.976,3.199v0.703h-6.882
		c0.012,1.313,0.317,2.314,0.918,3.006s1.461,1.037,2.58,1.037c0.545,0,1.023-0.038,1.438-0.114c0.412-0.076,0.936-0.24,1.568-0.492
		v0.791c-0.539,0.234-1.037,0.395-1.494,0.479C252.023,281.205,251.52,281.248,250.969,281.248z M250.714,272.107
		c-0.92,0-1.658,0.304-2.215,0.909c-0.557,0.607-0.882,1.481-0.976,2.624h5.906c0-1.107-0.24-1.974-0.721-2.597
		C252.229,272.418,251.563,272.107,250.714,272.107z"/>
	<path d="M260.751,271.333c0.404,0,0.838,0.041,1.301,0.123l-0.167,0.835c-0.398-0.1-0.812-0.149-1.239-0.149
		c-0.814,0-1.482,0.346-2.004,1.037s-0.782,1.564-0.782,2.619v5.273h-0.87v-9.554h0.738l0.088,1.723h0.062
		c0.393-0.703,0.812-1.196,1.257-1.48S260.118,271.333,260.751,271.333z"/>
	<path d="M263.871,268.864c0-0.563,0.185-0.844,0.554-0.844c0.182,0,0.323,0.073,0.427,0.22c0.102,0.146,0.153,0.354,0.153,0.624
		c0,0.264-0.052,0.472-0.153,0.624c-0.104,0.152-0.245,0.229-0.427,0.229C264.056,269.716,263.871,269.432,263.871,268.864z
		 M264.864,281.072h-0.87v-9.554h0.87V281.072z"/>
	<path d="M270.586,280.474c0.551,0,1.031-0.047,1.441-0.141v0.703c-0.422,0.141-0.908,0.211-1.459,0.211
		c-0.844,0-1.467-0.226-1.867-0.677c-0.402-0.451-0.603-1.16-0.603-2.127v-6.17h-1.415v-0.51l1.415-0.396l0.439-2.162h0.448v2.312
		h2.804v0.756h-2.804v6.047c0,0.732,0.129,1.274,0.387,1.626S270.035,280.474,270.586,280.474z"/>
	<path d="M279.894,281.072l-0.22-1.512h-0.07c-0.48,0.615-0.975,1.05-1.48,1.306c-0.508,0.254-1.106,0.382-1.798,0.382
		c-0.938,0-1.667-0.24-2.188-0.721s-0.782-1.146-0.782-1.995c0-0.932,0.388-1.655,1.165-2.171c0.775-0.516,1.899-0.788,3.37-0.817
		l1.819-0.053v-0.633c0-0.908-0.185-1.594-0.554-2.057s-0.964-0.694-1.784-0.694c-0.885,0-1.802,0.246-2.751,0.738l-0.325-0.756
		c1.049-0.492,2.086-0.738,3.111-0.738c1.049,0,1.832,0.272,2.352,0.817c0.518,0.545,0.777,1.395,0.777,2.549v6.354H279.894z
		 M276.378,280.457c1.02,0,1.823-0.291,2.413-0.874c0.588-0.583,0.883-1.394,0.883-2.431v-0.94l-1.67,0.07
		c-1.342,0.064-2.299,0.274-2.869,0.629c-0.572,0.354-0.857,0.906-0.857,1.656c0,0.598,0.183,1.063,0.549,1.393
		C275.192,280.292,275.71,280.457,276.378,280.457z"/>
	<path d="M291.082,271.518v0.606l-1.978,0.123c0.527,0.656,0.791,1.377,0.791,2.162c0,0.92-0.307,1.665-0.919,2.237
		c-0.612,0.57-1.434,0.856-2.465,0.856c-0.434,0-0.738-0.018-0.914-0.053c-0.346,0.182-0.609,0.396-0.791,0.642
		s-0.272,0.507-0.272,0.782c0,0.305,0.115,0.527,0.347,0.668s0.62,0.211,1.165,0.211h1.67c1.037,0,1.831,0.21,2.382,0.628
		c0.551,0.42,0.826,1.039,0.826,1.859c0,1.008-0.408,1.785-1.227,2.334c-0.816,0.547-1.981,0.821-3.493,0.821
		c-1.201,0-2.132-0.231-2.79-0.694c-0.66-0.463-0.989-1.107-0.989-1.934c0-0.656,0.203-1.201,0.61-1.635s0.96-0.729,1.657-0.888
		c-0.287-0.123-0.518-0.297-0.69-0.522s-0.259-0.485-0.259-0.778c0-0.639,0.407-1.201,1.222-1.688
		c-0.557-0.229-0.99-0.587-1.301-1.077c-0.311-0.488-0.466-1.05-0.466-1.683c0-0.955,0.304-1.721,0.909-2.298
		c0.607-0.577,1.426-0.866,2.457-0.866c0.627,0,1.113,0.062,1.459,0.185H291.082z M283.348,282.689c0,1.313,0.976,1.969,2.927,1.969
		c2.508,0,3.762-0.8,3.762-2.399c0-0.574-0.196-0.99-0.589-1.248s-1.028-0.387-1.907-0.387h-1.564
		C284.224,280.624,283.348,281.312,283.348,282.689z M284.077,274.498c0,0.738,0.224,1.312,0.673,1.718
		c0.447,0.408,1.047,0.611,1.797,0.611c0.797,0,1.407-0.202,1.832-0.606s0.638-0.99,0.638-1.758c0-0.814-0.219-1.425-0.655-1.833
		c-0.437-0.406-1.047-0.61-1.832-0.61c-0.762,0-1.361,0.219-1.797,0.655C284.295,273.111,284.077,273.718,284.077,274.498z"/>
	<path d="M296.9,281.248c-1.389,0-2.472-0.428-3.248-1.283s-1.164-2.054-1.164-3.595c0-1.523,0.375-2.743,1.125-3.66
		s1.761-1.376,3.032-1.376c1.125,0,2.013,0.393,2.663,1.178s0.976,1.852,0.976,3.199v0.703h-6.882
		c0.012,1.313,0.317,2.314,0.918,3.006s1.461,1.037,2.58,1.037c0.545,0,1.023-0.038,1.438-0.114c0.412-0.076,0.936-0.24,1.568-0.492
		v0.791c-0.539,0.234-1.037,0.395-1.494,0.479C297.955,281.205,297.451,281.248,296.9,281.248z M296.646,272.107
		c-0.92,0-1.658,0.304-2.215,0.909c-0.557,0.607-0.882,1.481-0.976,2.624h5.906c0-1.107-0.24-1.974-0.721-2.597
		C298.16,272.418,297.495,272.107,296.646,272.107z"/>
	<path d="M307.816,281.072v-12.85h0.896v12.006h6.126v0.844H307.816z"/>
	<path d="M316.711,268.864c0-0.563,0.185-0.844,0.554-0.844c0.182,0,0.323,0.073,0.427,0.22c0.102,0.146,0.153,0.354,0.153,0.624
		c0,0.264-0.052,0.472-0.153,0.624c-0.104,0.152-0.245,0.229-0.427,0.229C316.896,269.716,316.711,269.432,316.711,268.864z
		 M317.704,281.072h-0.87v-9.554h0.87V281.072z"/>
	<path d="M324.938,271.333c1.336,0,2.342,0.421,3.02,1.261c0.676,0.842,1.015,2.07,1.015,3.688c0,1.588-0.356,2.813-1.067,3.674
		c-0.713,0.861-1.713,1.292-3.002,1.292c-0.68,0-1.292-0.141-1.837-0.422s-0.976-0.68-1.292-1.195h-0.079l-0.246,1.441h-0.545
		v-13.676h0.87v3.437c0,0.516-0.012,0.99-0.035,1.424l-0.026,0.747h0.062c0.363-0.574,0.801-0.996,1.314-1.266
		C323.6,271.468,324.217,271.333,324.938,271.333z M324.92,272.125c-1.125,0-1.931,0.322-2.417,0.967s-0.729,1.708-0.729,3.19v0.149
		c0,1.441,0.253,2.476,0.76,3.103s1.297,0.94,2.369,0.94c1.043,0,1.828-0.364,2.355-1.095c0.527-0.729,0.791-1.768,0.791-3.115
		C328.049,273.504,327.006,272.125,324.92,272.125z"/>
	<path d="M335.379,271.333c0.404,0,0.838,0.041,1.301,0.123l-0.167,0.835c-0.398-0.1-0.812-0.149-1.239-0.149
		c-0.814,0-1.482,0.346-2.004,1.037s-0.782,1.564-0.782,2.619v5.273h-0.87v-9.554h0.738l0.088,1.723h0.062
		c0.393-0.703,0.812-1.196,1.257-1.48S334.746,271.333,335.379,271.333z"/>
	<path d="M344.423,281.072l-0.22-1.512h-0.07c-0.48,0.615-0.975,1.05-1.48,1.306c-0.508,0.254-1.106,0.382-1.798,0.382
		c-0.938,0-1.667-0.24-2.188-0.721s-0.782-1.146-0.782-1.995c0-0.932,0.388-1.655,1.165-2.171c0.775-0.516,1.899-0.788,3.37-0.817
		l1.819-0.053v-0.633c0-0.908-0.185-1.594-0.554-2.057s-0.964-0.694-1.784-0.694c-0.885,0-1.802,0.246-2.751,0.738l-0.325-0.756
		c1.049-0.492,2.086-0.738,3.111-0.738c1.049,0,1.832,0.272,2.352,0.817c0.518,0.545,0.777,1.395,0.777,2.549v6.354H344.423z
		 M340.907,280.457c1.02,0,1.823-0.291,2.413-0.874c0.588-0.583,0.883-1.394,0.883-2.431v-0.94l-1.67,0.07
		c-1.342,0.064-2.299,0.274-2.869,0.629c-0.572,0.354-0.857,0.906-0.857,1.656c0,0.598,0.183,1.063,0.549,1.393
		C339.722,280.292,340.239,280.457,340.907,280.457z"/>
	<path d="M351.92,271.333c0.404,0,0.838,0.041,1.301,0.123l-0.167,0.835c-0.398-0.1-0.812-0.149-1.239-0.149
		c-0.814,0-1.482,0.346-2.004,1.037s-0.782,1.564-0.782,2.619v5.273h-0.87v-9.554h0.738l0.088,1.723h0.062
		c0.393-0.703,0.812-1.196,1.257-1.48S351.287,271.333,351.92,271.333z"/>
	<path d="M353.563,271.518h0.896l2.021,5.361c0.615,1.646,1.005,2.757,1.169,3.331h0.053c0.246-0.756,0.647-1.884,1.204-3.384
		l2.021-5.309h0.896l-4.28,11.101c-0.346,0.902-0.636,1.512-0.87,1.828s-0.509,0.554-0.821,0.712
		c-0.314,0.158-0.693,0.237-1.139,0.237c-0.334,0-0.706-0.062-1.116-0.185v-0.756c0.34,0.094,0.706,0.141,1.099,0.141
		c0.299,0,0.563-0.07,0.791-0.211s0.436-0.359,0.619-0.654c0.186-0.297,0.398-0.766,0.643-1.406c0.242-0.643,0.399-1.06,0.47-1.253
		L353.563,271.518z"/>
</g>
<g>
	<g>
		<path fill="#90B9DA" d="M155.878,341.694c0,0-2.249-3.079-3.344-7.718c-0.989-4.187-1.339-9.49-1.339-9.49s13.106-0.935,24,9.407
			c11.54,10.954,11.051,24.443,11.051,24.443l-18.911-3.957L155.878,341.694z"/>
		<path fill="#90B9DA" d="M216.557,341.694c0,0,2.249-3.079,3.346-7.718c0.988-4.187,1.338-9.49,1.338-9.49s-13.106-0.935-24,9.407
			c-11.54,10.954-11.051,24.443-11.051,24.443l18.91-3.957L216.557,341.694z"/>
		<path fill="#3D94C9" d="M134.931,346.336l21.05,5.797l30.149,8.237l50.792-14.034c0,0-10.778-7.422-29.387-3.152
			c-11.021,2.53-21.289,15.152-21.289,15.152s-8.658-11.515-20.911-15.152C149.574,338.507,134.931,346.336,134.931,346.336z"/>
		<path fill="#266A9D" d="M133.203,361.488h105.854c0,0-9.965-11.409-26.234-11.408c-16.168,0-26.692,9.577-26.692,9.577
			s-7.873-9.537-25.777-9.559C143.778,350.081,133.203,361.488,133.203,361.488z"/>
	</g>
	<g>
		<path fill="#3F94C6" d="M154.16,310.636c0.115,0,0.193-0.038,0.193-0.193v-21.182l-2.899-0.116c0-0.619,0.039-1.199,0.039-1.74
			c1.701-0.039,4.832-0.077,6.765-0.077c3.323,0,5.565,0.193,7.421,1.004c1.739,0.851,3.016,2.706,3.016,4.716
			c0,2.861-2.049,4.949-4.601,5.837v0.231c3.479,0.426,6.185,3.015,6.185,6.107c0,4.329-3.788,7.306-9.624,7.306
			c-0.967,0-3.982-0.039-4.717-0.039c-1.236,0-3.053,0-4.521,0c0-0.58,0-1.198,0.038-1.778L154.16,310.636z M157.33,309.323
			c-0.039,1.16,0.734,1.43,3.285,1.43c3.093,0,6.455-1.43,6.455-5.219c0-2.358-1.817-5.218-7.383-5.218
			c-1.314,0-2.049,0-2.318,0.077L157.33,309.323z M157.369,298.499c0.231,0.039,0.889,0.078,1.855,0.078
			c3.439,0,6.454-1.894,6.454-4.87c0-2.668-1.933-4.639-6.03-4.639c-1.236,0-1.933,0.078-2.241,0.116L157.369,298.499z"/>
		<path fill="#3F94C6" d="M177.566,310.559c0.116,0,0.154-0.076,0.154-0.153v-21.144l-2.744-0.116c0-0.542,0-1.199,0.039-1.778
			c1.314,0,2.976,0.04,4.406,0.04c1.546,0,3.285-0.04,4.715-0.04c0,0.58,0,1.237-0.038,1.817l-3.17,0.077
			c-0.077,0-0.115,0.077-0.115,0.154v8.891c0,0.077,0,0.156,0.154,0.156h12.447v-9.201l-3.286-0.077c0-0.58,0-1.237,0.038-1.778
			c1.431,0,3.17,0,4.832,0c1.43,0,2.938-0.039,4.136-0.039c0.039,0.58,0,1.237-0.038,1.778l-2.474,0.116
			c-0.078,0-0.078,0.077-0.078,0.154l-0.116,21.143l2.861,0.117c0,0.58,0,1.198-0.039,1.817c-1.275,0-2.938-0.039-4.406-0.039
			c-1.547,0-3.286,0.039-4.678,0.039c0-0.58,0.039-1.237,0.039-1.817l3.054-0.117c0.115,0,0.155-0.038,0.155-0.153v-9.896
			c0-0.077-0.04-0.154-0.155-0.154l-12.485,0.077l-0.038,10.127l3.44,0.117c0,0.58,0,1.237-0.04,1.817
			c-1.391,0-3.208-0.039-4.793-0.039c-1.43,0-3.014,0.039-4.328,0.039c0-0.58,0-1.198,0.039-1.817L177.566,310.559z"/>
		<path fill="#3F94C6" d="M204.926,289.184c-0.039-0.58,0-1.199,0.038-1.778c1.353,0,2.977,0,4.522,0c1.624,0,3.324,0,4.909,0
			c0,0.58-0.039,1.237-0.077,1.816l-3.363,0.078c-0.076,0-0.076,0.039-0.076,0.154l-0.116,20.41c0,0.695,0.038,0.812,1.661,0.812
			c4.291,0,5.527-0.117,6.146-0.232c0.348-0.077,0.541-0.347,0.695-0.812l1.392-4.059c0.735,0.117,1.431,0.31,2.049,0.464
			c-0.386,1.894-1.005,4.446-1.508,6.494c-1.855,0-6.532-0.039-11.75-0.039c-1.624,0-3.17,0.039-4.562,0.039
			c0-0.58,0.039-1.237,0.077-1.817l2.628-0.116c0.117,0,0.156-0.04,0.156-0.155V289.3L204.926,289.184z"/>
	</g>
</g>
<g>
	<path fill="#3BBEB3" d="M192.198,519.54c-4.155-4.53-9.743-11.82-14.375-20.063c7.664-1.807,13.354-8.994,13.354-16.182
		c0-10.629-8.243-15.534-19.043-15.534c-6.063,0-15.364,0.546-24.152,0.204v2.761c5.314,0.987,7.495,0.442,7.495,8.141v37.269
		c0,7.699-2.215,7.154-7.495,8.143v2.758c2.556-0.068,6.983-0.271,11.446-0.271c4.258,0,9.776,0.169,12.127,0.271v-2.758
		c-6.745-0.922-8.789-0.137-8.789-8.143v-15.808c2.283,0.205,4.259,0.205,7.291,0.205c5.757,10.323,11.241,18.056,14.375,21.665
		c5.723,6.883,14.784,5.859,17.033,4.838v-2.487C198.058,524.548,194.651,522.197,192.198,519.54z M169.579,496.531
		c-3.202,0-4.632-0.102-6.813-0.274V472.26c2.182-0.205,5.109-0.205,7.666-0.205c7.937,0,12.671,4.199,12.671,11.877
		C183.103,491.47,177.993,496.531,169.579,496.531z"/>
	<path fill="#3BBEB3" d="M210.995,480.088c13.146,0,11.548-9.985,11.548-16.947h-10.324v3.634h6.079c0,5.4-2.514,9.103-7.303,9.103
		c-3.837,0-6.079-3.363-6.079-7.914v-9.102c0-4.211,4.008-6.69,6.691-6.69c4.822,0,6.69,4.244,6.69,4.244l3.634-2.446
		c0,0-1.766-6.079-10.324-6.079c-8.56,0-11.548,6.183-11.548,10.326v10.937C200.06,474.757,203.082,480.088,210.995,480.088z"/>
</g>
<g>
	<g>
		<path fill="#FDB932" d="M187.072,652.891c-3.5,0-6.358,2.631-6.358,6.264c0,3.604,2.858,6.264,6.358,6.264
			c3.508,0,6.368-2.659,6.368-6.264C193.44,655.521,190.58,652.891,187.072,652.891z M187.072,662.953
			c-1.92,0-3.572-1.568-3.572-3.799c0-2.259,1.652-3.798,3.572-3.798s3.579,1.539,3.579,3.798
			C190.651,661.385,188.992,662.953,187.072,662.953z"/>
		<path fill="#F05547" d="M173.197,652.891c-3.509,0-6.36,2.631-6.36,6.264c0,3.604,2.852,6.264,6.36,6.264
			c3.506,0,6.358-2.659,6.358-6.264C179.556,655.521,176.703,652.891,173.197,652.891z M173.197,662.953
			c-1.922,0-3.58-1.568-3.58-3.799c0-2.259,1.658-3.798,3.58-3.798s3.573,1.539,3.573,3.798
			C176.771,661.385,175.119,662.953,173.197,662.953z"/>
		<path fill="#4980C2" d="M156.686,654.809v2.662h6.432c-0.188,1.49-0.691,2.583-1.463,3.346c-0.939,0.92-2.402,1.942-4.969,1.942
			c-3.96,0-7.06-3.158-7.06-7.07c0-3.914,3.1-7.071,7.06-7.071c2.139,0,3.697,0.828,4.846,1.9l1.9-1.877
			c-1.61-1.517-3.749-2.684-6.746-2.684c-5.43,0-9.991,4.367-9.991,9.731s4.562,9.729,9.991,9.729c2.932,0,5.136-0.947,6.869-2.731
			c1.773-1.754,2.328-4.223,2.328-6.216c0-0.617-0.053-1.186-0.145-1.662H156.686z"/>
		<path fill="#F05547" d="M219.089,662.953c-1.411,0-2.42-0.642-3.07-1.9l8.478-3.466l-0.293-0.713h0.003
			c-0.525-1.4-2.14-3.983-5.431-3.983c-3.26,0-5.973,2.536-5.973,6.264c0,3.51,2.686,6.264,6.286,6.264
			c2.912,0,4.592-1.753,5.284-2.775l-2.161-1.423C221.49,662.259,220.509,662.953,219.089,662.953z M218.87,655.308
			c1.108,0,2.047,0.546,2.359,1.329l-5.668,2.324C215.488,656.544,217.461,655.308,218.87,655.308z"/>
		<rect x="208.669" y="646.624" fill="#3AAB5C" width="2.789" height="18.414"/>
		<path fill="#4980C2" d="M204.107,653.271v1.016h-0.094c-0.626-0.733-1.82-1.396-3.333-1.396c-3.174,0-6.076,2.754-6.076,6.285
			c0,3.511,2.902,6.242,6.076,6.242c1.513,0,2.707-0.667,3.333-1.422h0.094v0.898c0,2.396-1.296,3.682-3.383,3.682
			c-1.704,0-2.761-1.215-3.195-2.237l-2.426,1c0.7,1.661,2.551,3.704,5.621,3.704c3.268,0,6.024-1.9,6.024-6.523v-11.249H204.107z
			 M200.918,662.953c-1.919,0-3.526-1.589-3.526-3.777c0-2.208,1.607-3.819,3.526-3.819c1.894,0,3.386,1.611,3.386,3.819
			C204.304,661.364,202.812,662.953,200.918,662.953z"/>
	</g>
	<g>
		<path fill="#BCBEC0" d="M126.561,693.75h-2.477l6.557-17.387h2.525l6.557,17.387h-2.478l-1.676-4.711h-7.309L126.561,693.75z
			 M131.855,679.107l-2.842,7.844h5.779l-2.842-7.844H131.855z"/>
		<path fill="#BCBEC0" d="M146.448,694.138c-1.765,0-3.229-0.598-4.395-1.796c-1.15-1.23-1.725-2.744-1.725-4.541
			c0-1.829,0.574-3.343,1.725-4.541c1.165-1.198,2.63-1.797,4.395-1.797c1.214,0,2.274,0.304,3.181,0.911
			c0.907,0.607,1.587,1.444,2.04,2.513l-2.04,0.85c-0.631-1.488-1.74-2.233-3.327-2.233c-1.019,0-1.901,0.413-2.646,1.238
			c-0.729,0.825-1.094,1.846-1.094,3.06s0.364,2.234,1.094,3.06c0.744,0.825,1.627,1.237,2.646,1.237
			c1.636,0,2.785-0.743,3.448-2.233l1.992,0.851c-0.438,1.068-1.122,1.906-2.053,2.513S147.679,694.138,146.448,694.138z"/>
		<path fill="#BCBEC0" d="M158.079,681.463c1.651,0,2.954,0.441,3.909,1.323c0.955,0.883,1.434,2.092,1.434,3.631v7.333h-2.138
			v-1.652h-0.097c-0.923,1.36-2.153,2.04-3.691,2.04c-1.311,0-2.407-0.388-3.289-1.165c-0.883-0.777-1.324-1.748-1.324-2.914
			c0-1.229,0.466-2.209,1.397-2.938c0.93-0.728,2.172-1.092,3.727-1.092c1.327,0,2.42,0.243,3.277,0.728v-0.509
			c0-0.777-0.308-1.438-0.923-1.979c-0.615-0.541-1.336-0.813-2.16-0.813c-1.247,0-2.234,0.525-2.962,1.577l-1.968-1.238
			C154.355,682.24,155.958,681.463,158.079,681.463z M155.189,690.107c0,0.582,0.247,1.069,0.741,1.457
			c0.494,0.389,1.071,0.583,1.736,0.583c0.938,0,1.776-0.349,2.513-1.044c0.737-0.696,1.104-1.514,1.104-2.453
			c-0.695-0.551-1.667-0.824-2.913-0.824c-0.907,0-1.664,0.217-2.271,0.654C155.493,688.918,155.189,689.46,155.189,690.107z"/>
		<path fill="#BCBEC0" d="M170.804,694.138c-1.555,0-2.89-0.614-4.007-1.845c-1.101-1.246-1.652-2.744-1.652-4.492
			c0-1.749,0.552-3.245,1.652-4.493c1.117-1.229,2.452-1.845,4.007-1.845c0.874,0,1.671,0.187,2.391,0.559
			c0.721,0.372,1.274,0.866,1.664,1.481h0.097l-0.097-1.651v-5.488h2.234v17.387h-2.138v-1.652h-0.097
			c-0.39,0.617-0.943,1.109-1.664,1.481C172.475,693.951,171.678,694.138,170.804,694.138z M171.168,692.098
			c1.1,0,1.999-0.396,2.694-1.189c0.729-0.792,1.093-1.828,1.093-3.107c0-1.246-0.364-2.274-1.093-3.084
			c-0.712-0.809-1.611-1.214-2.694-1.214c-1.068,0-1.967,0.405-2.695,1.214c-0.729,0.81-1.093,1.838-1.093,3.084
			c0,1.263,0.363,2.291,1.093,3.084C169.201,691.694,170.1,692.098,171.168,692.098z"/>
		<path fill="#BCBEC0" d="M185.032,694.138c-1.748,0-3.188-0.598-4.321-1.796c-1.134-1.197-1.7-2.712-1.7-4.541
			c0-1.813,0.55-3.322,1.651-4.529c1.101-1.206,2.509-1.809,4.225-1.809c1.765,0,3.169,0.57,4.213,1.712s1.566,2.74,1.566,4.796
			l-0.024,0.243h-9.349c0.032,1.165,0.421,2.104,1.166,2.816c0.743,0.712,1.634,1.067,2.671,1.067c1.424,0,2.541-0.711,3.351-2.136
			l1.991,0.971c-0.534,1.005-1.274,1.789-2.221,2.356C187.303,693.855,186.23,694.138,185.032,694.138z M181.463,686.368h6.824
			c-0.066-0.825-0.4-1.509-1.009-2.052c-0.606-0.542-1.42-0.813-2.439-0.813c-0.843,0-1.566,0.26-2.174,0.777
			C182.059,684.798,181.657,685.493,181.463,686.368z M187.363,676.363l-1.748,3.108h-1.942l1.263-3.108H187.363z"/>
		<path fill="#BCBEC0" d="M194.94,693.75h-2.235v-11.898h2.138v1.651h0.098c0.34-0.583,0.861-1.068,1.565-1.456
			c0.704-0.39,1.404-0.584,2.1-0.584c0.875,0,1.644,0.203,2.309,0.607c0.663,0.404,1.148,0.963,1.456,1.676
			c0.987-1.521,2.356-2.283,4.104-2.283c1.375,0,2.435,0.422,3.18,1.263c0.745,0.842,1.118,2.04,1.118,3.594v7.431h-2.235v-7.09
			c0-1.117-0.202-1.923-0.606-2.416c-0.405-0.494-1.085-0.741-2.04-0.741c-0.858,0-1.578,0.363-2.16,1.092
			c-0.583,0.729-0.875,1.587-0.875,2.575v6.58h-2.233v-7.09c0-1.117-0.204-1.923-0.607-2.416c-0.404-0.494-1.084-0.741-2.04-0.741
			c-0.857,0-1.578,0.363-2.161,1.092c-0.583,0.729-0.873,1.587-0.873,2.575V693.75z"/>
		<path fill="#BCBEC0" d="M216.283,677.748c0,0.438-0.154,0.81-0.461,1.117c-0.309,0.308-0.682,0.461-1.117,0.461
			c-0.438,0-0.81-0.153-1.117-0.461s-0.462-0.68-0.462-1.117s0.154-0.809,0.462-1.116s0.68-0.462,1.117-0.462
			c0.436,0,0.809,0.154,1.117,0.462C216.129,676.939,216.283,677.311,216.283,677.748z M215.822,681.852v11.898h-2.234v-11.898
			H215.822z"/>
		<path fill="#BCBEC0" d="M224.054,694.138c-1.766,0-3.229-0.598-4.396-1.796c-1.149-1.23-1.724-2.744-1.724-4.541
			c0-1.829,0.574-3.343,1.724-4.541c1.166-1.198,2.63-1.797,4.396-1.797c1.213,0,2.273,0.304,3.18,0.911
			c0.907,0.607,1.588,1.444,2.041,2.513l-2.041,0.85c-0.631-1.488-1.739-2.233-3.325-2.233c-1.02,0-1.903,0.413-2.648,1.238
			c-0.728,0.825-1.092,1.846-1.092,3.06s0.364,2.234,1.092,3.06c0.745,0.825,1.629,1.237,2.648,1.237
			c1.634,0,2.783-0.743,3.447-2.233l1.99,0.851c-0.436,1.068-1.119,1.906-2.051,2.513S225.283,694.138,224.054,694.138z"/>
		<path fill="#BCBEC0" d="M230.487,687.801c0-1.829,0.575-3.343,1.725-4.541c1.165-1.198,2.631-1.797,4.396-1.797
			c1.764,0,3.222,0.599,4.37,1.797c1.166,1.198,1.749,2.712,1.749,4.541c0,1.845-0.583,3.359-1.749,4.541
			c-1.148,1.198-2.606,1.796-4.37,1.796c-1.765,0-3.23-0.598-4.396-1.796C231.063,691.145,230.487,689.63,230.487,687.801z
			 M232.723,687.801c0,1.279,0.372,2.315,1.117,3.107c0.744,0.793,1.666,1.189,2.768,1.189c1.101,0,2.023-0.396,2.768-1.189
			c0.745-0.792,1.117-1.828,1.117-3.107c0-1.264-0.372-2.29-1.117-3.084c-0.761-0.809-1.684-1.214-2.768-1.214
			c-1.085,0-2.007,0.405-2.768,1.214C233.095,685.511,232.723,686.537,232.723,687.801z"/>
	</g>
</g>
<g>
	<path d="M259.188,446.777v5.6h-0.896v-12.85h3.059c1.594,0,2.771,0.295,3.533,0.883c0.762,0.59,1.143,1.475,1.143,2.658
		c0,0.861-0.228,1.588-0.682,2.18s-1.144,1.018-2.069,1.275l3.489,5.854h-1.072l-3.313-5.6H259.188z M259.188,446.004h2.452
		c1.084,0,1.925-0.24,2.522-0.725c0.598-0.482,0.896-1.197,0.896-2.141c0-0.979-0.293-1.689-0.879-2.135s-1.541-0.668-2.865-0.668
		h-2.127V446.004z"/>
	<path d="M272.626,452.553c-1.389,0-2.472-0.428-3.247-1.283c-0.777-0.855-1.165-2.055-1.165-3.596c0-1.523,0.375-2.742,1.125-3.66
		c0.75-0.916,1.761-1.375,3.032-1.375c1.125,0,2.013,0.393,2.663,1.178s0.976,1.852,0.976,3.199v0.703h-6.882
		c0.012,1.313,0.317,2.314,0.919,3.006c0.6,0.691,1.46,1.037,2.579,1.037c0.545,0,1.024-0.039,1.437-0.115
		c0.414-0.076,0.937-0.24,1.569-0.492v0.791c-0.539,0.234-1.037,0.395-1.494,0.48C273.681,452.51,273.177,452.553,272.626,452.553z
		 M272.371,443.412c-0.92,0-1.658,0.303-2.215,0.91c-0.557,0.605-0.882,1.48-0.976,2.623h5.906c0-1.107-0.24-1.973-0.721-2.598
		C273.886,443.725,273.221,443.412,272.371,443.412z"/>
	<path d="M284.57,449.889c0,0.855-0.325,1.514-0.976,1.975c-0.65,0.459-1.573,0.689-2.769,0.689c-1.277,0-2.291-0.197-3.041-0.59
		v-0.939c0.961,0.48,1.975,0.721,3.041,0.721c0.943,0,1.659-0.156,2.148-0.471c0.489-0.313,0.734-0.73,0.734-1.252
		c0-0.48-0.195-0.885-0.584-1.213c-0.391-0.328-1.03-0.65-1.921-0.967c-0.955-0.346-1.626-0.643-2.013-0.893
		c-0.387-0.248-0.679-0.529-0.875-0.844c-0.196-0.313-0.294-0.695-0.294-1.146c0-0.715,0.3-1.281,0.901-1.697
		c0.6-0.416,1.439-0.623,2.518-0.623c1.031,0,2.01,0.193,2.936,0.58l-0.325,0.791c-0.938-0.387-1.808-0.58-2.61-0.58
		c-0.779,0-1.397,0.129-1.854,0.387s-0.686,0.615-0.686,1.072c0,0.498,0.177,0.896,0.532,1.195c0.354,0.299,1.047,0.633,2.078,1.002
		c0.861,0.311,1.488,0.59,1.881,0.84c0.393,0.248,0.687,0.531,0.883,0.848S284.57,449.461,284.57,449.889z"/>
	<path d="M290.89,452.553c-1.389,0-2.472-0.428-3.247-1.283c-0.777-0.855-1.165-2.055-1.165-3.596c0-1.523,0.375-2.742,1.125-3.66
		c0.75-0.916,1.761-1.375,3.032-1.375c1.125,0,2.013,0.393,2.663,1.178s0.976,1.852,0.976,3.199v0.703h-6.882
		c0.012,1.313,0.317,2.314,0.919,3.006c0.6,0.691,1.46,1.037,2.579,1.037c0.545,0,1.024-0.039,1.437-0.115
		c0.414-0.076,0.937-0.24,1.569-0.492v0.791c-0.539,0.234-1.037,0.395-1.494,0.48C291.944,452.51,291.44,452.553,290.89,452.553z
		 M290.635,443.412c-0.92,0-1.658,0.303-2.215,0.91c-0.557,0.605-0.882,1.48-0.976,2.623h5.906c0-1.107-0.24-1.973-0.721-2.598
		C292.149,443.725,291.484,443.412,290.635,443.412z"/>
	<path d="M302.711,452.377l-0.22-1.512h-0.07c-0.48,0.615-0.975,1.051-1.481,1.305c-0.507,0.256-1.105,0.383-1.797,0.383
		c-0.938,0-1.667-0.24-2.188-0.721s-0.782-1.146-0.782-1.996c0-0.932,0.388-1.654,1.164-2.17s1.9-0.789,3.371-0.818l1.819-0.053
		v-0.633c0-0.908-0.185-1.594-0.554-2.057s-0.964-0.693-1.784-0.693c-0.885,0-1.802,0.246-2.751,0.738l-0.325-0.756
		c1.049-0.492,2.086-0.738,3.111-0.738c1.049,0,1.833,0.271,2.351,0.816c0.52,0.545,0.778,1.395,0.778,2.549v6.355H302.711z
		 M299.195,451.762c1.02,0,1.824-0.291,2.412-0.875c0.59-0.582,0.884-1.393,0.884-2.43v-0.941l-1.67,0.07
		c-1.342,0.064-2.298,0.275-2.87,0.629c-0.57,0.355-0.856,0.906-0.856,1.656c0,0.598,0.183,1.063,0.55,1.395
		C298.01,451.596,298.527,451.762,299.195,451.762z"/>
	<path d="M310.208,442.639c0.404,0,0.838,0.041,1.301,0.123l-0.167,0.834c-0.398-0.1-0.812-0.148-1.239-0.148
		c-0.814,0-1.482,0.346-2.004,1.037s-0.782,1.564-0.782,2.619v5.273h-0.87v-9.555h0.738l0.088,1.723h0.062
		c0.393-0.703,0.812-1.195,1.257-1.48C309.036,442.781,309.575,442.639,310.208,442.639z"/>
	<path d="M317.266,452.553c-1.365,0-2.435-0.432-3.208-1.293s-1.16-2.063-1.16-3.604c0-1.582,0.401-2.813,1.204-3.695
		c0.803-0.881,1.901-1.322,3.296-1.322c0.826,0,1.617,0.143,2.373,0.43l-0.237,0.773c-0.826-0.275-1.544-0.412-2.153-0.412
		c-1.172,0-2.06,0.361-2.663,1.086c-0.604,0.723-0.905,1.764-0.905,3.123c0,1.289,0.302,2.299,0.905,3.029
		c0.604,0.729,1.447,1.094,2.531,1.094c0.867,0,1.673-0.156,2.417-0.467v0.809C319.056,452.402,318.256,452.553,317.266,452.553z"/>
	<path d="M328.665,452.377v-6.197c0-0.961-0.202-1.658-0.606-2.096c-0.404-0.436-1.031-0.654-1.881-0.654
		c-1.143,0-1.979,0.289-2.51,0.865c-0.53,0.578-0.795,1.514-0.795,2.809v5.273h-0.87v-13.676h0.87v4.35l-0.044,1.223h0.062
		c0.357-0.574,0.809-0.99,1.354-1.248s1.222-0.387,2.03-0.387c2.168,0,3.252,1.162,3.252,3.488v6.25H328.665z"/>
	<path d="M337.894,445.898h4.737v5.863c-1.242,0.527-2.64,0.791-4.192,0.791c-2.027,0-3.581-0.572-4.663-1.719
		c-1.08-1.145-1.621-2.768-1.621-4.865c0-1.307,0.268-2.465,0.805-3.475c0.535-1.012,1.303-1.793,2.303-2.344
		c0.998-0.551,2.146-0.826,3.44-0.826c1.4,0,2.657,0.258,3.771,0.773l-0.36,0.809c-1.113-0.516-2.268-0.773-3.463-0.773
		c-1.693,0-3.036,0.523-4.03,1.57c-0.992,1.045-1.489,2.455-1.489,4.23c0,1.934,0.472,3.389,1.415,4.365
		c0.943,0.975,2.329,1.463,4.157,1.463c1.184,0,2.188-0.168,3.015-0.502v-4.518h-3.823V445.898z"/>
	<path d="M351.438,452.377l-0.22-1.512h-0.07c-0.48,0.615-0.975,1.051-1.481,1.305c-0.507,0.256-1.105,0.383-1.797,0.383
		c-0.938,0-1.667-0.24-2.188-0.721s-0.782-1.146-0.782-1.996c0-0.932,0.388-1.654,1.164-2.17s1.9-0.789,3.371-0.818l1.819-0.053
		v-0.633c0-0.908-0.185-1.594-0.554-2.057s-0.964-0.693-1.784-0.693c-0.885,0-1.802,0.246-2.751,0.738l-0.325-0.756
		c1.049-0.492,2.086-0.738,3.111-0.738c1.049,0,1.833,0.271,2.351,0.816c0.52,0.545,0.778,1.395,0.778,2.549v6.355H351.438z
		 M347.922,451.762c1.02,0,1.824-0.291,2.412-0.875c0.59-0.582,0.884-1.393,0.884-2.43v-0.941l-1.67,0.07
		c-1.342,0.064-2.298,0.275-2.87,0.629c-0.57,0.355-0.856,0.906-0.856,1.656c0,0.598,0.183,1.063,0.55,1.395
		C346.736,451.596,347.254,451.762,347.922,451.762z"/>
	<path d="M357.695,451.779c0.551,0,1.031-0.047,1.441-0.141v0.703c-0.422,0.141-0.908,0.211-1.459,0.211
		c-0.844,0-1.467-0.227-1.867-0.678c-0.402-0.451-0.603-1.16-0.603-2.127v-6.17h-1.415v-0.51l1.415-0.395l0.439-2.162h0.448v2.311
		h2.804v0.756h-2.804v6.047c0,0.732,0.129,1.275,0.387,1.627S357.145,451.779,357.695,451.779z"/>
	<path d="M365.061,452.553c-1.389,0-2.472-0.428-3.248-1.283s-1.164-2.055-1.164-3.596c0-1.523,0.375-2.742,1.125-3.66
		c0.75-0.916,1.761-1.375,3.032-1.375c1.125,0,2.013,0.393,2.663,1.178s0.976,1.852,0.976,3.199v0.703h-6.882
		c0.012,1.313,0.317,2.314,0.918,3.006s1.461,1.037,2.58,1.037c0.545,0,1.023-0.039,1.438-0.115c0.412-0.076,0.936-0.24,1.568-0.492
		v0.791c-0.539,0.234-1.037,0.395-1.494,0.48C366.115,452.51,365.611,452.553,365.061,452.553z M364.806,443.412
		c-0.92,0-1.658,0.303-2.215,0.91c-0.557,0.605-0.882,1.48-0.976,2.623h5.906c0-1.107-0.24-1.973-0.721-2.598
		C366.32,443.725,365.655,443.412,364.806,443.412z"/>
</g>
<g>
	<path d="M264.39,83.386h3.524c1.588,0,2.754,0.27,3.498,0.809s1.116,1.354,1.116,2.443c0,0.744-0.228,1.364-0.681,1.858
		c-0.455,0.496-1.118,0.813-1.991,0.954v0.053c1.025,0.152,1.78,0.477,2.263,0.972c0.484,0.495,0.726,1.185,0.726,2.069
		c0,1.184-0.393,2.095-1.178,2.733s-1.898,0.958-3.34,0.958h-3.938V83.386z M265.286,89.107h2.83c1.207,0,2.084-0.2,2.632-0.602
		s0.822-1.03,0.822-1.886s-0.31-1.477-0.928-1.863s-1.539-0.58-2.764-0.58h-2.593V89.107z M265.286,89.898v5.546h3.023
		c2.379,0,3.568-0.967,3.568-2.9c0-1.764-1.254-2.646-3.762-2.646H265.286z"/>
	<path d="M275.332,84.027c0-0.563,0.185-0.844,0.554-0.844c0.182,0,0.323,0.073,0.427,0.22c0.102,0.146,0.153,0.354,0.153,0.624
		c0,0.264-0.052,0.472-0.153,0.624c-0.104,0.152-0.245,0.229-0.427,0.229C275.517,84.88,275.332,84.596,275.332,84.027z
		 M276.325,96.235h-0.87v-9.554h0.87V96.235z"/>
	<path d="M287.426,91.445c0,1.559-0.378,2.776-1.134,3.652s-1.799,1.313-3.129,1.313c-0.838,0-1.576-0.202-2.215-0.606
		s-1.128-0.984-1.468-1.74s-0.51-1.629-0.51-2.619c0-1.559,0.378-2.773,1.134-3.643c0.756-0.871,1.793-1.306,3.111-1.306
		c1.313,0,2.343,0.441,3.089,1.323C287.053,88.702,287.426,89.91,287.426,91.445z M279.885,91.445c0,1.313,0.288,2.337,0.865,3.072
		s1.394,1.103,2.448,1.103s1.87-0.367,2.448-1.103c0.576-0.735,0.865-1.76,0.865-3.072c0-1.318-0.292-2.341-0.875-3.067
		s-1.401-1.09-2.456-1.09s-1.868,0.362-2.438,1.085C280.17,89.098,279.885,90.121,279.885,91.445z"/>
	<path d="M292.594,95.638c0.551,0,1.031-0.047,1.441-0.141V96.2c-0.422,0.141-0.908,0.211-1.459,0.211
		c-0.844,0-1.467-0.226-1.867-0.677c-0.402-0.451-0.603-1.16-0.603-2.127v-6.17h-1.415v-0.51l1.415-0.396l0.439-2.162h0.448v2.312
		h2.804v0.756h-2.804v6.047c0,0.732,0.129,1.274,0.387,1.626S292.043,95.638,292.594,95.638z"/>
	<path d="M299.959,96.411c-1.389,0-2.472-0.428-3.248-1.283s-1.164-2.054-1.164-3.595c0-1.523,0.375-2.743,1.125-3.66
		s1.761-1.376,3.032-1.376c1.125,0,2.013,0.393,2.663,1.178s0.976,1.852,0.976,3.199v0.703h-6.882
		c0.012,1.313,0.317,2.314,0.918,3.006s1.461,1.037,2.58,1.037c0.545,0,1.023-0.038,1.438-0.114c0.412-0.076,0.936-0.24,1.568-0.492
		v0.791c-0.539,0.234-1.037,0.395-1.494,0.479C301.014,96.368,300.51,96.411,299.959,96.411z M299.704,87.271
		c-0.92,0-1.658,0.304-2.215,0.909c-0.557,0.607-0.882,1.481-0.976,2.624h5.906c0-1.107-0.24-1.974-0.721-2.597
		C301.219,87.582,300.554,87.271,299.704,87.271z"/>
	<path d="M309.794,96.411c-1.365,0-2.435-0.431-3.208-1.292s-1.16-2.063-1.16-3.604c0-1.582,0.401-2.813,1.204-3.695
		s1.901-1.323,3.296-1.323c0.826,0,1.617,0.144,2.373,0.431l-0.237,0.773c-0.826-0.275-1.544-0.413-2.153-0.413
		c-1.172,0-2.06,0.362-2.663,1.085c-0.604,0.725-0.905,1.766-0.905,3.125c0,1.289,0.302,2.299,0.905,3.027
		c0.604,0.73,1.447,1.095,2.531,1.095c0.867,0,1.673-0.155,2.417-0.466v0.809C311.584,96.262,310.784,96.411,309.794,96.411z"/>
	<path d="M320.332,96.235l-0.22-1.512h-0.07c-0.48,0.615-0.975,1.05-1.481,1.306c-0.507,0.254-1.105,0.382-1.797,0.382
		c-0.938,0-1.667-0.24-2.188-0.721s-0.782-1.146-0.782-1.995c0-0.932,0.388-1.655,1.164-2.171s1.9-0.788,3.371-0.817l1.819-0.053
		v-0.633c0-0.908-0.185-1.594-0.554-2.057s-0.964-0.694-1.784-0.694c-0.885,0-1.802,0.246-2.751,0.738l-0.325-0.756
		c1.049-0.492,2.086-0.738,3.111-0.738c1.049,0,1.833,0.272,2.351,0.817c0.52,0.545,0.778,1.395,0.778,2.549v6.354H320.332z
		 M316.816,95.62c1.02,0,1.824-0.291,2.412-0.874c0.59-0.583,0.884-1.394,0.884-2.431v-0.94l-1.67,0.07
		c-1.342,0.064-2.298,0.274-2.87,0.629c-0.57,0.354-0.856,0.906-0.856,1.656c0,0.598,0.183,1.063,0.55,1.393
		C315.631,95.455,316.148,95.62,316.816,95.62z"/>
</g>
<g>
	<g>
		<path fill="#676E6E" d="M131.298,165.733c0.209-0.705,0.521-1.776,0.861-3.239c0.47,0,1.985,0.053,2.454,0.105
			c0.08,1.018,0.105,2.794,0.105,3.761l-0.366,0.731c-1.489,0.994-3.865,1.802-6.581,1.802c-5.773,0-9.403-3.552-9.403-9.35
			c0-5.877,4.544-9.821,9.978-9.821c2.429,0,4.493,0.653,6.217,1.542l0.391,0.705c-0.234,1.358-0.601,3.265-0.861,4.571
			c-0.496,0-1.724-0.026-2.272-0.105c-0.209-1.566-0.496-2.873-0.732-3.525c-0.73-0.471-1.854-0.836-3.238-0.836
			c-1.41,0-2.638,0.393-3.474,0.967c-1.201,1.411-2.037,3.683-2.037,6.27c0,4.283,2.22,7.13,5.852,7.13
			C129.651,166.438,130.618,166.151,131.298,165.733z"/>
		<path fill="#676E6E" d="M137.307,159.856c0-6.033,4.335-10.134,9.611-10.134c5.146,0,8.725,3.501,8.725,9.038
			c0,5.928-4.049,10.133-9.353,10.133C140.963,168.893,137.307,165.394,137.307,159.856z M150.262,165.394
			c0.679-1.071,1.41-3.004,1.41-5.851c0-4.545-1.646-7.471-5.276-7.471c-1.332,0-2.481,0.366-3.343,1.019
			c-0.993,1.359-1.803,3.5-1.803,6.296c0,4.44,2.037,7.208,5.538,7.208C148.302,166.595,149.478,166.125,150.262,165.394z"/>
		<path fill="#676E6E" d="M171.666,168.554l-2.298-3.265c-2.299-3.134-5.198-6.765-7.471-9.612
			c0.025,5.172,0.156,9.952,0.418,10.474c0.287,0.366,1.802,0.654,3.004,0.94l-0.288,1.359h-7.601l-0.287-1.359l2.325-0.704
			c0.104-0.863,0.182-3.213,0.182-7.027c0-4.257-0.051-6.477-0.313-6.87c-0.418-0.314-1.437-0.705-2.247-0.965l0.289-1.359
			c1.671,0,3.655-0.052,5.223-0.077c1.646,2.978,6.113,8.488,9.612,12.825c-0.053-5.485-0.209-9.952-0.471-10.448
			c-0.234-0.34-1.749-0.68-2.741-0.94l0.286-1.359h7.575l0.288,1.359l-2.352,0.731c-0.235,1.933-0.339,8.097-0.339,16.038
			L171.666,168.554z"/>
		<path fill="#676E6E" d="M185.573,168.45h-7.626l-0.288-1.359l2.221-0.887c1.75-3.814,3.63-8.671,5.432-13.348l0.862-2.534
			c0.653-0.183,2.82-0.47,3.996-0.444c0.209,0.836,0.497,1.829,0.967,3.004c1.829,4.649,3.866,10.082,5.276,13.399l2.403,0.809
			l-0.288,1.359h-8.201l-0.286-1.359l2.428-0.704c-0.417-1.15-0.862-2.456-1.384-3.918l-6.948,0.131
			c-0.443,1.253-0.836,2.481-1.201,3.63l2.952,0.861L185.573,168.45z M190.406,160.535c-0.836-2.324-1.803-4.909-2.848-7.521
			c-0.94,2.429-1.854,4.988-2.717,7.444L190.406,160.535z"/>
		<path fill="#676E6E" d="M203.767,166.387c0.079-0.496,0.184-3.37,0.184-4.806v-4.545c0-1.567-0.026-4.179-0.314-4.57
			c-0.208-0.34-1.356-0.706-2.192-0.94l0.286-1.359h3.787c0.889,0,3.762-0.156,4.99-0.156c4.23,0,6.816,1.567,6.816,4.728
			c0,2.038-1.357,3.421-2.952,4.232c2.143,0.548,3.918,1.958,3.918,4.466c0,3.447-3.16,5.224-6.843,5.224
			c-1.646,0-3.97-0.209-5.746-0.209h-3.971l-0.286-1.359L203.767,166.387z M207.58,158.264l4.102,0.156
			c0.94-0.522,1.881-1.725,1.881-3.396c0-1.098-0.314-1.829-0.731-2.325c-0.627-0.496-1.646-0.731-2.769-0.731
			c-0.653,0-1.438,0.079-2.064,0.182l-0.234,0.079c-0.078,0.496-0.184,3.37-0.184,4.806V158.264z M208.025,166.282
			c0.496,0.262,1.696,0.418,2.794,0.418c0.705,0,1.62-0.078,2.298-0.313c0.811-0.576,1.385-1.672,1.385-2.952
			c0-1.803-1.148-3.004-3.474-3.004h-3.448v1.15c0,1.567,0.027,4.178,0.313,4.57C207.92,166.204,207.973,166.229,208.025,166.282z"
			/>
		<path fill="#676E6E" d="M223.05,166.387c0.077-0.496,0.183-3.37,0.183-4.806v-4.545c0-1.567-0.025-4.179-0.314-4.57
			c-0.209-0.34-1.356-0.706-2.192-0.94l0.286-1.359h8.072l0.286,1.359l-2.324,0.704c-0.078,0.496-0.183,3.37-0.183,4.806v4.545
			c0,1.567,0.026,4.178,0.313,4.57c0.209,0.34,1.358,0.706,2.193,0.94l-0.286,1.359h-8.072l-0.286-1.359L223.05,166.387z"/>
		<path fill="#676E6E" d="M231.308,159.856c0-6.033,4.336-10.134,9.611-10.134c5.146,0,8.725,3.501,8.725,9.038
			c0,5.928-4.048,10.133-9.352,10.133C234.964,168.893,231.308,165.394,231.308,159.856z M244.263,165.394
			c0.679-1.071,1.41-3.004,1.41-5.851c0-4.545-1.646-7.471-5.276-7.471c-1.332,0-2.48,0.366-3.343,1.019
			c-0.992,1.359-1.803,3.5-1.803,6.296c0,4.44,2.038,7.208,5.538,7.208C242.304,166.595,243.479,166.125,244.263,165.394z"/>
	</g>
	<g>
		<g>
			<path fill-rule="evenodd" clip-rule="evenodd" fill="#76232D" d="M192.171,105.889c0.324,0,0.59,0.227,0.59,0.493
				c0,0.272-0.266,0.488-0.59,0.488c-0.326,0-0.586-0.215-0.586-0.488C191.585,106.115,191.845,105.889,192.171,105.889
				 M190.663,104.546c0.488-0.291,1.916-0.308,2.642-0.056c0.732,0.253,1.759,0.637,2.185,0.951
				c0.406,0.324,1.737,1.489,1.821,1.796c0.083,0.306,0.139,0.825,0,1.139c-0.139,0.308-0.403,0.609-0.694,0.848
				c-0.302,0.238-1.707,0.701-2.078,0.746c-0.354,0.034-1.404,0.234-1.751,0.195c-0.348-0.037-2.4-0.968-2.544-0.941
				c-0.144,0.029-0.493,0.78-0.493,0.78s-1.135-0.632-1.074-1.994c0.072-1.376,0.479-1.727,0.618-1.911
				c0.136-0.178,0.513-0.307,0.626-0.543C190.032,105.314,190.18,104.84,190.663,104.546z"/>
			<path fill-rule="evenodd" clip-rule="evenodd" fill="#76232D" d="M196.607,109.89c0.518-0.371,0.896-0.986,0.996-0.982
				c0.079-0.004,0.688,0.434,1.241,1.063c0.484,0.546,0.91,1.253,1.23,1.725c0.696,1.001,1.955,3.134,2.229,4.364
				c0.15,0.675,0.452,3.37,0.167,5.671c-0.221,1.728-0.333,3.5-0.37,3.577c-0.081,0.185-0.34,0.778-0.657,0.563
				c-2.534-1.758-4.824-4.606-6.239-7.299c-0.346-0.656-0.641-1.292-0.934-1.88c-0.568-1.162-0.983-2.225-1.285-3.066
				c-0.393-1.07-0.523-1.803-0.528-2.032c0-0.541,0.136-0.887,0.222-0.925c0.075-0.034,0.262,0.025,0.554,0.055
				c0.324,0.037,0.677,0.037,0.964,0.028C195.369,110.634,195.616,110.602,196.607,109.89"/>
			<path fill-rule="evenodd" clip-rule="evenodd" fill="#76232D" d="M197.07,122.594c0.188-0.069,0.352,0.29,0.61,0.53
				c0.255,0.241,1.696,1.608,1.988,1.969c0.306,0.36,0.638,0.767,0.803,1.22c0.161,0.457,0.208,0.786-0.127,2.297
				c-0.355,1.508-1.953,8.163-2.874,11.183c-0.925,3.02-1.021,3.702-1.095,3.888c-0.081,0.199-0.146,0.456-0.524,0.416
				c-0.398-0.028-0.511-0.165-0.567-0.619c-0.064-0.448-0.146-2.208,0-3.806c0.131-1.593,0.567-4.389,0.567-6.002
				c0-1.609-0.224-2.417-0.169-3.551c0.045-1.138,0.547-4.474,0.796-5.476C196.702,123.65,196.878,122.655,197.07,122.594"/>
			<path fill-rule="evenodd" clip-rule="evenodd" fill="#76232D" d="M185.756,111.243c0.014-0.546,0.356-0.63,1.039-0.705
				c0.697-0.071,1.303,0.019,1.654,0.155c0.343,0.129,1.453,0.63,1.675,0.789c0.235,0.155,1.067,1.009,1.429,1.474
				c0.356,0.468,1.163,1.483,1.542,2.591c0.396,1.097,0.413,1.553,0.396,1.679c-0.018,0.132-0.646,1.109-0.992,1.424
				c-0.332,0.306-1.192,1.569-3.225,1.414c-2.03-0.158-2.986-1.74-3.502-2.088c-0.515-0.341-0.598-0.511-1.148-0.732
				c-0.554-0.215-0.612-0.435-0.534-0.739c0.082-0.317,0.32-0.614,0.986-0.585c0.647,0.036,1.423,0.216,1.423,0.216
				s-0.189-0.318-0.648-0.448c-0.462-0.133-1.331-0.171-1.891-0.329c-0.563-0.157-0.438-0.483-0.429-0.57
				c0.008-0.102,0.02-0.616,0.769-0.689c0.732-0.074,2.367-0.104,2.367-0.104s-2.143-0.383-2.383-0.458
				c-0.241-0.078-0.375-0.279-0.347-0.531c0.022-0.25,0.105-0.635,0.602-0.71c0.49-0.09,0.85-0.168,1.372-0.137
				c0.535,0.033,2.006,0.296,2.006,0.296s0.039-0.199-0.491-0.401C186.894,111.848,185.75,111.788,185.756,111.243"/>
			<path fill-rule="evenodd" clip-rule="evenodd" fill="#76232D" d="M187.852,121.497c-0.049-0.457,0.017-0.615,0.121-0.665
				c0.09-0.048,1.516-0.361,2.068-0.431c0.539-0.079,1.681-0.183,1.859-0.31c0.176-0.114,0.424-0.163,0.722-0.44
				c0.28-0.268,1.068-1.066,1.415-1.142c0.323-0.077,0.585-0.14,0.848,0.267c0.266,0.41,0.332,0.72,0.21,1.054
				c-0.114,0.33-0.677,1.157-1.752,1.775c-1.07,0.623-1.399,0.686-1.804,0.694c-0.404,0.021-2.205,0.225-2.891,0.096
				C187.955,122.264,187.899,121.945,187.852,121.497"/>
			<path fill-rule="evenodd" clip-rule="evenodd" fill="#76232D" d="M188.572,123.003c0.68,0,2.84-0.044,3.18-0.102
				c0.347-0.057,1.095-0.218,1.618-0.573c0.516-0.357,1.664-1.164,1.833-1.136c0.149,0.029,0.656,0.177,0.684,0.612
				c0.036,0.433,0.023,1.135-0.813,1.96c-0.844,0.82-2.379,1.007-3.296,1.177c-0.929,0.18-1.798,0.281-2.116,0.252
				c-0.327-0.016-1.591-0.181-1.661-0.691C187.936,124.011,187.885,123.003,188.572,123.003"/>
			<path fill-rule="evenodd" clip-rule="evenodd" fill="#76232D" d="M195.231,124.899c0.138-0.061,0.097,2.499-0.234,3.995
				c-0.338,1.505-1.466,6.011-1.663,6.345c-0.185,0.344-1.739,1.13-2.227,1.36c-0.48,0.223-1.665,0.632-1.744,0.639
				c-0.084,0.009-0.654,0.276-0.626-0.446c0.027-0.719,0.16-4.15-0.046-6.52c-0.216-2.367-0.259-3.347-0.293-3.641
				c-0.037-0.289-0.086-0.787,0.408-0.804c0.497-0.022,1.976,0.005,3.074-0.169C192.982,125.48,195.104,124.957,195.231,124.899"/>
			<path fill-rule="evenodd" clip-rule="evenodd" fill="#76232D" d="M173.521,129.791c0.061,0,0.305,0.352,0.408,0.499
				c0.115,0.159,2.173,2.987,5.1,3.604c2.928,0.625,3.908-0.096,4.214-0.456c0.307-0.361,0.959-2.157,1.11-2.627
				c0.139-0.477,0.5-0.964,1.22-1.138c0.276-0.066,0.676-0.156,1.026-0.177c0.611-0.039,1.188,0.063,1.392,0.223
				c0.321,0.266,0.352,2.495,0.212,3.718c-0.15,1.227-0.451,3.569-0.521,3.73c-0.063,0.166-1.267,0.79-3.779,0.846
				c-2.519,0.065-7.062-0.757-9.483-2.054c-2.418-1.282-3.421-2.225-4.38-3.187c-0.96-0.965-0.76-0.872-0.684-1.104
				c0.068-0.231,0.265-0.644,0.403-0.688c0.156-0.031,0.928-0.09,1.523-0.222c0.603-0.13,1.465-0.311,1.77-0.613
				C173.355,129.847,173.454,129.794,173.521,129.791"/>
			<path fill-rule="evenodd" clip-rule="evenodd" fill="#76232D" d="M199.449,136.375c0.248,0.14,0.978-0.221,2.07-1.308
				c1.091-1.086,1.464-1.671,1.889-2.284c0.413-0.617,2.35-4.023,3.052-7.278c0.7-3.248,0.666-4.22,0.675-5.713
				c0.025-1.491-0.613-6.089-1.6-8.338c-0.992-2.236-1.887-4.767-3.894-6.587c-1.999-1.83-5.642-4.461-10.036-5.606
				c-4.395-1.143-5.548-1.005-6.959-1.055c-1.393-0.046-5.088,0.222-7.396,0.685c-2.304,0.453-3.029,0.764-3.668,0.924
				c-0.637,0.152-6.898,2.942-9.589,7.491c-2.674,4.555-3.25,10.065-3.094,12.921c0.152,2.858,0.854,10.703,4.878,15.214
				c4.014,4.5,8.926,6.483,16.855,6.901c7.936,0.413,11.999-2.775,11.999-2.775l0.49-3.887c0,0-5.454,2.99-11.435,3.097
				c-5.975,0.112-11.493-2.171-14.83-5.934c-3.345-3.757-4.468-11.071-3.939-16.243c0.53-5.16,2.813-10.392,9.932-13.101
				c7.131-2.698,15.699-0.5,18.025,0.157c2.34,0.663,8.887,4.92,10.207,12.794c1.312,7.866-1.237,11.403-1.855,12.855
				c-0.615,1.451-1.447,2.944-1.614,4.193C199.461,134.76,199.201,136.231,199.449,136.375"/>
			<path fill-rule="evenodd" clip-rule="evenodd" fill="#76232D" d="M170.033,124.799c0.503-0.048,1.325,0.45,1.353,0.914
				c0.029,0.463-0.197,0.979-0.792,1.091c-0.6,0.101-1.546,0.12-1.773-0.454c-0.229-0.57,0-1.101,0.359-1.292
				C169.536,124.855,169.525,124.849,170.033,124.799 M169.787,124.455c1.098,0,2.32,0.863,2.32,1.878
				c0.01,1.012-0.609,1.656-1.604,1.577c-0.994-0.088-2.336-0.55-2.242-1.963C168.354,124.535,169.787,124.455,169.787,124.455z
				 M177.818,119.275c0.662-0.607,1.762-0.403,1.832-0.339c0.032,0.031-0.037,0.307-0.208,0.611c-0.161,0.274-0.417,0.56-0.705,0.83
				c-0.595,0.572-1.487,0.672-1.626,0.534C176.962,120.761,177.154,119.879,177.818,119.275z M184.273,121.092
				c0.15,0.129-0.087,0.545-0.185,0.605c-0.067,0.06-0.407,0.345-0.663,0.125c-0.257-0.217-0.124-0.495,0.244-0.689
				C184.028,120.948,184.141,120.96,184.273,121.092z M182.385,102.996c0.43-0.013,1.221,1.772,1.333,2.797
				c0.121,1.03,0.414,2.56-0.317,4.548c-0.718,1.981-1.847,3.534-2.198,3.585c-0.363,0.05-0.714,0.108-0.714,0.108
				s-1.444-1.221-3.019-1.086c-1.578,0.132-2.728,0.629-4.088,1.804c-1.362,1.187-1.967,2.362-2.124,3.257
				c-0.157,0.898-0.107,2.414,0.254,3.197c0.364,0.796,0.518,0.676,0.518,0.676s0.256,0.066,0.296-0.028
				c0.042-0.099-0.758-2.466-0.247-3.959c0.506-1.48,1.123-2.812,3.785-3.947c2.426-1.028,3.497,0.482,4.162,0.966
				c0.633,0.466,1.184,0.805,1.613,1.077c0.426,0.267,2.854,1.904,3.867,3.085c1.022,1.184,1.144,1.254,1.022,1.695
				c-0.131,0.427-0.711,0.945-0.679,1.252c0.021,0.311,0.548,1.05,0.309,1.517c-0.238,0.469-0.424,0.664-1.071,0.978
				c-0.663,0.325-0.916,0.757-0.897,0.861c0.013,0.089,0.303,0.064,0.552-0.02c0.262-0.084,0.476-0.297,0.963-0.238
				c0.472,0.054,1.067,0.126,1.249,1.246c0.19,1.11,0.19,1.659-0.201,2.158c-0.383,0.494-0.882,0.541-1.379,0.723
				c-0.48,0.184-1.002,0.202-1.223,0.451c-0.227,0.257-0.71,1.221-0.896,2.159c-0.188,0.932-0.616,1.42-0.746,1.51
				c-0.137,0.103-2.799,0.216-4.074-0.268c-1.286-0.476-1.877-0.953-2.997-2.062c-1.118-1.109-1.595-1.791-1.595-1.791h-0.499
				c0,0-1.165,1.253-2.729,1.003c-1.561-0.255-4.202-1.205-4.167-4.421c0.037-3.213,2.197-3.51,2.301-3.712
				c0.109-0.203,0.154-0.493-0.299-0.483c-0.449,0.018-1.142,0.23-1.572,0.509c-0.43,0.282-1.226,0.919-1.291,0.324
				c-0.073-0.585,0.107-2.182,1.633-2.933c1.519-0.752,1.875-0.601,1.848-1.167c-0.019-0.561-1.181-0.322-1.552-0.174
				c-0.358,0.148-1.237,0.588-1.308,0.685c-0.065,0.092-0.649,0.533-0.649-0.113c0-0.665,0.22-1.938,1.509-2.699
				c1.279-0.764,2.637-0.438,2.674-0.909c0.033-0.475-0.537-0.632-1.027-0.573c-0.505,0.049-1.877,0.494-2.144,0.718
				c-0.256,0.227-0.706,0.264-0.584-0.389c0.111-0.657,0.717-2.213,2.298-2.662c1.572-0.466,2.835,0.375,2.975,0.09
				c0.152-0.281,0.029-0.819-0.63-1.113c-0.656-0.29-1.092-0.426-2.043-0.134c-0.953,0.293-1.157,0.151-1.001-0.218
				c0.162-0.354,0.652-2.238,2.915-2.248c2.256-0.009,2.831,2.076,3.359,1.935c0.543-0.15-0.214-1.853-0.657-2.543
				c-0.434-0.703-1.958-1.797-1.381-2.211c0.567-0.417,1.976-0.256,2.854,0.304c0.882,0.559,0.882,0.671,1.109,0.998
				c0.231,0.316,1.095,2.273,1.287,2.203c0.187-0.069,0.267-1.218,0.104-2.035c-0.157-0.823-1.24-2.623-1.577-2.939
				c-0.332-0.304-0.259-0.574,0.337-0.604c0.586-0.045,2.229,0.15,3.141,1.295c0.902,1.13,0.949,3.118,0.829,3.395
				c-0.099,0.285-0.06,1.019,0.34,0.582c0.397-0.445,1.25-1.851,1.458-3.241C181.917,104.376,181.957,103.004,182.385,102.996z"/>
		</g>
	</g>
</g>
</svg>
