<?xml version="1.0" encoding="utf-8"?>
<!-- Generator: Adobe Illustrator 14.0.0, SVG Export Plug-In . SVG Version: 6.00 Build 43363)  -->
<!DOCTYPE svg PUBLIC "-//W3C//DTD SVG 1.1//EN" "http://www.w3.org/Graphics/SVG/1.1/DTD/svg11.dtd">
<svg version="1.1" id="Layer_1" xmlns="http://www.w3.org/2000/svg" xmlns:xlink="http://www.w3.org/1999/xlink" x="0px" y="0px"
	 width="470.787px" height="198.877px" viewBox="0 0 470.787 198.877" enable-background="new 0 0 470.787 198.877"
	 xml:space="preserve">
<g>
	<g>
		<path fill="#EFB830" d="M362.093,93.491H45.614c-13.096,0-23.749-10.653-23.749-23.749c0-13.095,10.653-23.748,23.749-23.748
			h316.479c13.095,0,23.748,10.653,23.748,23.748C385.841,82.838,375.188,93.491,362.093,93.491z M45.614,50.075
			c-10.846,0-19.668,8.823-19.668,19.667c0,10.845,8.822,19.668,19.668,19.668h316.479c10.844,0,19.667-8.823,19.667-19.668
			c0-10.844-8.823-19.667-19.667-19.667H45.614z"/>
	</g>
	<path fill="#EFB830" d="M362.093,48.035h-36.43V91.45h36.43c11.988,0,21.707-9.719,21.707-21.707l0,0
		C383.8,57.754,374.081,48.035,362.093,48.035z"/>
	<path fill="#FFFFFF" d="M368.435,80.216l-7.186-7.187c1.453-1.943,2.246-4.319,2.246-6.751c0-6.224-5.063-11.287-11.285-11.287
		c-6.224,0-11.287,5.063-11.287,11.287s5.063,11.287,11.287,11.287c1.807,0,3.595-0.443,5.203-1.283l7.478,7.479
		c0.474,0.473,1.103,0.733,1.771,0.733s1.298-0.261,1.772-0.734c0.474-0.473,0.734-1.103,0.734-1.771
		C369.169,81.318,368.908,80.689,368.435,80.216z M360.312,66.278c0,4.468-3.635,8.102-8.102,8.102
		c-4.468,0-8.104-3.634-8.104-8.102s3.636-8.102,8.104-8.102C356.677,58.177,360.312,61.811,360.312,66.278z"/>
	<path opacity="0.7" fill="#438287" d="M136.716,79.087H46.144c-5.16,0-9.344-4.184-9.344-9.344l0,0c0-5.16,4.184-9.344,9.344-9.344
		h90.572c5.16,0,9.344,4.184,9.344,9.344l0,0C146.06,74.903,141.876,79.087,136.716,79.087z"/>
	<g>

			<rect x="398.227" y="108.753" transform="matrix(0.7722 -0.6353 0.6353 0.7722 8.4184 286.5074)" fill="#438287" width="11.17" height="45.518"/>
		<path fill="#124D5C" d="M317.709,26.856c-24.173,19.888-27.647,55.606-7.759,79.779c19.888,24.174,55.606,27.647,79.779,7.76
			c24.174-19.889,27.647-55.607,7.759-79.78C377.601,10.442,341.882,6.968,317.709,26.856z M384.604,108.165
			c-20.732,17.058-51.367,14.078-68.425-6.654s-14.078-51.367,6.654-68.425s51.367-14.078,68.425,6.654
			C408.316,60.474,405.337,91.108,384.604,108.165z"/>
		<path fill="#124D5C" d="M446.233,183.074L446.233,183.074c-3.537,2.91-8.763,2.401-11.673-1.136l-39.584-48.085l12.809-10.538
			l39.584,48.085C450.279,174.938,449.771,180.164,446.233,183.074z"/>
	</g>
</g>
</svg>
