<?xml version="1.0" encoding="utf-8"?>
<!-- Generator: Adobe Illustrator 14.0.0, SVG Export Plug-In . SVG Version: 6.00 Build 43363)  -->
<!DOCTYPE svg PUBLIC "-//W3C//DTD SVG 1.1//EN" "http://www.w3.org/Graphics/SVG/1.1/DTD/svg11.dtd">
<svg version="1.1" id="Layer_1" xmlns="http://www.w3.org/2000/svg" xmlns:xlink="http://www.w3.org/1999/xlink" x="0px" y="0px"
	 width="276.404px" height="167.416px" viewBox="0 0 276.404 167.416" enable-background="new 0 0 276.404 167.416"
	 xml:space="preserve">
<g>
	<g>
		<path fill="#124D5C" d="M92.305,67.296c0,0,1.124-2.143,1.306-3.699c0.253-2.121-0.816-4.628-0.781-6.188
			c0.054-2.523,1.025-5.641,2.206-7.065c2.183-2.631,5.389-4.305,6.213-3.995c0.215,0.081,0.602,3.198,0.842,4.257
			c0.473,2.08,2.143,6.051,2.514,8.15c0.239,1.354,0.401,4.122,0.28,5.492c-0.254,2.853-1.846,4.855-1.589,4.968
			c0.587,0.267,1.725-0.188,2.441-0.821c1.225-1.087,2.387-4.322,2.903-5.875c0.625-1.884,1.325-5.883,2.369-7.567
			c0.93-1.511,3.578-4.024,5.107-4.928c0.812-0.481,2.575-1.216,3.501-1.411c0.812-0.173,3.049-0.409,3.324-0.116
			c0.313,0.334-0.52,2.759-0.695,3.678c-0.432,2.248-0.504,6.854-0.786,9.13c-0.249,2.04-0.706,6.205-1.577,8.066
			c-0.693,1.481-2.301,3.487-4.126,5.073c-1.925,1.67-4.435,2.578-5.742,3.673c-0.357,0.296-0.749,0.471-0.528,0.896
			c0.288,0.542,0.597,0.291,1.365,0.13c2.496-0.522,7.15-2.722,9.565-3.548c2.038-0.698,6.185-2.043,8.335-2.176
			c1.544-0.094,4.663,0.352,6.141,0.819c2.384,0.751,6.539,3.408,6.367,4.397c-0.07,0.418-4.528,1.442-5.972,2.09
			c-2.75,1.229-4.188,2.654-6.115,4.042c-2.116,1.522-5.87,4.112-5.87,4.112l-6.934,3.088l-9.951-0.789l-6.596-15.587L92.305,67.296
			z"/>
		<path fill="#124D5C" d="M70.592,72.558c0,0-1.979-1.39-2.854-2.69c-1.197-1.771-1.393-4.489-2.14-5.859
			c-1.203-2.217-3.493-4.546-5.195-5.271c-3.145-1.34-6.761-1.362-7.354-0.707c-0.155,0.168,0.931,3.119,1.2,4.169
			c0.532,2.066,0.866,6.36,1.498,8.397c0.407,1.313,1.53,3.848,2.265,5.011c1.532,2.419,3.862,3.47,3.687,3.689
			c-0.398,0.505-1.619,0.623-2.545,0.386c-1.589-0.405-4.102-2.748-5.272-3.893c-1.417-1.39-3.873-4.623-5.571-5.644
			c-1.52-0.916-5.025-1.938-6.797-2.042c-0.94-0.058-2.845,0.097-3.755,0.348c-0.803,0.218-2.898,1.033-3.011,1.421
			c-0.125,0.439,1.726,2.213,2.303,2.95c1.414,1.801,3.586,5.862,4.877,7.756c1.157,1.699,3.472,5.193,5.097,6.45
			c1.293,1,3.64,2.046,5.989,2.622c2.477,0.603,5.125,0.26,6.787,0.636c0.453,0.099,0.882,0.075,0.879,0.556
			c-0.007,0.612-0.397,0.531-1.154,0.739c-2.458,0.679-7.604,0.854-10.128,1.226c-2.131,0.313-6.433,1.018-8.404,1.883
			c-1.418,0.623-3.987,2.448-5.087,3.539c-1.775,1.76-4.251,6.023-3.646,6.825c0.255,0.339,4.686-0.792,6.267-0.879
			c3.005-0.164,4.937,0.443,7.288,0.796c2.575,0.386,7.1,0.969,7.1,0.969l7.579-0.431l8.484-5.257l-1.271-16.877L70.592,72.558z"/>
		<path fill="#124D5C" d="M134.531,76.527c-2.036-0.032-6.034,1.101-7.943,1.821c-1.773,0.669-5,2.647-6.777,3.313
			c-1.6,0.605-4.943,1.5-6.65,1.613c-3.304,0.22-6.133-1.81-6.133-1.81l-1.319-5.566c0,0,5.598-4.511,7.098-6.362
			c1.744-2.145,2.741-5.326,3.238-7.629c0.303-1.401,0.85-4.219,1.271-5.587c0.748-2.445,5.439-7.653,5.439-7.653
			s-3.614,1.969-4.964,3.537c-0.591,0.684-1.624,2.186-1.99,3.011c-0.845,1.904-1.742,6.001-2.35,7.991
			c-0.796,2.61-2.401,4.362-3.554,5.534c-0.703,0.714-2.4,1.863-3.335,2.218c-1.022,0.386-2.777,0.936-4.334,0.602
			c-1.7-0.369-1.742-0.667-2.378-1.425c-0.792-0.945-0.297-3.625-0.193-4.833c0.083-0.983,0.218-2.974,0.067-3.95
			c-0.277-1.777-1.261-5.162-1.057-7.851c0.218-2.862,2.584-7.151,2.584-7.151s-2.895,2.189-3.833,4.97
			c-0.426,1.259-1.16,3.771-0.972,5.229c0.25,1.945,1.222,5.79,1.27,7.754c0.044,1.648-1.042,2.796-1.898,2.858
			c-1.247,0.092-2.822-0.43-3.743-0.66c-0.955-0.236-2.615-0.336-3.462-0.152c-1.578,0.34-4.217,2.433-5.753,2.928
			c-0.794,0.259-2.423,0.643-3.247,0.788c-1.59,0.278-4.898-0.389-6.457,0.03c-0.835,0.223-2.266,1.072-3.004,1.722
			c-0.717,0.625-1.876,1.81-3.029,2.3c-0.79,0.336-2.281-0.187-2.997-1.672c-0.854-1.769-1.75-5.632-2.42-7.476
			c-0.501-1.382-2.304-3.279-3.256-4.205c-2.11-2.04-5.687-2.661-5.687-2.661s4.069,2.729,5.574,5.174
			c1.413,2.296,2.087,5.756,2.656,7.464c0.312,0.936,1.344,2.645,1.869,3.48c0.643,1.025,2.309,3.183,2.039,4.385
			c-0.218,0.963-0.118,1.25-1.461,2.356c-1.232,1.009-3.041,1.324-4.129,1.449c-0.995,0.113-3.028-0.131-3.981-0.443
			c-1.562-0.516-3.79-1.339-5.692-3.293c-1.452-1.493-4.128-4.724-5.749-6.03c-0.704-0.564-2.312-1.427-3.146-1.765
			c-1.917-0.774-6.034-0.871-6.034-0.871s6.554,2.482,8.338,4.313c1,1.025,2.779,3.278,3.688,4.386
			c1.496,1.821,3.841,4.192,6.372,5.302c2.182,0.956,9.223,2.406,9.223,2.406l1.378,5.552c0,0-1.585,3.099-4.626,4.417
			c-1.567,0.681-4.95,1.414-6.647,1.611c-1.886,0.22-5.659-0.06-7.546,0.156c-2.026,0.232-6.097,1.058-7.894,2.018
			c-3.625,1.938-4.801,4.747-4.801,4.747s3.495-2.558,4.812-3.116c1.918-0.819,6.104-1.428,8.18-1.633
			c1.806-0.178,5.452,0.144,7.265,0c1.562-0.125,4.005-0.46,6.189-0.988c3.125-0.76,6.869-2.817,6.869-2.817s0.765,1.704,1.214,2.59
			c-0.026,0.018-0.053,0.031-0.075,0.049c-4.406,3.444-8.348,5.122-14.701,6.533c-1.333,0.295-2.219,2.409-2.367,3.352
			c-0.156,1.025,0.867,2.69,1.469,3.537c1.278,1.787,6.508,5.116,6.784,5.592c0,0-2.52,7.449-1.202,7.96
			c0.172,0.068,3.299-7.21,4.408-7.44c3.211-0.672,11.096,3.812,11.597,3.398c0.744-0.612-6.129-4.782-6.074-5.223
			c0.241-1.896,10.815-3.622,10.741-3.928c-0.186-0.766-4.337-0.952-5.805-0.889c-1.908,0.081-6.331,2.076-7.42,1.797
			c-0.979-0.247-4.721-4.642-4.442-4.727c3.746-1.15,10.11-5.636,10.11-5.636l0.011-0.021c1.47,1.475,3.541,2.883,5.419,3.413
			c1.943,0.55,5.988,1.154,8.004,1.084c3.113-0.115,9.337-1.315,12.193-2.563c2.041-0.892,5.917-3.214,7.547-4.733
			c1.792-1.674,3.317-4.054,4.216-6.162c1.285,0.171,7.877,0.976,11.347,0.354c0.287-0.052-1.029,5.568-1.785,6.237
			c-0.843,0.748-5.687,0.998-7.422,1.798c-1.331,0.616-4.939,2.684-4.753,3.448c0.075,0.308,10.265-3.001,11.348-1.426
			c0.252,0.366-3.947,7.22-3.009,7.424c0.636,0.14,5.592-7.457,8.757-8.33c1.09-0.303,7.199,4.736,7.323,4.596
			c0.938-1.056-4.715-6.525-4.715-6.525c0.032-0.548,3.156-5.904,3.472-8.078c0.148-1.027,0.296-2.978-0.314-3.816
			c-0.561-0.771-2.314-2.244-3.633-1.896c-6.244,1.642-10.498,1.96-15.925,0.947c-0.153-1.475-0.386-2.879-0.386-2.879
			s4.27,0.115,7.398-0.641c2.184-0.529,4.509-1.351,5.956-1.956c1.674-0.702,4.768-2.658,6.455-3.324
			c1.941-0.769,5.939-2.146,8.021-2.295c1.43-0.107,5.704,0.566,5.704,0.566S138.643,76.589,134.531,76.527z"/>
		<path fill="#FFFFFF" d="M79.737,92.533c0.354,1.463-0.545,2.938-2.009,3.293c-1.466,0.355-2.941-0.544-3.295-2.008
			c-0.356-1.467,0.544-2.941,2.01-3.297C77.905,90.166,79.381,91.067,79.737,92.533z"/>
		<circle fill="#FFFFFF" cx="95.677" cy="88.668" r="2.728"/>
		<g>
			<path fill="#FFFFFF" d="M85.009,104.493c0.646,0.123,1.231,0.334,1.896,0.377c0.958,0.059,1.935-0.152,2.868-0.35
				c1.588-0.34,3.222-0.769,4.142-2.191c0.37-0.567-0.526-1.113-0.895-0.547c-0.759,1.171-2.221,1.405-3.495,1.717
				c-0.726,0.176-1.465,0.293-2.21,0.322c-0.713,0.028-1.317-0.202-2.001-0.336C84.651,103.359,84.345,104.363,85.009,104.493
				L85.009,104.493z"/>
		</g>
	</g>
	<circle fill="none" stroke="#124D5C" stroke-width="6" cx="85.047" cy="84.519" r="69.036"/>
	<circle fill="#FFFFFF" cx="189.487" cy="87.934" r="65.34"/>
	<circle fill="none" stroke="#124D5C" stroke-width="6" cx="190.614" cy="87.933" r="69.038"/>
	<g>
		<path fill="#124D5C" d="M173.581,54.056c-0.287-1.24-0.542-5.564-0.622-7.075c-0.107-2.161,0.44-4.091,1.331-6.096
			c0.618-1.263,1.619-2.763,3.097-2.666c0.301,0.034,0.521,0.216,0.873,0.151c0.632-0.104,1.157-0.842,1.936-0.869
			c1.157-0.013,0.995,1.109,1.883,1.59c1.015,0.484,3.639-0.716,4.459,0.365c0.217,0.309-0.229,0.897-0.033,1.128
			c0.238,0.385,1.353,0.091,1.801,0.207c1.271,0.239,1.795,1.16,1.756,2.414c0.014,1.154-0.597,2.292-0.982,3.36
			c-0.548,1.489-0.971,2.983-1.569,4.445c-0.764,2.01-2.691,4.627-4,6.344c-0.965,1.2-0.927,0.309-2.404,0.212L173.581,54.056z"/>
		<path fill="#FFFFFF" d="M175.757,60.315c-1.664-3.395-3.297-9.936-0.684-13.853c0.772,0.417,1.724,1.429,2.646,1.262
			c0.725-0.11,0.331-2.155,1.699-1.916c1.044,0.229,0.515,2.441,1.755,2.61c0.784,0.09,1.5-1.855,2.61-1.755
			c-0.032,0.983-0.258,2.023,0.107,2.889c1.918-2.627,1.618,0.705,1.309,2.204c0.268-0.189,0.337-0.318,0.605-0.505
			c0.901,4.812-4.401,10.939-9.183,10.857L175.757,60.315z"/>
		<path fill="#124D5C" d="M159.722,67.913c0.282,0.546,0.606,1.049,0.995,1.431c1.38,1.353,3.854,2.183,5.315,0.432
			c0.774-0.934,0.95-2.674,1.007-3.833c0.066-1.263-0.06-2.528-0.191-3.782c-0.074-0.727-0.083-1.458-0.213-2.18
			c-0.058-0.322-0.149-1.678-0.396-1.877c-0.312-0.248-0.547,0.175-0.8,0.077c-0.22-0.087-0.163-0.373-0.357-0.518
			c-0.705-0.51-1.374,0.095-1.945,0.307c-0.636,0.234-0.916-0.555-1.609-0.318c-0.496,0.168-0.685,0.875-1.274,0.716
			c-0.425-0.116-0.989-0.915-1.562-0.27c-0.397,0.446,0.177,0.809-0.381,1.255c-0.442,0.352-1.15,0.552-1.427,1.135
			c-0.297,0.621,0.249,1.936,0.517,2.528c0.372,0.812,0.901,1.55,1.247,2.375C158.963,66.15,159.293,67.084,159.722,67.913z"/>
		<g>
			<path fill="#FFFFFF" d="M162.04,71.7c-0.928-0.803-1.641-1.887-2.017-3.054c-0.231-0.716-0.842-2.405,0.004-2.915
				c0.348-0.211,1.049,0.189,1.168-0.297c0.095-0.371-0.567-0.661-0.11-1.166c0.432-0.477,0.906-0.05,1.359,0.175
				c0.673,0.33,0.536,0.154,0.855-0.417c0.212-0.377,0.671-0.853,1.17-0.783c0.705,0.095,0.276,0.761,0.658,1.049
				c0.303,0.229,0.877-0.254,1.044-0.504c0.848,0.592,0.771,2.058,0.915,2.978c0.231,1.45,0.215,3.198-0.697,4.421
				C165.454,72.44,163.229,72.731,162.04,71.7z"/>
		</g>
		<path fill="#FFFFFF" d="M177.774,39.596c-0.712-0.218-1.577,0.148-1.537,1.002c0.267,1.976,4.226,1.115,5.388,1.741
			c1.476,0.962,1.168,2.461,3.331,2.461c1.706-0.078,2.739-1.684,3.683-2.507c-1.171-0.299-2.541-0.537-3.702-1.165
			c0.121-1.764-2.529-0.863-3.768-1.032c-0.915-0.159-1.41-1.092-2.73-0.805L177.774,39.596z"/>
		<path fill="#FFFFFF" d="M163.331,58.312c-0.497,0.686-1.162,1.09-1.985,1.091c-0.451,0.01-2.57-0.307-1.75,0.771
			c-0.536,0.283-2.074,0.662-1.221,1.438c0.729,0.65,2.542-0.471,3.323-0.623c1.034-0.268,1.997-0.64,2.747-1.441
			c0.622-0.682,0.44-1.289-0.615-1.222L163.331,58.312z"/>
		<path fill="#124D5C" d="M175.127,83.266c0.116-0.061,0.23-0.12,0.346-0.178c1.974,0.21,4.028,0.278,6.078,0.16
			c-3.881,4.377-2.27,7.973,0.034,10.57c4.798-2.828,3.37-7.409,0.736-10.614c0.521-0.044,1.04-0.101,1.558-0.17
			c3.248,2.483,7.335,1.169,9.005-2.968c-3.064-2.112-7.55-1.069-9.259,2.11c-2.228,0.292-4.516,0.328-6.719,0.169
			c2.844-1.486,5.528-3.04,7.85-5.418c2.05-2.101,3.569-4.561,4.698-7.204c4.329-2.502,6.413-7.354,9.059-11.365
			c0.009-0.016,0.009-0.03,0.016-0.044c0.207,0.045,0.443,0.058,0.724,0.026c1.599-0.196,3.207-2.032,4.097-3.23
			c0.845-1.136,1.548-2.37,1.331-3.83c-0.664-4.484-5.916,1.517-6.636,3.105c-0.428,0.947-0.841,2.64-0.228,3.476
			c-0.027,0.026-0.055,0.044-0.078,0.077c-2.341,3.553-4.216,7.811-7.723,10.364c1.311-3.573,1.973-7.422,2.269-11.173
			c0.004-0.049-0.005-0.09-0.017-0.132c1.877-0.515,4.161-4.991,3.781-7.74c-0.075-0.563-0.264-1.051-0.59-1.416
			c-1.164-1.302-2.671-0.681-3.458,0.69c-1.07,1.864-2.492,6.037-1.069,7.964c0.168,0.227,0.356,0.357,0.552,0.446
			c-0.04,0.062-0.068,0.131-0.077,0.217c-0.562,7.122-2.492,14.25-7.596,19.481c-2.432,2.494-5.402,3.977-8.433,5.516
			c0.597-2.715,1.146-5.443,1.472-8.156c0.411-3.426,0.416-6.907,0.704-10.352c2.119-1.562,4.269-3.119,5.839-5.295
			c1.091-1.409,3.58-4.477,3.441-6.383c-1.747,0.309-4.01,3.581-5.002,4.959c0.416-0.774,2.059-6.131,0.519-6.211
			c-0.947-0.094-2.34,5.729-2.626,6.572c0.307-1.498-0.12-3.64-0.464-5.16c-0.323-1.256-0.64-2.674-1.636-1.131
			c-0.964,1.478-1.12,4.389-1.078,6.159c-0.042-1.529-0.484-3.02-1.104-4.412c-0.304-0.68-0.653-1.337-1.034-1.979
			c-0.169-0.288-0.5-1.257-0.901-1.281c-0.162-0.01-0.267,0.066-0.337,0.194c-0.254,0.469,0.009,1.651,0.065,1.996
			c0.311,1.999,0.442,4.134,0.899,6.097c0.339,1.908,1.44,3.667,2.582,5.322c-0.313,3.37-0.337,6.784-0.662,10.142
			c-0.309,3.18-1.03,6.348-1.747,9.502c-0.083,0.097-0.102,0.213-0.073,0.326c-0.322,1.416-0.642,2.829-0.919,4.238
			c-0.653,3.332-1.588,6.616-2.751,9.821c0.53-3.505,0.561-7.033-0.158-10.594c-0.946-4.698-3.176-9.067-5.424-13.272
			c1.728-1.22,3.838-6.637,1.979-7.526c-0.543,1.36-0.588,2.861-0.907,4.278c-0.145-1.03-0.022-3.379-0.748-4.154
			c-0.851-0.904-0.805,0.903-0.847,1.452c-0.08,0.972,0.062,2.002-0.018,2.977c-0.518-1.043-0.689-4.377-1.984-4.692
			c-0.656,1.223-0.404,3.344,0.314,4.674c-0.829-1.151-2.125-2.363-3.325-2.738c0.474,1.708,2.529,5.001,4.463,5.586
			c1.903,3.554,3.737,7.161,4.939,11.006c-3.08-0.939-5.882-2.583-8.145-4.882c-0.07-0.373-0.341-0.775-0.492-1.038
			c-0.538-0.912-1.207-1.829-1.956-2.58c-1.115-1.115-2.67-1.785-3.224,0.197c-0.548,1.964,2.357,4.3,4.117,4.352
			c0.277,0.01,0.736-0.017,1.089-0.155c2.463,2.457,5.549,4.182,8.903,5.111c0.108,0.38,0.218,0.761,0.31,1.146
			c0.892,3.712,0.811,7.494,0.183,11.208c-1.425-1.09-2.88-2.143-4.342-3.184c-0.437-1.371-1.036-3.146-1.787-4.129
			c-1.813-2.409-4.798-2.472-7.546-2.503c0.669,2.345,0.641,4.423,2.636,6.215c1.693,1.49,4.749,2.089,6.843,1.593
			c1.356,0.967,2.702,1.948,4.017,2.97c-0.209,1.08-0.454,2.152-0.741,3.213c-0.009,0.027-0.002,0.05-0.006,0.076
			c-2.931,6.597-6.854,12.777-11.487,18.23c-0.368,0.433,0.266,1.039,0.634,0.607c7.809-9.185,13.6-20.336,16.131-32.163
			C174.348,86.706,174.741,84.987,175.127,83.266z"/>
	</g>
	<g>
		<path fill="#124D5C" d="M159.216,120.406c-0.548,0.268-0.077,1.09,0.468,0.821c0.394-0.193,0.81-0.353,1.221-0.528
			c-0.534,0.298-1.074,0.588-1.603,0.9c-0.525,0.313-0.029,1.117,0.491,0.809c2.135-1.269,4.331-2.401,6.562-3.451
			c2.712-0.602,5.522-0.915,8.256-1.07c-0.242,0.284-0.004,0.853,0.478,0.764c1.291-0.242,2.56-0.558,3.827-0.882
			c5.883,0.004,11.45,0.933,16.938,3.086c5.051,1.985,9.61,2.242,14.939,1.218c5.978-1.147,11.652-3.493,17.573-4.894
			c0.117,0.03,0.194,0.07,0.323,0.087c-0.739,0.786-0.994,1.396-0.299,2.007c0.691,0.144,1.208-0.159,1.61-0.474
			c-0.095,2.096,1.499,2.144,2.062,0.388c1.147,0.79,2.515,0.053,2.17-1.369c1.975-0.72,1.524-2.579-0.123-2.833
			c0.838-1.327-0.471-3.014-1.804-1.494c-0.197-1.478-2.074-1.437-2.074,0.457c-0.667-1.821-2.583-0.948-1.615,0.767
			c-1.109-0.078-1.929,1.004-1.412,1.798c-5.337,1.337-10.504,3.263-15.877,4.48c-3.29,0.744-6.794,1.182-10.149,0.572
			c-2.621-0.473-5.095-1.653-7.571-2.589c-3.527-1.333-7.366-1.904-11.206-2.095c0.888-0.217,1.777-0.42,2.677-0.592
			c3.884-0.734,7.808-1.301,11.735-1.711c6.428-0.669,12.874-0.577,19.309-0.281c0.112,0.095,0.207,0.194,0.347,0.287
			c-0.63,1.295,0.538,2.294,1.818,1.771c0.178,1.823,1.735,2.111,2.085,0.057c0.321,0.391,0.761,0.793,1.459,0.796
			c0.797-0.443,0.684-1.086,0.133-2.004c2.712,0.198,2.165-2.233,0.603-2.464c1.3-1.455-0.38-2.704-1.41-1.077
			c0.402-1.831-1.41-2.267-1.912-0.877c-0.976-1.751-2.593-0.392-2.065,1.069c-1.081-0.062-1.792,0.657-1.658,1.475
			c-6.252-0.268-12.486-0.305-18.728,0.302c-3.735,0.364-7.45,0.957-11.149,1.602c-0.49,0.085-0.974,0.2-1.461,0.304
			c5.583-2.527,11.233-4.813,17.24-6.264c4.642-1.122,9.229-1.613,13.963-0.979c2.594,0.351,5.21,0.861,7.831,0.96
			c0.125,0.552,0.647,1.013,1.417,1.057c-0.62,1.718,0.658,2.651,1.855,0.94c0.125,0.496,0.349,1.052,0.974,1.351
			c0.919-0.059,1.086-0.683,0.983-1.757c2.364,1.352,2.918-1.083,1.604-1.959c1.801-0.753,0.827-2.601-0.8-1.58
			c1.148-1.477-0.302-2.647-1.352-1.607c-0.128-2.009-2.173-1.473-2.32,0.075c-1.447-0.799-2.927,0.391-1.816,2.15
			c-0.168,0.137-0.286,0.281-0.382,0.433c-2.516-0.055-5.051-0.532-7.556-0.916c4.082-1.942,8.542-3.381,12.344-5.82
			c0.231-0.041,0.448-0.118,0.639-0.211c-0.513,1.854,0.904,2.221,1.762,0.771c0.857,0.936,2.231,0.563,2.214-0.77
			c1.904-0.241,1.885-1.993,0.475-2.558c1.012-1.012,0.198-2.784-1.311-1.7c0.132-1.356-1.555-1.707-1.938-0.014
			c-0.22-1.768-2.109-1.379-1.599,0.344c-1.392-0.422-2.802,1.395-0.453,2.294c-0.689,0.463-1.012,0.885-0.823,1.41
			c-1.911,1.17-3.985,2.098-6.085,2.975c0.083-0.267,0.026-0.608-0.321-0.99c1.142-0.021,1.268-1.45-0.168-1.608
			c1.441-0.351,0.942-1.878-0.435-1.292c0.213-1.194-1.428-2.194-1.952-0.159c-0.531-0.639-0.976-0.884-1.495-0.404
			c-0.171,0.51,0.014,0.933,0.222,1.262c-1.583-0.253-1.757,0.953-0.477,1.529c-0.693,0.808-0.255,1.908,0.857,1.766
			c0.163,0.673,0.526,1.005,0.915,1.085c-1.383,0.579-2.748,1.179-4.057,1.853c-0.269-0.032-0.54-0.072-0.81-0.101
			c-4.306-0.46-8.767,0.436-12.935,1.444c-7.294,1.762-14.088,4.919-20.847,8.093c-0.229,0.059-0.455,0.117-0.685,0.173
			c-1.059,0.006-2.113,0.021-3.148,0.062c-1.886,0.069-3.853,0.229-5.817,0.503c4.709-2.006,9.555-3.715,14.386-5.418
			c3.427-1.211,6.785-2.641,10.146-4.069c0.173,0.11,0.399,0.128,0.585-0.055c0.119-0.117,0.242-0.228,0.359-0.344
			c3.767-1.597,7.552-3.143,11.44-4.337c0.136,0.933,1.186,1.282,2.109,0.635c0.297,1.401,2.219,1.679,2.137-0.176
			c1.068,0.851,2.276-0.367,1.072-1.611c1.595,0.769,2.3-1.023,0.573-1.53c1.115-0.938,0.357-3.113-1.668-1.63
			c-0.018-0.992-0.242-1.556-1.08-1.514c-0.549,0.341-0.696,0.873-0.754,1.338c-1.278-1.443-2.358-0.46-1.608,1.054
			c-1.253,0.217-1.689,1.562-0.556,2.278c-0.017,0.035-0.02,0.065-0.035,0.103c-3.456,1.045-6.77,2.458-10.071,3.906
			c4.543-4.339,9.371-8.379,14.103-12.509c0.067,0.157,0.187,0.312,0.373,0.461c0.69,0.134,1.198-0.187,1.588-0.518
			c-0.028,2.099,1.569,2.097,2.077,0.327c1.169,0.75,2.516-0.024,2.127-1.433c1.946-0.785,1.438-2.627-0.211-2.837
			c0.792-1.348-0.561-2.99-1.854-1.43c-0.242-1.475-2.12-1.373-2.052,0.519c-0.726-1.803-2.611-0.868-1.591,0.813
			c-1.543-0.057-2.487,2.096-0.065,2.502c-5.699,5.024-11.623,9.82-17.001,15.185c-3.689,1.569-7.456,2.921-11.241,4.259
			c0,0,0,0-0.002-0.002c2.28-3.361,4.254-6.919,6.818-10.104c1.735-2.161,3.731-4.195,5.833-6.109
			c0.119-0.021,0.225-0.088,0.292-0.242c0.002-0.007,0.01-0.019,0.014-0.025c1.596-1.435,3.233-2.806,4.898-4.068
			c7.327-5.548,15.328-8.464,24.169-9.661c-0.009,0.666,0.557,1.271,1.45,1.323c-0.623,1.721,0.661,2.647,1.858,0.951
			c0.125,0.483,0.345,1.038,0.974,1.338c0.914-0.054,1.085-0.682,0.979-1.752c2.369,1.348,2.919-1.081,1.608-1.962
			c1.799-0.75,0.827-2.601-0.805-1.575c1.15-1.486-0.298-2.657-1.35-1.614c-0.023-0.409-0.144-0.688-0.298-0.897
			c0.119-0.152,0.223-0.319,0.285-0.539c0.926,0.749,2.324-0.102,1.279-1.247c1.137-0.02,1.271-1.448-0.163-1.609
			c1.436-0.351,0.94-1.88-0.446-1.288c0.224-1.201-1.419-2.193-1.941-0.164c-0.536-0.635-0.976-0.876-1.496-0.4
			c-0.17,0.508,0.013,0.932,0.223,1.258c-1.586-0.252-1.757,0.958-0.475,1.532c-0.18,0.21-0.283,0.443-0.319,0.664
			c-2.441,1.795-4.832,3.698-7.002,5.807c-0.061,0.056-0.093,0.116-0.116,0.18c-0.81,0.171-1.618,0.356-2.419,0.567
			c0.729-2.072,1.533-4.113,2.44-6.114c0.015-0.005,0.029-0.01,0.042-0.018c-0.515,1.854,0.897,2.228,1.757,0.772
			c0.868,0.936,2.234,0.566,2.217-0.77c1.909-0.246,1.887-1.99,0.471-2.561c1.017-1.004,0.2-2.775-1.299-1.699
			c0.126-1.352-1.559-1.703-1.944-0.018c-0.225-1.757-2.108-1.373-1.596,0.347c-1.395-0.417-2.804,1.399-0.456,2.3
			c-0.83,0.551-1.179,1.039-0.676,1.724c0.129,0.061,0.252,0.091,0.377,0.112c-0.904,2.047-1.727,4.124-2.458,6.239
			c-0.577,0.168-1.158,0.309-1.735,0.494c-2.184,0.714-4.288,1.672-6.319,2.78c0.025-0.394-0.131-0.855-0.588-1.36
			c1.867-0.035,2.079-2.378-0.274-2.642c2.361-0.575,1.543-3.083-0.725-2.119c0.355-1.964-2.333-3.604-3.188-0.264
			c-0.881-1.039-1.599-1.442-2.456-0.658c-0.285,0.833,0.02,1.521,0.363,2.064c-2.602-0.406-2.888,1.571-0.779,2.519
			c-1.003,1.16-0.571,2.693,0.788,2.889c-2.232,2.61-4.263,5.414-5.642,8.58c-1.933,1.797-3.774,3.705-5.512,5.654
			c-3.22,3.608-5.375,7.992-8.154,11.914c-5.312,1.883-10.608,3.82-15.703,6.216C163.612,118.635,161.308,119.377,159.216,120.406z
			 M219.443,104.415c0.147,0.115,0.302,0.184,0.463,0.228c-0.249,0.102-0.494,0.204-0.739,0.306
			C219.281,104.801,219.382,104.632,219.443,104.415z M226.929,76.068c0.201,0.148,0.47,0.23,0.811,0.185
			c0.071,0.291,0.185,0.504,0.317,0.675c-0.239,0.241-0.418,0.572-0.458,0.99c-1.445-0.794-2.925,0.389-1.817,2.155
			c-0.011,0.004-0.016,0.019-0.028,0.029c-1.529,0.178-3.046,0.395-4.557,0.674C223.012,79.095,224.938,77.535,226.929,76.068z
			 M201.798,86.24c0.805,1.961,2.85,1.595,3.357-0.263c0.263,0.213,0.542,0.319,0.827,0.386c-1.642,0.984-3.236,2.046-4.779,3.14
			c-1.379,0.979-2.695,2.053-3.984,3.161C198.482,90.357,200.073,88.242,201.798,86.24z"/>
	</g>
</g>
</svg>
