<?xml version="1.0" encoding="utf-8"?>
<!-- Generator: Adobe Illustrator 14.0.0, SVG Export Plug-In . SVG Version: 6.00 Build 43363)  -->
<!DOCTYPE svg PUBLIC "-//W3C//DTD SVG 1.1//EN" "http://www.w3.org/Graphics/SVG/1.1/DTD/svg11.dtd">
<svg version="1.1" id="Layer_1" xmlns="http://www.w3.org/2000/svg" xmlns:xlink="http://www.w3.org/1999/xlink" x="0px" y="0px"
	 width="276.404px" height="167.416px" viewBox="0 0 276.404 167.416" enable-background="new 0 0 276.404 167.416"
	 xml:space="preserve">
<g>
	<path fill="#124D5C" d="M135.103,76.125l-5.976-0.078c-0.172-0.001-0.338,0.021-0.503,0.045c-0.713-3.823-2.152-7.383-4.166-10.554
		c0.13-0.095,0.259-0.188,0.376-0.304l4.236-4.214c1.256-1.25,1.263-3.279,0.012-4.536l-3.258-3.276
		c-1.25-1.256-3.28-1.261-4.536-0.012l-4.237,4.214c-0.025,0.025-0.044,0.056-0.068,0.084c-3.404-2.536-7.345-4.386-11.638-5.301
		c0.037-0.196,0.061-0.396,0.061-0.602v-5.976c0-1.771-1.436-3.208-3.207-3.208h-4.621c-1.771,0-3.206,1.437-3.206,3.208v5.976
		c0,0.113,0.021,0.221,0.032,0.333c-4.818,0.755-9.254,2.65-13.03,5.413l-4.164-4.142c-1.256-1.249-3.287-1.244-4.535,0.012
		l-3.26,3.276c-1.249,1.257-1.244,3.286,0.012,4.536l4.236,4.214c0.043,0.043,0.095,0.073,0.141,0.115
		c-2.071,3.208-3.547,6.825-4.273,10.712c-0.056-0.002-0.106-0.016-0.162-0.014l-5.974,0.078c-1.771,0.022-3.188,1.478-3.166,3.249
		l0.061,4.621c0.023,1.771,1.477,3.188,3.249,3.165l5.975-0.077c0.002,0,0.004,0,0.006,0c0.744,4.02,2.279,7.762,4.455,11.054
		c-0.105,0.08-0.213,0.154-0.311,0.251l-4.236,4.214c-1.256,1.248-1.261,3.279-0.012,4.535l3.26,3.276
		c1.248,1.255,3.279,1.261,4.535,0.012l4.236-4.214c0.055-0.055,0.096-0.119,0.146-0.178c3.72,2.67,8.066,4.499,12.779,5.244v5.945
		c0,1.773,1.435,3.209,3.206,3.209h4.621c1.771,0,3.207-1.436,3.207-3.209v-5.975c0-0.082-0.018-0.161-0.024-0.244
		c4.19-0.898,8.043-2.687,11.391-5.133c0.088,0.115,0.174,0.234,0.279,0.34l4.237,4.214c1.256,1.249,3.286,1.243,4.536-0.012
		l3.258-3.276c1.251-1.256,1.244-3.287-0.012-4.535l-4.236-4.214c-0.17-0.169-0.356-0.312-0.55-0.434
		c2.122-3.259,3.622-6.948,4.351-10.912c0.116,0.015,0.229,0.039,0.35,0.041l5.976,0.077c1.771,0.022,3.225-1.395,3.249-3.165
		l0.059-4.621C138.292,77.603,136.875,76.146,135.103,76.125z M99.074,102.319c-11.424,0-20.716-9.294-20.716-20.717
		c0-11.421,9.292-20.714,20.716-20.714c11.423,0,20.716,9.293,20.716,20.714C119.79,93.025,110.497,102.319,99.074,102.319z"/>
	<path fill="#124D5C" d="M215.805,144.503L174.4,105.288l-1.696,1.788l-12.387-11.737c16.199-20.832,14.245-50.956-5.307-69.483
		C134.205,6.14,101.356,7.024,81.641,27.83c-1.287,1.357-2.48,2.769-3.593,4.222l5.761,4.635c0.985-1.301,2.045-2.563,3.194-3.778
		c16.908-17.844,45.083-18.601,62.926-1.692c17.844,16.91,18.603,45.084,1.692,62.928c-2.557,2.698-5.374,4.998-8.37,6.912
		l3.982,6.222c2.098-1.341,4.106-2.863,6.033-4.53l12.402,11.752l-1.717,1.812l41.406,39.216c3.044,2.885,7.851,2.756,10.736-0.288
		C218.979,152.194,218.851,147.389,215.805,144.503z"/>
</g>
</svg>
