<?xml version="1.0" encoding="utf-8"?>
<!-- Generator: Adobe Illustrator 14.0.0, SVG Export Plug-In . SVG Version: 6.00 Build 43363)  -->
<!DOCTYPE svg PUBLIC "-//W3C//DTD SVG 1.1//EN" "http://www.w3.org/Graphics/SVG/1.1/DTD/svg11.dtd">
<svg version="1.1" id="Layer_1" xmlns="http://www.w3.org/2000/svg" xmlns:xlink="http://www.w3.org/1999/xlink" x="0px" y="0px"
	 width="276.404px" height="167.416px" viewBox="0 0 276.404 167.416" enable-background="new 0 0 276.404 167.416"
	 xml:space="preserve">
<g>
	<path fill="#124D5C" d="M244.392,123.07l-8.08-1.068c-0.218-0.031-0.429-0.088-0.633-0.174l-11.678-5.021
		c-0.491-0.211-0.362-0.938,0.17-0.968l8.883-0.488c0.547-0.03,1.069-0.237,1.485-0.589l10.444-8.849l5.23-9.309
		c0.078-0.142,0.119-0.299,0.119-0.461V89.48c0-1.112-0.844-2.043-1.952-2.149l0,0c-1.165-0.113-2.208,0.722-2.352,1.883
		l-0.75,5.991c-0.022,0.177-0.095,0.345-0.21,0.482l-5.04,6.052l-7.19,5.42c-0.494,0.373-1.109,0.55-1.727,0.496l-5.863-0.505
		c-0.422-0.036-0.745-0.388-0.745-0.812l0,0c0-0.335,0.206-0.636,0.519-0.76l4.221-1.645c0.402-0.158,0.757-0.406,1.044-0.729
		c1.571-1.777,6.87-7.788,6.87-8.12c0-0.329,0.736-4.702,0.972-6.099c0.05-0.284,0.059-0.571,0.031-0.859l-0.968-10.221
		c-0.093-0.976-0.928-1.708-1.908-1.674l0,0c-0.993,0.039-1.778,0.852-1.778,1.848v7.705c0,0.643-0.159,1.288-0.536,1.803
		c-0.649,0.893-1.027,2.72-1.191,3.704c-0.073,0.437-0.282,0.839-0.603,1.145l-6.181,5.958c-0.315,0.303-0.734,0.474-1.171,0.474
		h-4.492c-0.699,0-1.085-0.811-0.646-1.354l6.771-8.359c0.313-0.386,0.5-0.858,0.533-1.353l0.246-3.714
		c0.06-0.892,0.481-1.722,1.168-2.292l0,0c0.308-0.257,0.466-0.646,0.427-1.045l-0.399-4.007c-0.035-0.344-0.219-0.646-0.491-0.851
		c-1.57-1.184-3.741-4.549-3.741-4.549c-7.307-18.786-22.241-13.437-22.241-13.437c-3.981,0.781-0.849,2.087-0.849,2.087
		l6.392,4.172l-5.543-1.956c-3.718-1.437-1.239,3.394-1.239,3.394c8.089,14.812,16.178,14.056,19.021,13.204
		c0.531-0.162,1.067,0.25,1.067,0.808v1.967c0,0.299-0.07,0.593-0.22,0.85c-2.711,4.662-9.316,10.233-10.239,10.997
		c-0.07,0.061-0.159,0.089-0.251,0.089h-1.559c-0.323,0-0.509-0.367-0.318-0.629l0.362-0.499c0.456-0.627,0.509-1.457,0.139-2.136
		l0,0c-0.35-0.641-1.024-1.042-1.756-1.042h-2.28c-0.289,0-0.566,0.099-0.793,0.278l-0.482,0.386
		c-0.301,0.239-0.475,0.604-0.475,0.989v0.075c0,0.235-0.19,0.426-0.425,0.426h-5.184h-1.437h-5.381
		c-0.126,0-0.229-0.103-0.229-0.228l0,0c0-0.558-0.253-1.086-0.688-1.433l-0.065-0.054c-0.356-0.282-0.801-0.44-1.257-0.44h-2.021
		c-0.732,0-1.404,0.401-1.756,1.042l0,0c-0.37,0.679-0.315,1.509,0.138,2.136l0.486,0.665c0.14,0.192,0.003,0.463-0.235,0.463
		h-1.803c-0.067,0-0.131-0.021-0.185-0.064c-0.779-0.646-7.132-5.976-10.011-10.6c-0.308-0.495-0.476-1.06-0.476-1.643v-1.204
		c0-0.737,0.688-1.293,1.401-1.109c3.104,0.797,10.896,0.972,18.688-13.295c0,0,2.478-4.83-1.239-3.394l-5.544,1.956l6.392-4.172
		c0,0,3.131-1.307-0.848-2.087c0,0-14.936-5.349-22.24,13.437c0,0-2.139,3.311-3.705,4.52c-0.296,0.23-0.496,0.553-0.531,0.925
		l-0.392,3.911c-0.044,0.429,0.131,0.854,0.461,1.128l0,0c0.662,0.552,1.067,1.348,1.125,2.207l0.256,3.832
		c0.03,0.452,0.199,0.884,0.483,1.234l7.149,8.826c0.306,0.377,0.039,0.94-0.448,0.94h-4.235c-0.942,0-1.847-0.365-2.525-1.022
		l-5.296-5.1c-0.506-0.487-0.855-1.117-0.983-1.807c-0.184-1.004-0.539-2.501-1.099-3.307c-0.388-0.555-0.565-1.227-0.565-1.902
		v-7.651c0-0.996-0.786-1.809-1.78-1.848l0,0c-0.978-0.034-1.815,0.698-1.907,1.674l-0.965,10.196
		c-0.03,0.306-0.02,0.609,0.032,0.91c0.24,1.422,0.966,5.745,0.966,6.073c0,0.321,4.99,5.993,6.723,7.949
		c0.384,0.436,0.862,0.768,1.403,0.979l4.01,1.564c0.313,0.124,0.519,0.425,0.519,0.76l0,0c0,0.424-0.322,0.775-0.745,0.812
		l-6.47,0.558c-0.227,0.02-0.451-0.046-0.633-0.182l-7.5-5.655c-0.117-0.088-0.223-0.19-0.317-0.304l-4.717-5.658
		c-0.234-0.282-0.384-0.628-0.428-0.99l-0.715-5.705c-0.145-1.161-1.188-1.996-2.354-1.883l0,0c-1.105,0.106-1.95,1.037-1.95,2.149
		v6.408c0,0.329,0.083,0.651,0.244,0.938l4.935,8.785c0.111,0.199,0.257,0.376,0.432,0.523l10.589,8.97
		c0.153,0.13,0.344,0.205,0.545,0.215l9.366,0.517c0.543,0.029,0.677,0.774,0.176,0.989l-11.688,5.024
		c-0.166,0.072-0.342,0.119-0.52,0.143l-8.037,1.064c-0.372,0.048-0.73,0.17-1.057,0.358l-6.182,3.573
		c-0.955,0.552-1.344,1.731-0.904,2.743l0,0c0.499,1.158,1.876,1.646,2.993,1.064l1.194-0.62l7.658-2.008
		c0.198-0.054,0.403-0.084,0.607-0.093l5.698-0.237c0.169-0.009,0.337-0.037,0.498-0.085l19.391-5.967
		c0.438-0.135,0.914-0.008,1.226,0.327l0,0c0.571,0.615,0.345,1.614-0.435,1.922l-13.744,5.452c-0.277,0.11-0.529,0.272-0.74,0.481
		l-5.83,5.726c-0.64,0.625-0.92,1.532-0.749,2.408l0.604,3.074c0.228,1.169,1.409,1.893,2.557,1.565l0,0
		c0.895-0.257,1.503-1.088,1.475-2.018l-0.047-1.626c-0.024-0.778,0.297-1.528,0.875-2.05l3.95-3.565
		c0.318-0.286,0.711-0.476,1.133-0.545l12.523-2.067c0.178-0.03,0.35-0.082,0.512-0.153l8.476-3.766
		c0.441-0.198,0.921-0.304,1.407-0.314l5.592-0.102l5.589,0.102c0.486,0.011,0.966,0.116,1.411,0.314l8.304,3.689
		c0.275,0.125,0.564,0.211,0.864,0.26l12.402,2.047c0.383,0.063,0.737,0.234,1.022,0.492l4.531,4.09
		c0.241,0.218,0.374,0.529,0.364,0.853l-0.069,2.342c-0.028,0.93,0.58,1.761,1.476,2.018l0,0c1.146,0.327,2.327-0.396,2.558-1.565
		l0.764-3.895c0.071-0.365-0.047-0.741-0.31-1.002l-6.461-6.341c-0.192-0.19-0.42-0.338-0.669-0.437l-13.785-5.468
		c-0.779-0.308-1.006-1.307-0.433-1.922l0,0c0.31-0.335,0.786-0.462,1.224-0.327l19.339,5.95c0.197,0.061,0.399,0.093,0.604,0.103
		l5.7,0.238c0.168,0.007,0.337,0.032,0.499,0.074l7.712,2.024l1.193,0.62c1.117,0.581,2.494,0.094,2.995-1.064l0,0
		c0.439-1.012,0.049-2.191-0.907-2.743l-6.269-3.624C244.99,123.213,244.696,123.111,244.392,123.07z"/>
	<path fill="#124D5C" d="M162.513,30.666c-9.36-8.585-34.785,0.12-37.911,1.238c-0.22,0.08-0.441,0.128-0.674,0.152l-22.305,2.367
		c-0.865,0.091-1.684,0.428-2.364,0.97l-11.452,9.131c-0.729,0.58-1.627,0.907-2.558,0.928l-3.698,0.084
		c-0.76,0.019-1.444,0.454-1.778,1.136l-5.131,10.413c-0.214,0.437-0.267,0.936-0.146,1.408l2.511,9.747
		c0.164,0.636,0.055,1.318-0.332,1.849c-5.037,6.896-14.274,12.28-17.691,14.119c-0.804,0.433-1.773,0.397-2.547-0.087l-0.623-0.39
		c-0.366-0.229-0.798-0.337-1.231-0.303l-20.597,1.607c-3.834,0.414-5.988,1.886-7.159,3.155c-1.177,1.274-1.389,3.177-0.436,4.626
		c1.904,2.903,6.318,3.514,6.318,3.514c14.383,6.008,12.837,22.051,12.837,22.051c-1.165,3.966,0.356,6.261,1.518,7.358
		c0.603,0.571,1.407,0.901,2.238,0.889c3.608-0.048,4.954-3.04,4.954-3.04l11.318-18.197c0.167-0.271,0.26-0.581,0.289-0.898
		c0.902-9.426,13.845-11.924,13.845-11.924c19.299-4.722,32.507-10.476,35.889-12.024c0.435-0.199,0.933,0.043,1.082,0.498
		c1.132,3.484,4.135,2.293,4.135,2.293c3.651-1.135,3.302-5.714,3.102-7.121c-0.035-0.252,0.089-0.496,0.314-0.616l4.549-2.438
		c0.384-0.205,0.854,0.049,0.889,0.484l0.378,4.554c0.071,0.858,0.799,1.78,1.635,1.987c6.688,1.627,9.253-4.926,9.979-7.425
		c0.154-0.537,0.114-1.114-0.146-1.609c-1.323-2.536-1.953-5.688-1.953-5.688c20.021-17.345,23.734-27.143,24.279-31.167
		C164.021,32.943,163.519,31.586,162.513,30.666z M56.996,102.26c-1.309,3.302-4.366,6.871-4.366,6.871
		C54.372,104.53,56.996,102.26,56.996,102.26z M32.787,89.253c9.104-3.092,16.421-0.361,16.421-0.361
		C42.527,88.08,32.787,89.253,32.787,89.253z M41.725,93.751c0,0,4.495-1.368,8.044-1.247
		C49.769,92.504,46.638,93.999,41.725,93.751z M44.622,98.348c0,0,2.198-1.015,4.597-0.715
		C49.219,97.633,47.655,98.38,44.622,98.348z M49.582,104.636c1.183-2.791,2.494-3.926,2.494-3.926
		C51.39,103.027,49.582,104.636,49.582,104.636z M53.171,119.122c0,0,4.979-8.452,6.911-14.902
		C60.082,104.22,59.652,112.02,53.171,119.122z M78.501,56.606c0,0,2.076,4.722,2.471,6.176
		C80.972,62.782,79.161,60.875,78.501,56.606z M81.094,52.926c0,0,2.077,4.72,2.471,6.172
		C83.564,59.099,81.755,57.194,81.094,52.926z M83.197,47.461c0,0,2.079,4.723,2.47,6.175C85.667,53.636,83.86,51.729,83.197,47.461
		z M91.766,47.824c0,0-0.975-0.859-1.165-3.182C90.601,44.642,91.838,46.131,91.766,47.824z M94.863,45.662
		c0,0-0.973-0.858-1.167-3.183C93.696,42.479,94.937,43.968,94.863,45.662z M98.087,43.48c0,0-0.975-0.858-1.166-3.182
		C96.921,40.298,98.159,41.787,98.087,43.48z M101.027,41.342c0,0-0.975-0.857-1.166-3.183
		C99.861,38.16,101.1,39.651,101.027,41.342z M133.006,77.405c0,0-0.771-1.393-0.624-4.024
		C132.382,73.381,133.267,74.547,133.006,77.405z M135.577,75.636c0,0-1.062-1.705-0.723-3.625
		C134.854,72.01,135.892,74.41,135.577,75.636z M137.931,74.456c0,0-1.168-1.755-0.792-5.091
		C137.139,69.365,138.159,72.483,137.931,74.456z M134.646,47.631c-0.102-0.94-0.526-1.808-1.221-2.448
		c-1.567-1.442-3.952-4.541-1.165-8.35c0.342-0.467-1.412,5.817,3.313,8.379c0.336,0.183,0.523,0.554,0.512,0.937
		c-0.053,1.709,0.133,6.271,3.348,8.738C139.433,54.888,135.438,54.771,134.646,47.631z M150.515,36.356
		c-1.181,0.183-2.284-0.625-2.467-1.802c-0.184-1.179,0.624-2.283,1.801-2.466c1.182-0.183,2.285,0.624,2.467,1.803
		C152.499,35.069,151.693,36.174,150.515,36.356z"/>
</g>
</svg>
