<?xml version="1.0" encoding="utf-8"?>
<!-- Generator: Adobe Illustrator 14.0.0, SVG Export Plug-In . SVG Version: 6.00 Build 43363)  -->
<!DOCTYPE svg PUBLIC "-//W3C//DTD SVG 1.1//EN" "http://www.w3.org/Graphics/SVG/1.1/DTD/svg11.dtd">
<svg version="1.1" id="Layer_1" xmlns="http://www.w3.org/2000/svg" xmlns:xlink="http://www.w3.org/1999/xlink" x="0px" y="0px"
	 width="1056.333px" height="344.53px" viewBox="0 0 1056.333 344.53" enable-background="new 0 0 1056.333 344.53"
	 xml:space="preserve">
<g>
	<g>
		<g>
			<g>
				<path fill="#829E3D" d="M108.374,234.595c-4.359,8.488-8.772,17.039-13.249,25.644c-4.469,8.592-8.419,16.212-11.86,22.856
					l-8.341-0.057c-2.691-5.381-6.083-11.943-10.09-19.504c-4.01-7.557-8.13-15.508-12.247-23.63
					c-4.119-8.116-8.235-16.131-12.356-24.024c-3.577-6.857-6.813-13.068-9.701-18.633H6.683l72.435,139.896l72.747-139.896h-24.262
					c-1.916,3.521-4.326,8.141-7.184,13.772C116.749,218.247,112.731,226.113,108.374,234.595z"/>
				<path fill="#829E3D" d="M79.116,340.528L4.119,195.687h27.359l0.437,0.841c2.888,5.565,6.124,11.774,9.7,18.63
					c4.125,7.898,8.244,15.92,12.365,24.042c4.093,8.075,8.208,16.017,12.232,23.604c3.787,7.145,7.041,13.424,9.679,18.68
					l6.43,0.047c3.337-6.445,7.142-13.782,11.423-22.014c4.471-8.601,8.886-17.148,13.246-25.635l0,0
					c4.354-8.479,8.371-16.344,12.042-23.569c2.845-5.608,5.268-10.256,7.202-13.812l0.444-0.814h27.757L79.116,340.528z
					 M9.248,198.806l69.874,134.951l70.176-134.951h-20.766c-1.843,3.416-4.1,7.757-6.719,12.919
					c-3.674,7.231-7.692,15.099-12.052,23.582l0,0c-4.359,8.491-8.775,17.044-13.253,25.649
					c-4.468,8.594-8.418,16.211-11.856,22.857l-0.442,0.848l-10.254-0.069l-0.427-0.856c-2.701-5.404-6.09-11.956-10.07-19.472
					c-4.037-7.603-8.163-15.563-12.262-23.654c-4.116-8.109-8.23-16.118-12.349-24.007c-3.396-6.517-6.488-12.447-9.264-17.797
					H9.248z"/>
			</g>
			<g>
				<rect x="191.07" y="197.935" fill="#829E3D" width="20.901" height="145.036"/>
				<path fill="#829E3D" d="M213.531,344.53H189.51V196.376h24.021V344.53z M192.63,341.411h17.782V199.495H192.63V341.411z"/>
			</g>
			<g>
				<path fill="#829E3D" d="M436.371,242.049c-3.739,8.651-5.637,18.149-5.637,28.233c0,9.869,1.899,19.314,5.644,28.078
					c3.749,8.798,9.025,16.63,15.685,23.283c6.639,6.65,14.472,11.926,23.282,15.682c8.768,3.748,18.214,5.646,28.083,5.646h72.348
					v-72.688c0-10.072-1.896-19.569-5.637-28.231c-3.761-8.69-8.98-16.416-15.522-22.964c-6.541-6.537-14.269-11.759-22.962-15.517
					c-8.655-3.739-18.155-5.636-28.227-5.636c-9.855,0-19.304,1.9-28.079,5.644c-8.819,3.767-16.666,8.993-23.314,15.538
					C445.383,225.661,440.113,233.378,436.371,242.049z M466.93,234.135c4.666-4.655,10.201-8.346,16.458-10.976
					c12.563-5.282,27.571-5.282,39.934,0.012c6.128,2.629,11.599,6.314,16.25,10.957c4.651,4.661,8.338,10.128,10.967,16.256
					c2.647,6.191,3.989,12.885,3.989,19.898v46.764l-4.677,4.679h-46.423c-7.011,0-13.749-1.336-20.036-3.972
					c-6.279-2.637-11.815-6.331-16.462-10.982c-4.643-4.633-8.338-10.17-10.972-16.453c-2.641-6.275-3.976-13.018-3.976-20.035
					s1.34-13.713,3.987-19.895C458.605,244.245,462.292,238.776,466.93,234.135z"/>
				<path fill="#829E3D" d="M577.336,344.53h-73.908c-10.082,0-19.736-1.941-28.696-5.77c-8.992-3.836-16.991-9.223-23.773-16.014
					c-6.799-6.795-12.189-14.795-16.016-23.775c-3.826-8.957-5.768-18.609-5.768-28.689c0-10.302,1.941-20.008,5.766-28.852
					c3.818-8.855,9.202-16.737,15.999-23.426c6.787-6.68,14.795-12.016,23.797-15.861c8.974-3.828,18.626-5.768,28.691-5.768
					c10.289,0,19.99,1.938,28.847,5.763c8.878,3.839,16.765,9.171,23.446,15.847c6.68,6.686,12.012,14.574,15.85,23.445
					c3.824,8.857,5.766,18.563,5.766,28.852V344.53z M503.428,199.495c-9.643,0-18.883,1.856-27.469,5.518
					c-8.642,3.691-16.324,8.811-22.833,15.217c-6.507,6.404-11.663,13.953-15.323,22.438l0,0
					c-3.655,8.451-5.508,17.743-5.508,27.615c0,9.658,1.856,18.896,5.517,27.465c3.672,8.613,8.836,16.281,15.352,22.795
					c6.5,6.508,14.169,11.672,22.794,15.349c8.569,3.663,17.813,5.521,27.471,5.521h70.788v-71.129
					c0-9.859-1.853-19.15-5.508-27.613c-3.682-8.509-8.794-16.072-15.192-22.479c-6.401-6.396-13.963-11.506-22.479-15.188
					C522.573,201.349,513.286,199.495,503.428,199.495z M550.496,323.284h-47.068c-7.217,0-14.161-1.377-20.639-4.093
					c-6.463-2.712-12.169-6.521-16.961-11.317c-4.792-4.781-8.598-10.486-11.309-16.953c-2.717-6.467-4.097-13.411-4.097-20.639
					c0-7.234,1.382-14.134,4.111-20.509c2.718-6.329,6.516-11.96,11.294-16.742v-0.001c4.806-4.797,10.51-8.601,16.956-11.309
					c12.987-5.462,28.371-5.458,41.152,0.016c6.313,2.708,11.944,6.506,16.736,11.286c4.79,4.8,8.593,10.433,11.299,16.745
					c2.731,6.391,4.116,13.29,4.116,20.514v47.408L550.496,323.284z M468.033,235.237c-4.497,4.5-8.073,9.804-10.63,15.766
					c-2.561,5.982-3.861,12.471-3.861,19.279c0,6.811,1.296,13.348,3.853,19.43c2.556,6.094,6.135,11.46,10.639,15.955
					c4.507,4.51,9.874,8.092,15.96,10.648c6.097,2.555,12.634,3.85,19.435,3.85h45.774l3.766-3.766v-46.117
					c0-6.8-1.301-13.287-3.866-19.284c-2.549-5.946-6.127-11.253-10.634-15.769c-4.51-4.498-9.813-8.074-15.764-10.624
					c-12.017-5.149-26.488-5.151-38.713-0.009C477.922,227.148,472.552,230.728,468.033,235.237z"/>
			</g>
			<g>
				<g>
					<path fill="#829E3D" d="M375.248,137.93c1.211,0.832,5.439,2.719,18.626,2.864V66.943c-0.223-0.002-0.456-0.024-0.679-0.024
						c-14.14,0-17.692,2.271-18.261,2.725c-0.461,0.369-1.646,1.75-2.307,5.825v57.22
						C373.126,135.278,374.013,137.085,375.248,137.93z"/>
					<path fill="#829E3D" d="M395.434,142.37l-1.579-0.016c-13.188-0.145-17.87-2.028-19.488-3.137l0,0
						c-1.581-1.083-2.681-3.18-3.272-6.232l-0.025-57.516c0.748-4.742,2.133-6.434,2.891-7.042c1.16-0.924,5.349-3.067,19.236-3.067
						l1.979,0.024l0.26,1.56V142.37z M392.313,68.492c-13.417,0.11-16.289,2.277-16.409,2.372c-0.004,0.006-1.099,0.924-1.739,4.854
						l0.023,56.971c0.533,2.612,1.445,3.616,1.938,3.954l0.005,0.002c0.798,0.546,4.271,2.292,16.182,2.564V68.492z"/>
				</g>
				<g>
					<path fill="#829E3D" d="M393.42,167.604c-6.928,0-12.147-0.115-15.945-0.354c-1.544-0.093-3.172-0.291-4.847-0.542v26.546
						l-4.68,4.68h-46.422c-9.854,0-19.3,1.9-28.077,5.645c-8.819,3.766-16.664,8.992-23.315,15.537
						c-6.647,6.54-11.917,14.257-15.664,22.935c-3.738,8.649-5.633,18.149-5.633,28.231c0,9.867,1.898,19.313,5.643,28.078
						c3.752,8.803,9.029,16.637,15.683,23.283c6.642,6.65,14.474,11.926,23.285,15.682c8.768,3.746,18.212,5.646,28.079,5.646
						c9.86,0,19.309-1.899,28.079-5.644c8.787-3.749,16.554-9.016,23.088-15.656c6.549-6.653,11.776-14.496,15.539-23.311
						c3.744-8.777,5.642-18.225,5.642-28.078V167.6C393.722,167.6,393.572,167.604,393.42,167.604z M372.628,270.282
						c0,7.018-1.338,13.76-3.976,20.037c-2.634,6.27-6.324,11.807-10.979,16.455c-4.645,4.645-10.112,8.334-16.252,10.966
						c-6.193,2.644-12.887,3.984-19.896,3.984c-7.007,0-13.746-1.336-20.034-3.972c-6.274-2.633-11.811-6.328-16.46-10.982
						c-4.643-4.633-8.338-10.17-10.974-16.453c-2.638-6.275-3.976-13.018-3.976-20.035s1.342-13.713,3.988-19.895
						c2.636-6.143,6.322-11.611,10.965-16.253c4.66-4.658,10.196-8.349,16.455-10.978c6.282-2.638,13.022-3.977,20.036-3.977h46.422
						l4.68,4.68V270.282z"/>
					<path fill="#829E3D" d="M321.526,344.53c-10.076,0-19.73-1.941-28.692-5.77c-8.992-3.836-16.993-9.223-23.774-16.014
						c-6.793-6.787-12.183-14.787-16.015-23.773c-3.826-8.959-5.768-18.614-5.768-28.691c0-10.297,1.938-20.005,5.761-28.85
						c3.826-8.865,9.212-16.746,16.004-23.428c6.787-6.68,14.793-12.016,23.796-15.859c8.972-3.828,18.622-5.77,28.688-5.77h45.776
						l3.766-3.767v-27.712l1.791,0.268c1.855,0.278,3.354,0.446,4.708,0.528c3.772,0.236,8.958,0.351,15.853,0.351v1.555
						l0.203-1.557l1.586-0.024l0.225,1.581v102.683c0,10.066-1.941,19.72-5.768,28.689c-3.838,8.995-9.175,17-15.859,23.793
						c-6.68,6.786-14.614,12.168-23.589,15.998C341.251,342.59,331.597,344.53,321.526,344.53z M321.526,199.495
						c-9.643,0-18.882,1.856-27.464,5.52c-8.643,3.689-16.322,8.809-22.833,15.215c-6.502,6.396-11.659,13.946-15.326,22.439
						c-3.653,8.454-5.505,17.744-5.505,27.613c0,9.654,1.854,18.896,5.517,27.467c3.674,8.618,8.84,16.287,15.352,22.793
						c6.497,6.508,14.168,11.672,22.793,15.349c8.572,3.663,17.814,5.521,27.467,5.521c9.647,0,18.888-1.857,27.467-5.519
						c8.597-3.669,16.198-8.821,22.59-15.315c6.408-6.515,11.527-14.195,15.214-22.83c3.662-8.582,5.517-17.821,5.517-27.465
						v-101.12c-6.413-0.011-11.308-0.128-14.938-0.355c-0.978-0.059-2.017-0.158-3.188-0.308v25.402l-5.595,5.594H321.526z
						 M321.526,323.284c-7.214,0-14.157-1.377-20.637-4.093c-6.458-2.71-12.164-6.518-16.959-11.317
						c-4.792-4.781-8.598-10.486-11.309-16.953c-2.718-6.467-4.098-13.411-4.098-20.639c0-7.234,1.384-14.134,4.114-20.509
						c2.718-6.331,6.516-11.964,11.296-16.742c4.801-4.798,10.503-8.604,16.954-11.312c6.474-2.721,13.42-4.099,20.64-4.099h47.067
						l5.595,5.593v47.068c0,7.228-1.383,14.172-4.098,20.642c-2.713,6.458-6.519,12.163-11.313,16.953
						c-4.785,4.784-10.419,8.585-16.741,11.296C335.646,321.901,328.746,323.284,321.526,323.284z M321.526,220.741
						c-6.804,0-13.34,1.297-19.433,3.855c-6.073,2.549-11.44,6.131-15.956,10.641c-4.497,4.498-8.076,9.802-10.632,15.766
						c-2.563,5.982-3.864,12.471-3.864,19.279c0,6.811,1.298,13.348,3.854,19.43c2.556,6.094,6.132,11.461,10.638,15.955
						c4.509,4.514,9.877,8.096,15.961,10.648c12.192,5.109,26.718,5.114,38.714-0.01c5.954-2.554,11.256-6.131,15.763-10.635
						s8.086-9.871,10.642-15.955c2.557-6.086,3.854-12.623,3.854-19.434v-45.776l-3.766-3.765H321.526z"/>
				</g>
			</g>
		</g>
		<path fill="#124D5C" d="M0,84.32v43.412c0,22.422,16.818,33.633,50.458,33.633c12.877,0,26.139-1.511,39.774-4.545v-15.683
			c-14.246,3.637-26.592,5.459-37.048,5.459c-10.759,0-18.863-1.627-24.318-4.887c-5.454-3.26-8.184-8.749-8.184-16.481v-16.59
			h73.868V84.32c0-13.941-3.674-23.671-11.022-29.204c-7.351-5.532-18.979-8.298-34.887-8.298c-16.973,0-29.32,2.882-37.048,8.633
			C3.865,61.215,0,70.836,0,84.32z M20.682,77.953c0-6.818,2.196-11.436,6.593-13.861c4.392-2.425,11.137-3.637,20.228-3.637
			c9.544,0,16.365,1.249,20.457,3.753c4.088,2.499,6.135,7.08,6.135,13.746v17.28H20.682V77.953z"/>
		<path fill="#124D5C" d="M203.417,159.093V78.41c0-10.602-2.726-18.522-8.182-23.75c-5.454-5.228-15.455-7.841-30.001-7.841
			c-21.972,0-34.018,5.228-36.139,15.683v-13.41h-20.456v110.002h20.456V79.549c0-6.97,2.045-11.741,6.137-14.318
			c4.09-2.577,12.122-3.869,24.092-3.869c5.151,0,9.435,0.494,12.843,1.481c3.409,0.987,5.832,2.424,7.272,4.319
			c1.438,1.895,2.386,3.748,2.841,5.569c0.454,1.815,0.681,4.088,0.681,6.817v79.544H203.417z"/>
		<path fill="#124D5C" d="M232.279,52.045c-2.577,1.669-5.077,3.863-7.499,6.592c-2.425,2.724-4.204,6.288-5.34,10.681
			c-1.137,4.399-1.707,9.627-1.707,15.683v40.458c0,6.818,0.911,12.539,2.729,17.158c1.816,4.624,3.976,8.146,6.477,10.565
			c2.5,2.431,6.135,4.283,10.909,5.568c4.775,1.286,9.015,2.048,12.729,2.272c3.709,0.232,8.898,0.342,15.567,0.342
			c13.487,0,25.23-1.06,35.229-3.181v-15.452c-11.363,2.875-22.424,4.314-33.182,4.314c-11.972,0-19.887-1.323-23.75-3.973
			c-3.866-2.65-5.796-7.994-5.796-16.024V82.047c0-8.787,1.706-14.544,5.115-17.274s10.794-4.094,22.161-4.094
			c10.756,0,22.046,1.517,33.863,4.552V50.23c-10.454-2.272-20.911-3.412-31.365-3.412c-5.758,0-10.339,0.116-13.75,0.341
			c-3.409,0.225-7.351,0.683-11.82,1.365C238.378,49.206,234.854,50.382,232.279,52.045z"/>
		<g>
			<rect x="310.236" y="9.316" fill="#124D5C" width="20.457" height="21.368"/>
			<rect x="310.236" y="49.091" fill="#124D5C" width="20.457" height="110.002"/>
		</g>
		<path fill="#124D5C" d="M359.555,52.045c-2.577,1.669-5.077,3.863-7.501,6.592c-2.425,2.724-4.202,6.288-5.339,10.681
			c-1.137,4.399-1.707,9.627-1.707,15.683v40.458c0,6.818,0.912,12.539,2.729,17.158c1.817,4.624,3.977,8.146,6.479,10.565
			c2.5,2.431,6.135,4.283,10.908,5.568c4.776,1.286,9.016,2.048,12.729,2.272c3.71,0.232,8.899,0.342,15.567,0.342
			c13.485,0,25.23-1.06,35.229-3.181v-15.452c-11.364,2.875-22.424,4.314-33.183,4.314c-11.972,0-19.886-1.323-23.75-3.973
			c-3.866-2.65-5.798-7.994-5.798-16.024V82.047c0-8.787,1.707-14.544,5.115-17.274c3.41-2.729,10.793-4.094,22.162-4.094
			c10.756,0,22.045,1.517,33.863,4.552V50.23c-10.455-2.272-20.911-3.412-31.365-3.412c-5.759,0-10.34,0.116-13.75,0.341
			c-3.41,0.225-7.351,0.683-11.82,1.365C365.654,49.206,362.13,50.382,359.555,52.045z"/>
		<rect x="437.51" fill="#124D5C" width="20.457" height="159.093"/>
		<path fill="#124D5C" d="M564.785,152.506c2.575-2.577,4.694-6.215,6.364-10.913c1.668-4.691,2.503-10.456,2.503-17.273V86.136
			c0-7.269-0.875-13.404-2.615-18.407c-1.745-5.002-3.866-8.865-6.363-11.594c-2.501-2.724-6.18-4.807-11.025-6.246
			c-4.851-1.438-9.355-2.309-13.522-2.614c-4.168-0.304-9.886-0.457-17.162-0.457c-7.271,0-12.992,0.153-17.157,0.457
			c-4.17,0.305-8.677,1.177-13.522,2.614c-4.854,1.438-8.525,3.521-11.025,6.246c-2.5,2.729-4.621,6.592-6.366,11.594
			c-1.742,5.003-2.612,11.138-2.612,18.407v38.184c0,8.487,1.1,15.306,3.296,20.454c2.195,5.155,5.83,8.908,10.91,11.253
			c5.075,2.352,10.15,3.827,15.229,4.43c5.075,0.603,12.157,0.908,21.248,0.908c7.124,0,12.845-0.153,17.162-0.451
			c4.319-0.305,8.863-1.139,13.637-2.504C558.534,157.051,562.208,155.083,564.785,152.506z M552.741,127.275
			c0,4.85-0.533,8.712-1.591,11.589c-1.064,2.882-3.035,4.965-5.91,6.25c-2.883,1.292-5.835,2.084-8.866,2.389
			c-3.03,0.305-7.5,0.457-13.41,0.457c-5.907,0-10.38-0.152-13.406-0.457c-3.035-0.305-5.991-1.096-8.866-2.389
			c-2.879-1.285-4.851-3.369-5.909-6.25c-1.06-2.876-1.591-6.739-1.591-11.589V82.729c0-10.151,2.047-16.438,6.135-18.863
			c4.093-2.425,11.97-3.638,23.638-3.638s19.55,1.212,23.638,3.638c4.091,2.425,6.14,8.712,6.14,18.863V127.275z"/>
	</g>
	<g>
		<path fill="#829E3D" d="M763.419,97.325c-5.578,18.041-8.284,35.257-9.089,49.819c-20.63-14.09-37.382-22.2-52.364-26.652
			c3.305,7.54,5.568,15.38,6.787,23.501c13.794,5.856,29.62,15.389,49.612,30.533c3.113,2.363,7.309,2.68,10.744,0.804
			c3.431-1.87,5.444-5.581,5.143-9.475c-0.133-1.754-1.516-22.416,4.696-49.654C776.582,112.648,771.314,105.319,763.419,97.325z"/>
		<path fill="#829E3D" d="M840.834,2.827c-2.069-1.642-4.588-2.3-7.025-2.086c-2.369-0.156-4.797,0.497-6.804,2.086
			c-25.918,20.512-43.229,45.478-54.472,70.392c5.898,5.164,10.95,10.349,15.08,15.025c8.757-21.981,23.054-45.346,46.299-65.37
			c22.344,19.244,36.402,41.576,45.236,62.807c4.162-4.678,9.2-9.783,15.075-14.834C882.965,46.724,865.922,22.686,840.834,2.827z"
			/>
		<path fill="#829E3D" d="M913.493,147.145c-0.84-15.178-3.73-33.233-9.798-52.102c-7.359,7.224-12.605,14.008-15.536,18.139
			c7.028,28.717,5.558,50.854,5.417,52.673c-0.285,3.899,1.709,7.604,5.143,9.475c3.429,1.876,7.634,1.565,10.756-0.804
			c18.839-14.276,33.984-23.573,47.215-29.5c1.031-8.163,3.123-16.046,6.245-23.637C948.695,126.011,932.79,133.962,913.493,147.145
			z"/>
	</g>
	<g>
		<path fill="#124D5C" d="M794.73,118.783c3.648-2.19,4.844-6.957,2.652-10.62c-0.367-0.607-38.062-61.779-101.151-61.779
			c-17.509,0-35.545,4.748-53.614,14.113c-4.708,2.437-6.564,7.997-6.727,12.019c-0.196,4.83,1.902,9.094,5.6,11.404
			c0.646,0.403,1.318,0.812,2.016,1.232l1.378,0.835c3.563,2.125,8.026,4.786,11.827,7.979
			c29.146,24.465,31.842,47.658,32.729,55.278c0.206,1.726,0.339,2.832,0.788,4.009c1.437,3.901,5.987,6.058,9.939,4.583
			c3.724-1.379,5.794-5.308,4.82-9.14l-0.163-1.261c-2.889-24.514-15.724-46.491-38.152-65.324
			c-3.745-3.135-7.702-5.668-10.354-7.301l-3.533-2.175l3.791-1.689c13.408-5.973,26.825-9,39.866-9
			c54.292,0,86.328,51.975,87.666,54.188c1.418,2.349,3.901,3.752,6.647,3.752C792.146,119.884,793.523,119.503,794.73,118.783z"/>
	</g>
	<g>
		<path fill="#124D5C" d="M976.291,148.166c0.91-7.671,3.677-30.888,32.745-55.304c3.721-3.127,8.033-5.705,11.836-7.979
			l0.662-0.396c0.952-0.574,1.869-1.125,2.741-1.671c3.692-2.308,5.779-6.573,5.58-11.411c-0.161-4.02-2.019-9.574-6.727-11.997
			c-27.137-14.077-54.269-17.644-80.093-10.535l-0.835,0.229l-0.765-0.4c-1.848-0.969-4.556-2.643-6.532-3.866l-0.29-0.177
			c-8.268-5.135-14.163-8.68-19.533-6.323c-2.082,0.906-3.675,2.579-4.493,4.71c-1.69,4.375,0.271,8.755,3.244,15.384l1.127,2.668
			l-1.569,0.983c-28.696,18.001-44.37,43.89-45.023,44.983c-2.196,3.661-0.998,8.429,2.662,10.631
			c1.202,0.717,2.572,1.098,3.964,1.098c2.75,0,5.241-1.407,6.661-3.764c0.096-0.178,16.542-27.342,45.688-43.176
			c2.975-1.621,4.373-3.898,4.392-7.163l0.021-3.512l3.148,1.567c4.264,2.126,7.042,2.594,9.993,1.693
			c7.942-2.413,16.142-3.634,24.372-3.634c13.008,0,26.438,3.043,39.906,9.046l3.787,1.689l-3.532,2.175
			c-2.661,1.639-6.63,4.181-10.342,7.299c-22.434,18.834-35.275,40.807-38.159,65.31l-0.119,1.028
			c-1.024,4.063,1.038,7.997,4.75,9.379c4.046,1.484,8.511-0.69,9.951-4.549C975.961,150.989,976.102,149.878,976.291,148.166z"/>
	</g>
	<g>
		<g>
			<path fill="#124D5C" d="M716.186,81.962c0,2.511-2.027,4.54-4.53,4.54c-2.51,0-4.53-2.029-4.53-4.54
				c0-2.498,2.021-4.527,4.53-4.527C714.158,77.435,716.186,79.464,716.186,81.962z"/>
		</g>
		<g>
			<path fill="#124D5C" d="M711.655,88.688c-3.712,0-6.717-3.016-6.717-6.727c0-3.705,3.005-6.715,6.717-6.715
				c3.704,0,6.724,3.01,6.724,6.715C718.379,85.672,715.359,88.688,711.655,88.688z M711.655,79.623
				c-1.298,0-2.339,1.054-2.339,2.339c0,1.304,1.041,2.346,2.339,2.346c1.286,0,2.341-1.042,2.341-2.346
				C713.996,80.677,712.941,79.623,711.655,79.623z"/>
		</g>
	</g>
	<g>
		<g>
			<path fill="#124D5C" d="M961.068,81.962c0,2.511-2.033,4.54-4.54,4.54c-2.493,0-4.535-2.029-4.535-4.54
				c0-2.498,2.042-4.527,4.535-4.527C959.035,77.435,961.068,79.464,961.068,81.962z"/>
		</g>
		<g>
			<path fill="#124D5C" d="M956.528,88.688c-3.707,0-6.724-3.016-6.724-6.727c0-3.705,3.017-6.715,6.724-6.715
				c3.709,0,6.729,3.01,6.729,6.715C963.257,85.672,960.237,88.688,956.528,88.688z M956.528,79.623
				c-1.291,0-2.343,1.054-2.343,2.339c0,1.304,1.052,2.346,2.343,2.346c1.298,0,2.346-1.042,2.346-2.346
				C958.874,80.677,957.826,79.623,956.528,79.623z"/>
		</g>
	</g>
	<path fill="#829E3D" d="M876.152,123.097c-0.384,0.037-0.77,0.076-1.16,0.076c-2.182,0-4.332-0.594-6.214-1.721
		c-2.758-1.659-4.594-4.255-5.405-7.13c-10.531,13.514-20.001,29.342-28.327,47.224c-2.708-12.604-3.833-25.507-3.979-37.78
		c0.253-0.622,0.398-1.298,0.384-2.011c-0.035-1.194-0.145-2.571-0.374-4.052c0.072-5.301,0.3-10.437,0.669-15.354
		c0.168-0.225,0.355-0.438,0.484-0.694c4.469-8.561,15.746-15.963,19.996-18.748c2.285-1.499,4.448-2.918,4.039-6.099
		c-0.25-1.883-1.569-3.485-3.372-4.082c-1.846-0.615-3.806-0.091-5.087,1.207c-0.253,0.17-0.61,0.396-1.022,0.676
		c-2.753,1.803-8.094,5.343-13.228,10.029c2.264-16.957,5.264-28.314,5.33-28.576c0.715-2.65-0.856-5.368-3.494-6.086
		c-2.644-0.719-5.373,0.853-6.093,3.491c-0.396,1.493-5.575,21.076-7.528,47.525c-1.93-1.62-4.225-3.114-6.956-4.412
		c-1.234-0.816-2.811-1.09-4.317-0.578c-1.936,0.64-3.302,2.412-3.412,4.448c-0.084,1.565,0.451,3.717,3.499,5.112
		c5.8,2.656,9.275,6.903,10.461,12.588c-0.089,9.047,0.3,18.542,1.413,28.142c-6.188-11.306-12.892-21.626-20.088-30.864
		c-0.807,2.875-2.643,5.464-5.393,7.116c-1.893,1.127-4.042,1.721-6.224,1.721c-0.394,0-0.776-0.038-1.16-0.074
		c12.22,15.518,23.018,34.477,32.169,56.53c0.066,0.283,0.125,0.564,0.223,0.863c0.295,0.916,1.645,5.527,3.412,8.764
		c0.042,0.107,0.063,0.219,0.11,0.322c0.229,0.509,0.519,0.977,0.842,1.414c1.761,3.336,5.905,5.08,9.561,3.723
		c1.937-0.725,3.474-2.163,4.329-4.049c0.613-1.35,0.805-2.811,0.605-4.242C850.632,162.085,862.494,140.44,876.152,123.097z"/>
	<path fill="#829E3D" d="M1056.188,279.313c-0.971-5.891-6.447-10.029-12.58-9.027l-209.186,34.367L629.38,269.399
		c-0.629-0.109-1.259-0.16-1.876-0.16c-5.327,0-9.855,3.826-10.768,9.098c-0.496,2.881,0.159,5.781,1.848,8.166
		c1.684,2.387,4.201,3.975,7.087,4.471l192.216,33.048l-0.07,1.912c-0.007,0.207-0.033,0.405-0.063,0.603
		c-0.014,9.321,7.52,16.854,16.774,16.854c9.256,0,16.787-7.532,16.787-16.791l-0.072-0.572l-0.082-1.938l196.002-32.197
		C1053.117,290.908,1057.165,285.267,1056.188,279.313z"/>
	<g>
		<path fill="#829E3D" d="M760.369,245.11c-5.625-2.734-11.539-5.402-17.719-7.979c5.95,4.996,9.994,7.437,10.511,7.741
			C755.379,246.174,758.115,246.16,760.369,245.11z"/>
		<path fill="#829E3D" d="M763.81,241.927c2.009-3.625,0.795-8.244-2.8-10.395c-0.367-0.221-34.63-21.469-53.476-74.231
			c-1.377,2.041-3.354,3.717-5.842,4.637c-1.354,0.506-2.774,0.763-4.208,0.763c-1.707,0-3.342-0.388-4.843-1.05
			c11.44,32.601,28.104,54.206,41.065,67.225C744.475,232.96,754.539,237.363,763.81,241.927z"/>
	</g>
	<g>
		<path fill="#829E3D" d="M1046.533,123.172c-1.687-2.413-4.336-3.96-7.257-4.229c-3.113-0.28-6.142-0.591-9.103-0.883
			c-12.863-1.284-24.59-2.446-36.646-1.886c-5.657,7.997-8.77,15.245-10.518,21.074c14.003-2.302,27.034-1.228,42.381,0.291
			c-14.012,42.317-38.721,70.495-72.616,83.431c16.545-5.318,34.6-9.738,54.124-12.721c18.502-19.27,32.43-45.074,41.055-76.814
			C1048.72,128.601,1048.196,125.573,1046.533,123.172z"/>
	</g>
	<g>
		<path fill="#829E3D" d="M902.258,241.364c9.088-4.611,18.923-9.098,29.524-13.275c12.984-12.965,29.779-34.628,41.326-67.539
			c-1.507,0.665-3.146,1.055-4.851,1.055c-1.416,0-2.835-0.256-4.215-0.76c-2.479-0.925-4.451-2.597-5.821-4.649
			c-19.005,53.319-53.146,74.036-53.502,74.247c-3.65,2.162-4.874,6.909-2.729,10.58
			C902.065,241.148,902.176,241.241,902.258,241.364z"/>
	</g>
	<path fill="#829E3D" d="M1032.438,217.954c-0.488-4.457-4.217-7.82-8.677-7.82c-0.318,0-0.641,0.019-0.966,0.054
		c-105.05,11.364-170.431,65.874-189.231,83.647c-21.793-19.871-86.071-70.362-186.605-81.233c-0.325-0.036-0.644-0.054-0.959-0.054
		c-4.401,0-8.221,3.432-8.693,7.813c-0.515,4.797,2.968,9.127,7.77,9.652c78.908,8.531,135.127,43.77,163.29,65.72l26.075,4.483
		l4.983-0.818v-0.001l17.896-2.94c26.501-21.541,84.128-59.854,167.348-68.856c2.327-0.251,4.418-1.394,5.883-3.216
		C1032.02,222.564,1032.686,220.28,1032.438,217.954z"/>
	<g>
		<path fill="#829E3D" d="M619.889,123.172c1.685-2.413,4.334-3.96,7.258-4.229c3.113-0.28,6.142-0.591,9.103-0.883
			c12.86-1.284,24.587-2.446,36.646-1.886c5.658,7.997,8.771,15.245,10.516,21.074c-14-2.302-27.034-1.228-42.379,0.291
			c14.01,42.317,38.721,70.495,72.616,83.431c-16.546-5.318-34.6-9.738-54.123-12.721c-18.502-19.27-32.432-45.074-41.055-76.814
			C617.702,128.601,618.227,125.573,619.889,123.172z"/>
	</g>
</g>
</svg>
