<?xml version="1.0" encoding="utf-8"?>
<!-- Generator: Adobe Illustrator 14.0.0, SVG Export Plug-In . SVG Version: 6.00 Build 43363)  -->
<!DOCTYPE svg PUBLIC "-//W3C//DTD SVG 1.1//EN" "http://www.w3.org/Graphics/SVG/1.1/DTD/svg11.dtd">
<svg version="1.1" id="Layer_1" xmlns="http://www.w3.org/2000/svg" xmlns:xlink="http://www.w3.org/1999/xlink" x="0px" y="0px"
	 width="160.674px" height="129.09px" viewBox="0 0 160.674 129.09" enable-background="new 0 0 160.674 129.09"
	 xml:space="preserve">
<g>
	<g>
		<path fill-rule="evenodd" clip-rule="evenodd" fill="#76232D" d="M104.583,28.345c0.819,0,1.489,0.569,1.489,1.243
			c0,0.687-0.67,1.231-1.489,1.231c-0.821,0-1.476-0.544-1.476-1.231C103.108,28.914,103.762,28.345,104.583,28.345 M100.783,24.957
			c1.229-0.732,4.83-0.777,6.662-0.14c1.846,0.637,4.435,1.604,5.509,2.398c1.023,0.816,4.381,3.753,4.594,4.53
			c0.208,0.771,0.351,2.081,0,2.872c-0.351,0.777-1.019,1.537-1.75,2.141c-0.763,0.6-4.309,1.767-5.242,1.882
			c-0.892,0.087-3.543,0.592-4.418,0.491c-0.875-0.093-6.053-2.44-6.414-2.373c-0.362,0.073-1.243,1.969-1.243,1.969
			s-2.863-1.596-2.709-5.029c0.182-3.472,1.206-4.356,1.557-4.821c0.345-0.449,1.296-0.771,1.579-1.369
			C99.19,26.895,99.563,25.697,100.783,24.957z"/>
		<path fill-rule="evenodd" clip-rule="evenodd" fill="#76232D" d="M115.775,38.434c1.307-0.934,2.261-2.485,2.51-2.474
			c0.202-0.011,1.734,1.094,3.133,2.679c1.221,1.377,2.295,3.158,3.103,4.347c1.756,2.527,4.931,7.907,5.624,11.009
			c0.379,1.703,1.139,8.499,0.421,14.302c-0.559,4.359-0.842,8.827-0.935,9.023c-0.205,0.466-0.858,1.961-1.657,1.419
			c-6.393-4.432-12.17-11.618-15.738-18.408c-0.869-1.655-1.615-3.256-2.353-4.74c-1.434-2.931-2.479-5.612-3.243-7.736
			c-0.987-2.698-1.317-4.546-1.332-5.124c0-1.363,0.345-2.238,0.562-2.333c0.188-0.087,0.659,0.061,1.396,0.137
			c0.816,0.092,1.705,0.092,2.432,0.07C112.65,40.31,113.276,40.229,115.775,38.434"/>
		<path fill-rule="evenodd" clip-rule="evenodd" fill="#76232D" d="M116.942,70.473c0.471-0.171,0.886,0.732,1.54,1.338
			c0.642,0.609,4.274,4.056,5.015,4.967c0.769,0.909,1.606,1.936,2.025,3.077c0.403,1.15,0.521,1.98-0.323,5.792
			c-0.895,3.804-4.925,20.587-7.247,28.203c-2.334,7.618-2.575,9.337-2.76,9.809c-0.205,0.499-0.37,1.147-1.324,1.049
			c-1.005-0.07-1.287-0.418-1.431-1.563c-0.163-1.13-0.37-5.57,0-9.601c0.328-4.017,1.431-11.068,1.431-15.138
			c0-4.059-0.564-6.095-0.427-8.956c0.115-2.872,1.381-11.284,2.006-13.811C116.013,73.141,116.457,70.627,116.942,70.473"/>
		<path fill-rule="evenodd" clip-rule="evenodd" fill="#76232D" d="M88.406,41.847c0.033-1.38,0.9-1.59,2.622-1.778
			c1.756-0.179,3.284,0.048,4.171,0.39c0.863,0.329,3.666,1.591,4.224,1.992c0.593,0.387,2.693,2.544,3.604,3.716
			c0.897,1.181,2.934,3.742,3.888,6.533c0.998,2.768,1.043,3.918,0.998,4.238c-0.044,0.331-1.632,2.796-2.502,3.587
			c-0.838,0.774-3.009,3.96-8.134,3.568c-5.121-0.398-7.53-4.39-8.832-5.268c-1.296-0.858-1.509-1.29-2.897-1.846
			c-1.394-0.541-1.542-1.094-1.347-1.862c0.208-0.799,0.809-1.548,2.488-1.475c1.633,0.087,3.59,0.541,3.59,0.541
			s-0.479-0.802-1.635-1.127c-1.167-0.336-3.357-0.435-4.771-0.83c-1.422-0.398-1.104-1.22-1.08-1.439
			c0.021-0.258,0.048-1.554,1.938-1.739c1.846-0.186,5.969-0.261,5.969-0.261s-5.405-0.965-6.008-1.159
			c-0.608-0.193-0.945-0.701-0.875-1.338c0.056-0.628,0.267-1.599,1.518-1.792c1.236-0.228,2.143-0.424,3.461-0.345
			c1.352,0.084,5.06,0.746,5.06,0.746s0.096-0.5-1.242-1.013S88.391,43.222,88.406,41.847"/>
		<path fill-rule="evenodd" clip-rule="evenodd" fill="#76232D" d="M93.693,67.708c-0.124-1.15,0.039-1.551,0.303-1.674
			c0.228-0.124,3.825-0.912,5.217-1.088c1.36-0.199,4.238-0.46,4.689-0.78c0.443-0.286,1.068-0.412,1.82-1.111
			c0.707-0.676,2.695-2.689,3.568-2.88c0.816-0.193,1.475-0.354,2.137,0.673c0.67,1.035,0.839,1.817,0.53,2.659
			c-0.289,0.83-1.705,2.92-4.418,4.477c-2.698,1.571-3.528,1.728-4.549,1.75c-1.019,0.054-5.56,0.57-7.29,0.241
			C93.951,69.64,93.81,68.838,93.693,67.708"/>
		<path fill-rule="evenodd" clip-rule="evenodd" fill="#76232D" d="M95.507,71.505c1.717,0,7.163-0.109,8.021-0.255
			c0.872-0.143,2.76-0.552,4.081-1.447c1.299-0.9,4.196-2.934,4.62-2.864c0.381,0.073,1.657,0.446,1.725,1.543
			c0.092,1.091,0.062,2.861-2.051,4.945c-2.126,2.067-5.999,2.541-8.313,2.967c-2.339,0.455-4.532,0.709-5.334,0.634
			c-0.825-0.04-4.015-0.455-4.19-1.742C93.903,74.046,93.777,71.505,95.507,71.505"/>
		<path fill-rule="evenodd" clip-rule="evenodd" fill="#76232D" d="M112.305,76.288c0.345-0.155,0.241,6.302-0.595,10.075
			c-0.85,3.795-3.693,15.16-4.193,16.001c-0.465,0.867-4.386,2.853-5.615,3.43c-1.211,0.564-4.198,1.596-4.397,1.613
			c-0.211,0.022-1.649,0.696-1.579-1.125c0.067-1.814,0.404-10.468-0.115-16.445c-0.544-5.969-0.653-8.442-0.74-9.183
			c-0.093-0.729-0.216-1.986,1.032-2.028c1.251-0.056,4.981,0.014,7.752-0.426C106.631,77.754,111.98,76.433,112.305,76.288"/>
		<path fill-rule="evenodd" clip-rule="evenodd" fill="#76232D" d="M57.549,88.626c0.154,0,0.769,0.886,1.029,1.256
			c0.292,0.401,5.481,7.534,12.863,9.09c7.383,1.573,9.856-0.241,10.627-1.15c0.771-0.912,2.418-5.438,2.8-6.625
			c0.348-1.203,1.26-2.432,3.076-2.869c0.699-0.168,1.703-0.396,2.59-0.446c1.542-0.098,2.995,0.16,3.509,0.561
			c0.811,0.673,0.886,6.293,0.535,9.379c-0.381,3.094-1.139,9.001-1.313,9.408c-0.157,0.417-3.197,1.991-9.533,2.131
			c-6.351,0.166-17.808-1.907-23.917-5.178c-6.101-3.234-8.627-5.613-11.045-8.039c-2.424-2.432-1.919-2.196-1.726-2.782
			c0.175-0.586,0.668-1.627,1.016-1.736c0.396-0.079,2.342-0.227,3.846-0.561c1.517-0.326,3.691-0.783,4.462-1.546
			C57.131,88.766,57.378,88.634,57.549,88.626"/>
		<path fill-rule="evenodd" clip-rule="evenodd" fill="#76232D" d="M122.941,105.233c0.626,0.353,2.466-0.559,5.22-3.299
			c2.752-2.743,3.694-4.215,4.763-5.761c1.044-1.554,5.93-10.145,7.699-18.354c1.768-8.19,1.68-10.645,1.702-14.409
			c0.065-3.761-1.548-15.356-4.036-21.03c-2.501-5.638-4.757-12.019-9.819-16.613c-5.043-4.614-14.226-11.25-25.311-14.136
			c-11.082-2.883-13.99-2.539-17.553-2.662c-3.512-0.115-12.832,0.561-18.651,1.728c-5.812,1.145-7.644,1.927-9.251,2.331
			c-1.606,0.384-17.4,7.419-24.186,18.893c-6.743,11.486-8.195,25.384-7.803,32.586c0.384,7.211,2.156,26.994,12.305,38.37
			c10.122,11.351,22.509,16.352,42.51,17.406c20.012,1.041,30.261-6.998,30.261-6.998l1.237-9.803c0,0-13.755,7.54-28.836,7.812
			c-15.071,0.283-28.988-5.478-37.405-14.966c-8.435-9.475-11.268-27.922-9.935-40.964c1.338-13.015,7.096-26.208,25.047-33.043
			c17.984-6.802,39.596-1.262,45.46,0.398c5.901,1.672,22.413,12.409,25.743,32.267c3.31,19.838-3.119,28.758-4.679,32.421
			c-1.551,3.661-3.649,7.427-4.07,10.577C122.972,101.158,122.313,104.869,122.941,105.233"/>
		<path fill-rule="evenodd" clip-rule="evenodd" fill="#76232D" d="M48.751,76.038c1.271-0.124,3.343,1.133,3.41,2.303
			c0.076,1.167-0.496,2.471-1.997,2.751c-1.512,0.255-3.898,0.303-4.471-1.145c-0.575-1.436,0-2.774,0.905-3.259
			C47.5,76.178,47.472,76.161,48.751,76.038 M48.131,75.168c2.769,0,5.854,2.176,5.854,4.737c0.025,2.552-1.54,4.176-4.048,3.977
			c-2.507-0.222-5.893-1.388-5.654-4.951C44.516,75.37,48.131,75.168,48.131,75.168z M68.387,62.104
			c1.669-1.531,4.443-1.015,4.62-0.855c0.081,0.079-0.096,0.774-0.524,1.54c-0.407,0.693-1.053,1.411-1.778,2.092
			c-1.501,1.444-3.75,1.694-4.101,1.346C66.228,65.851,66.71,63.629,68.387,62.104z M84.667,66.687
			c0.382,0.326-0.219,1.375-0.466,1.529c-0.171,0.151-1.026,0.869-1.674,0.314c-0.646-0.547-0.309-1.248,0.617-1.736
			C84.049,66.325,84.331,66.355,84.667,66.687z M79.904,21.047c1.083-0.031,3.077,4.471,3.363,7.057
			c0.303,2.598,1.043,6.454-0.803,11.469c-1.809,4.996-4.655,8.914-5.542,9.043c-0.917,0.126-1.801,0.272-1.801,0.272
			s-3.644-3.077-7.612-2.737c-3.982,0.333-6.88,1.587-10.311,4.549c-3.436,2.993-4.961,5.958-5.357,8.215
			c-0.397,2.266-0.271,6.089,0.641,8.063c0.92,2.009,1.304,1.706,1.304,1.706s0.646,0.168,0.746-0.07
			c0.106-0.247-1.91-6.221-0.622-9.985c1.275-3.733,2.832-7.09,9.547-9.954c6.117-2.592,8.818,1.217,10.496,2.437
			c1.596,1.175,2.984,2.028,4.069,2.715c1.071,0.673,7.194,4.802,9.753,7.78c2.58,2.987,2.883,3.164,2.58,4.277
			c-0.331,1.074-1.792,2.384-1.711,3.156c0.051,0.785,1.38,2.65,0.776,3.825c-0.603,1.181-1.068,1.675-2.703,2.466
			c-1.669,0.819-2.309,1.91-2.261,2.171c0.03,0.224,0.76,0.163,1.391-0.048c0.659-0.213,1.198-0.749,2.427-0.6
			c1.189,0.135,2.692,0.32,3.149,3.142c0.482,2.799,0.482,4.185-0.505,5.441c-0.968,1.245-2.224,1.363-3.478,1.823
			c-1.212,0.462-2.527,0.51-3.086,1.138c-0.569,0.648-1.789,3.08-2.261,5.444c-0.474,2.351-1.554,3.582-1.882,3.809
			c-0.342,0.261-7.057,0.544-10.273-0.676c-3.243-1.201-4.734-2.404-7.56-5.198c-2.821-2.799-4.021-4.518-4.021-4.518h-1.26
			c0,0-2.937,3.161-6.88,2.532c-3.936-0.645-10.6-3.04-10.51-11.152c0.093-8.106,5.542-8.854,5.803-9.362
			c0.275-0.51,0.388-1.243-0.752-1.217c-1.133,0.045-2.88,0.581-3.965,1.282c-1.086,0.712-3.095,2.319-3.26,0.816
			c-0.183-1.476,0.271-5.503,4.12-7.394c3.829-1.899,4.729-1.518,4.662-2.945c-0.051-1.414-2.982-0.811-3.916-0.438
			c-0.906,0.373-3.122,1.484-3.298,1.728c-0.166,0.232-1.639,1.343-1.639-0.286c0-1.674,0.556-4.886,3.807-6.805
			c3.225-1.93,6.649-1.108,6.742-2.294c0.084-1.197-1.354-1.593-2.592-1.444c-1.271,0.123-4.734,1.246-5.404,1.809
			c-0.646,0.575-1.781,0.667-1.473-0.979c0.28-1.657,1.807-5.584,5.795-6.712c3.963-1.178,7.149,0.945,7.502,0.228
			c0.382-0.71,0.073-2.067-1.59-2.808c-1.654-0.729-2.752-1.077-5.152-0.337c-2.403,0.741-2.917,0.379-2.524-0.55
			c0.409-0.892,1.646-5.643,7.352-5.668c5.691-0.022,7.142,5.237,8.474,4.877c1.368-0.375-0.539-4.673-1.658-6.414
			c-1.091-1.773-4.938-4.533-3.48-5.576c1.428-1.052,4.981-0.645,7.197,0.769c2.224,1.408,2.224,1.691,2.799,2.516
			c0.584,0.797,2.76,5.733,3.245,5.557c0.472-0.174,0.674-3.071,0.264-5.13c-0.396-2.079-3.127-6.617-3.977-7.414
			c-0.839-0.769-0.654-1.45,0.85-1.525c1.478-0.112,5.621,0.378,7.918,3.265c2.277,2.85,2.396,7.865,2.092,8.563
			c-0.246,0.718-0.148,2.569,0.858,1.467c1.004-1.122,3.153-4.667,3.678-8.173C78.723,24.53,78.825,21.069,79.904,21.047z"/>
	</g>
</g>
</svg>
