<?xml version="1.0" encoding="utf-8"?>
<!-- Generator: Adobe Illustrator 14.0.0, SVG Export Plug-In . SVG Version: 6.00 Build 43363)  -->
<!DOCTYPE svg PUBLIC "-//W3C//DTD SVG 1.1//EN" "http://www.w3.org/Graphics/SVG/1.1/DTD/svg11.dtd">
<svg version="1.1" id="Layer_1" xmlns="http://www.w3.org/2000/svg" xmlns:xlink="http://www.w3.org/1999/xlink" x="0px" y="0px"
	 width="160.674px" height="102.666px" viewBox="0 0 160.674 102.666" enable-background="new 0 0 160.674 102.666"
	 xml:space="preserve">
<g>
	<g>
		<path fill="#829E3D" d="M66.64,31.765c-1.531,4.949-2.273,9.672-2.494,13.667c-5.659-3.865-10.255-6.091-14.365-7.312
			c0.906,2.068,1.527,4.219,1.862,6.447c3.784,1.605,8.126,4.221,13.61,8.376c0.854,0.648,2.005,0.735,2.947,0.221
			c0.941-0.513,1.494-1.531,1.411-2.6c-0.037-0.481-0.416-6.149,1.288-13.622C70.25,35.968,68.805,33.957,66.64,31.765z"/>
		<path fill="#829E3D" d="M87.877,5.84c-0.567-0.45-1.259-0.631-1.928-0.572C85.3,5.226,84.634,5.404,84.083,5.84
			c-7.11,5.628-11.859,12.477-14.943,19.312c1.618,1.416,3.004,2.839,4.137,4.121c2.402-6.029,6.324-12.439,12.701-17.933
			c6.13,5.279,9.987,11.405,12.41,17.229c1.143-1.283,2.524-2.684,4.136-4.068C99.435,17.883,94.759,11.288,87.877,5.84z"/>
		<path fill="#829E3D" d="M107.81,45.432c-0.23-4.164-1.023-9.117-2.688-14.294c-2.02,1.982-3.458,3.844-4.262,4.977
			c1.928,7.879,1.524,13.951,1.485,14.45c-0.078,1.069,0.469,2.087,1.411,2.6c0.94,0.515,2.094,0.429,2.95-0.221
			c5.169-3.917,9.323-6.467,12.953-8.093c0.283-2.239,0.856-4.402,1.713-6.484C117.467,39.634,113.104,41.815,107.81,45.432z"/>
	</g>
	<g>
		<path fill="#124D5C" d="M75.23,37.651c1-0.602,1.328-1.908,0.728-2.914c-0.101-0.166-10.442-16.948-27.75-16.948
			c-4.803,0-9.751,1.303-14.708,3.872c-1.292,0.668-1.801,2.193-1.846,3.297c-0.054,1.325,0.522,2.494,1.536,3.129
			c0.178,0.11,0.362,0.223,0.553,0.338l0.379,0.229c0.978,0.583,2.201,1.313,3.244,2.189c7.996,6.711,8.735,13.074,8.979,15.164
			c0.057,0.474,0.093,0.777,0.217,1.1c0.394,1.07,1.642,1.662,2.727,1.258c1.021-0.379,1.589-1.456,1.322-2.508l-0.045-0.346
			c-0.792-6.725-4.313-12.754-10.467-17.92c-1.027-0.86-2.112-1.556-2.841-2.004l-0.969-0.596l1.04-0.464
			c3.679-1.639,7.359-2.47,10.937-2.47c14.895,0,23.684,14.259,24.05,14.866c0.39,0.645,1.07,1.029,1.824,1.029
			C74.521,37.953,74.898,37.849,75.23,37.651z"/>
	</g>
	<g>
		<path fill="#124D5C" d="M125.038,45.712c0.25-2.104,1.009-8.474,8.983-15.172c1.021-0.857,2.204-1.565,3.247-2.189l0.182-0.108
			c0.262-0.157,0.513-0.309,0.752-0.458c1.013-0.633,1.586-1.803,1.531-3.131c-0.044-1.103-0.554-2.626-1.846-3.291
			c-7.444-3.861-14.888-4.84-21.972-2.89l-0.229,0.063l-0.21-0.11c-0.507-0.266-1.25-0.725-1.792-1.061l-0.079-0.048
			c-2.269-1.409-3.886-2.382-5.359-1.735c-0.57,0.249-1.008,0.708-1.232,1.293c-0.464,1.2,0.074,2.401,0.891,4.221l0.309,0.731
			l-0.431,0.271c-7.872,4.938-12.172,12.04-12.352,12.34c-0.603,1.004-0.273,2.313,0.73,2.916c0.33,0.197,0.706,0.302,1.088,0.302
			c0.754,0,1.438-0.386,1.827-1.032c0.026-0.049,4.538-7.501,12.533-11.845c0.816-0.444,1.2-1.069,1.205-1.966l0.006-0.963
			l0.863,0.43c1.17,0.584,1.933,0.712,2.742,0.465c2.179-0.662,4.428-0.997,6.686-0.997c3.569,0,7.253,0.835,10.948,2.481
			l1.039,0.464l-0.97,0.597c-0.729,0.449-1.818,1.146-2.837,2.002c-6.154,5.168-9.677,11.195-10.468,17.918l-0.033,0.281
			c-0.281,1.115,0.285,2.194,1.304,2.573c1.109,0.407,2.334-0.188,2.729-1.248C124.948,46.486,124.986,46.182,125.038,45.712z"/>
	</g>
	<g>
		<g>
			<circle fill="#124D5C" cx="52.439" cy="27.55" r="1.243"/>
		</g>
		<g>
			<path fill="#124D5C" d="M52.439,29.396c-1.019,0-1.843-0.828-1.843-1.846c0-1.017,0.824-1.842,1.843-1.842
				c1.017,0,1.845,0.825,1.845,1.842C54.284,28.567,53.456,29.396,52.439,29.396z M52.439,26.908c-0.356,0-0.642,0.289-0.642,0.642
				c0,0.357,0.285,0.644,0.642,0.644c0.353,0,0.643-0.286,0.643-0.644C53.082,27.197,52.792,26.908,52.439,26.908z"/>
		</g>
	</g>
	<g>
		<g>
			<path fill="#124D5C" d="M120.862,27.55c0,0.688-0.558,1.245-1.245,1.245c-0.685,0-1.244-0.557-1.244-1.245
				c0-0.686,0.56-1.242,1.244-1.242C120.304,26.308,120.862,26.864,120.862,27.55z"/>
		</g>
		<g>
			<path fill="#124D5C" d="M119.617,29.396c-1.018,0-1.845-0.828-1.845-1.846c0-1.017,0.827-1.842,1.845-1.842
				s1.846,0.825,1.846,1.842C121.462,28.567,120.634,29.396,119.617,29.396z M119.617,26.908c-0.354,0-0.643,0.289-0.643,0.642
				c0,0.357,0.288,0.644,0.643,0.644c0.355,0,0.644-0.286,0.644-0.644C120.26,27.197,119.972,26.908,119.617,26.908z"/>
		</g>
	</g>
	<path fill="#829E3D" d="M97.567,38.835c-0.105,0.01-0.212,0.021-0.318,0.021c-0.599,0-1.188-0.163-1.705-0.472
		c-0.757-0.455-1.261-1.168-1.482-1.957c-2.89,3.708-5.487,8.05-7.771,12.955c-0.743-3.457-1.052-6.997-1.092-10.363
		c0.069-0.171,0.109-0.356,0.105-0.553c-0.01-0.327-0.04-0.705-0.103-1.111c0.02-1.454,0.082-2.863,0.184-4.212
		c0.046-0.062,0.098-0.12,0.133-0.19c1.226-2.349,4.319-4.379,5.485-5.144c0.627-0.411,1.221-0.801,1.108-1.673
		c-0.068-0.517-0.431-0.957-0.925-1.12c-0.507-0.169-1.044-0.024-1.396,0.331c-0.069,0.047-0.168,0.108-0.281,0.186
		c-0.755,0.494-2.22,1.466-3.628,2.751c0.62-4.651,1.443-7.768,1.462-7.839c0.196-0.728-0.235-1.473-0.959-1.67
		c-0.725-0.197-1.474,0.234-1.671,0.957c-0.108,0.41-1.53,5.782-2.065,13.038c-0.529-0.444-1.159-0.854-1.908-1.21
		c-0.339-0.225-0.771-0.299-1.185-0.158c-0.531,0.175-0.906,0.661-0.937,1.22c-0.022,0.43,0.124,1.02,0.96,1.402
		c1.592,0.729,2.545,1.894,2.87,3.453c-0.024,2.481,0.082,5.087,0.388,7.721c-1.698-3.102-3.536-5.933-5.511-8.468
		c-0.222,0.789-0.725,1.5-1.479,1.952c-0.52,0.31-1.108,0.473-1.707,0.473c-0.108,0-0.214-0.011-0.318-0.021
		c3.353,4.257,6.314,9.458,8.825,15.508c0.018,0.078,0.034,0.155,0.061,0.237c0.081,0.251,0.451,1.517,0.937,2.404
		c0.011,0.029,0.018,0.06,0.03,0.089c0.063,0.139,0.142,0.268,0.23,0.387c0.483,0.916,1.62,1.395,2.623,1.021
		c0.531-0.199,0.953-0.594,1.188-1.11c0.168-0.37,0.221-0.771,0.166-1.164C90.565,49.53,93.82,43.593,97.567,38.835z"/>
	<path fill="#829E3D" d="M146.957,81.69c-0.267-1.616-1.769-2.752-3.451-2.477l-57.387,9.428L29.868,78.97
		c-0.173-0.029-0.345-0.043-0.515-0.043c-1.461,0-2.703,1.049-2.954,2.496c-0.136,0.789,0.044,1.586,0.507,2.24
		c0.462,0.654,1.153,1.09,1.944,1.227l52.732,9.065l-0.02,0.524c-0.002,0.057-0.009,0.111-0.018,0.166
		c-0.004,2.557,2.063,4.623,4.602,4.623c2.54,0,4.605-2.066,4.605-4.606l-0.02-0.157l-0.022-0.531l53.77-8.833
		C146.115,84.871,147.225,83.323,146.957,81.69z"/>
	<g>
		<path fill="#829E3D" d="M65.803,72.308c-1.543-0.75-3.166-1.482-4.861-2.189c1.633,1.371,2.742,2.04,2.884,2.123
			C64.434,72.599,65.185,72.595,65.803,72.308z"/>
		<path fill="#829E3D" d="M66.747,71.435c0.552-0.995,0.218-2.262-0.768-2.853c-0.101-0.061-9.501-5.89-14.671-20.364
			c-0.378,0.561-0.92,1.02-1.603,1.271c-0.371,0.14-0.761,0.21-1.154,0.21c-0.468,0-0.917-0.106-1.328-0.288
			c3.138,8.943,7.71,14.871,11.266,18.442C61.443,68.974,64.204,70.182,66.747,71.435z"/>
	</g>
	<g>
		<path fill="#829E3D" d="M144.308,38.854c-0.463-0.662-1.189-1.086-1.991-1.159c-0.854-0.077-1.685-0.162-2.497-0.243
			c-3.528-0.352-6.746-0.671-10.053-0.517c-1.553,2.193-2.406,4.183-2.886,5.781c3.842-0.632,7.416-0.337,11.626,0.079
			c-3.844,11.609-10.622,19.34-19.921,22.889c4.539-1.459,9.492-2.672,14.849-3.49c5.075-5.286,8.896-12.365,11.263-21.072
			C144.908,40.345,144.764,39.514,144.308,38.854z"/>
	</g>
	<g>
		<path fill="#829E3D" d="M104.728,71.279c2.493-1.265,5.191-2.495,8.1-3.642c3.563-3.557,8.17-9.5,11.337-18.528
			c-0.413,0.183-0.862,0.289-1.33,0.289c-0.389,0-0.778-0.07-1.156-0.208c-0.681-0.254-1.222-0.713-1.597-1.275
			c-5.214,14.627-14.58,20.311-14.678,20.368c-1.002,0.593-1.337,1.896-0.749,2.902C104.675,71.22,104.706,71.246,104.728,71.279z"
			/>
	</g>
	<path fill="#829E3D" d="M140.441,64.857c-0.134-1.224-1.156-2.146-2.38-2.146c-0.088,0-0.176,0.005-0.266,0.015
		c-28.818,3.118-46.755,18.071-51.913,22.947C79.904,80.223,62.27,66.371,34.69,63.389c-0.089-0.01-0.177-0.015-0.263-0.015
		c-1.208,0-2.255,0.941-2.385,2.143c-0.142,1.316,0.814,2.505,2.131,2.648c21.647,2.341,37.07,12.008,44.797,18.029l7.153,1.23
		l1.367-0.225l0,0l4.909-0.807c7.271-5.91,23.08-16.42,45.91-18.891c0.638-0.068,1.212-0.382,1.613-0.882
		C140.327,66.122,140.509,65.495,140.441,64.857z"/>
	<g>
		<path fill="#829E3D" d="M27.264,38.854c0.462-0.662,1.188-1.086,1.991-1.159c0.854-0.077,1.685-0.162,2.497-0.243
			c3.528-0.352,6.745-0.671,10.053-0.517c1.553,2.193,2.406,4.183,2.885,5.781c-3.841-0.632-7.416-0.337-11.626,0.079
			c3.844,11.609,10.623,19.34,19.922,22.889c-4.539-1.459-9.492-2.672-14.849-3.49c-5.075-5.286-8.896-12.365-11.263-21.072
			C26.665,40.345,26.808,39.514,27.264,38.854z"/>
	</g>
</g>
</svg>
