<?xml version="1.0" encoding="utf-8"?>
<!-- Generator: Adobe Illustrator 14.0.0, SVG Export Plug-In . SVG Version: 6.00 Build 43363)  -->
<!DOCTYPE svg PUBLIC "-//W3C//DTD SVG 1.1//EN" "http://www.w3.org/Graphics/SVG/1.1/DTD/svg11.dtd">
<svg version="1.1" id="Layer_1" xmlns="http://www.w3.org/2000/svg" xmlns:xlink="http://www.w3.org/1999/xlink" x="0px" y="0px"
	 width="173.033px" height="142.697px" viewBox="0 0 173.033 142.697" enable-background="new 0 0 173.033 142.697"
	 xml:space="preserve">
<g>
	<g>
		<path fill="#829E3D" d="M61.472,46.287c-1.998,6.458-2.967,12.62-3.255,17.834c-7.384-5.044-13.381-7.948-18.745-9.541
			c1.184,2.699,1.994,5.505,2.431,8.413c4.938,2.095,10.604,5.507,17.76,10.93c1.113,0.846,2.616,0.959,3.846,0.287
			c1.229-0.669,1.95-1.998,1.841-3.392c-0.048-0.628-0.543-8.024,1.682-17.775C66.183,51.771,64.296,49.148,61.472,46.287z"/>
		<path fill="#829E3D" d="M89.183,12.458c-0.74-0.587-1.643-0.823-2.515-0.747c-0.848-0.055-1.717,0.179-2.436,0.747
			c-9.278,7.344-15.475,16.28-19.499,25.199c2.111,1.848,3.92,3.704,5.398,5.377c3.135-7.867,8.252-16.231,16.572-23.399
			c7.999,6.889,13.032,14.882,16.194,22.482c1.49-1.675,3.294-3.502,5.396-5.309C104.264,28.173,98.163,19.568,89.183,12.458z"/>
		<path fill="#829E3D" d="M115.192,64.121c-0.301-5.434-1.336-11.897-3.507-18.652c-2.636,2.587-4.513,5.016-5.562,6.494
			c2.516,10.281,1.989,18.204,1.938,18.855c-0.102,1.396,0.612,2.723,1.842,3.392c1.227,0.672,2.731,0.56,3.85-0.287
			c6.744-5.111,12.165-8.438,16.901-10.561c0.37-2.922,1.118-5.744,2.235-8.461C127.794,56.555,122.1,59.402,115.192,64.121z"/>
	</g>
	<g>
		<path fill="#124D5C" d="M72.68,53.968c1.306-0.785,1.733-2.49,0.95-3.803C73.498,49.949,60.003,28.05,37.419,28.05
			c-6.267,0-12.723,1.7-19.191,5.053c-1.686,0.872-2.35,2.862-2.408,4.302c-0.07,1.729,0.682,3.255,2.004,4.083
			c0.232,0.144,0.473,0.291,0.722,0.44l0.494,0.299c1.276,0.761,2.872,1.714,4.233,2.856c10.434,8.757,11.398,17.061,11.716,19.787
			c0.073,0.618,0.121,1.015,0.282,1.435c0.514,1.397,2.143,2.169,3.559,1.642c1.332-0.494,2.072-1.899,1.725-3.272l-0.059-0.451
			c-1.033-8.774-5.628-16.642-13.657-23.383c-1.341-1.122-2.757-2.029-3.707-2.614l-1.264-0.777l1.356-0.605
			c4.801-2.139,9.604-3.223,14.271-3.223c19.435,0,30.903,18.605,31.381,19.398c0.509,0.841,1.396,1.343,2.381,1.343
			C71.755,54.362,72.247,54.225,72.68,53.968z"/>
	</g>
	<g>
		<path fill="#124D5C" d="M137.672,64.486c0.326-2.746,1.316-11.057,11.722-19.797c1.332-1.119,2.876-2.043,4.237-2.857l0.237-0.142
			c0.341-0.205,0.669-0.402,0.98-0.597c1.321-0.826,2.069-2.353,1.998-4.086c-0.057-1.438-0.723-3.427-2.408-4.294
			c-9.714-5.039-19.426-6.315-28.67-3.771l-0.299,0.081l-0.274-0.144c-0.661-0.347-1.631-0.945-2.338-1.384l-0.104-0.063
			c-2.96-1.839-5.07-3.108-6.993-2.265c-0.744,0.325-1.315,0.924-1.608,1.688c-0.605,1.565,0.097,3.133,1.162,5.507l0.402,0.955
			l-0.562,0.353c-10.271,6.442-15.883,15.711-16.117,16.102c-0.786,1.311-0.356,3.018,0.953,3.805
			c0.431,0.258,0.922,0.395,1.42,0.395c0.983,0,1.876-0.504,2.384-1.348c0.034-0.063,5.922-9.787,16.354-15.455
			c1.065-0.58,1.565-1.396,1.572-2.565l0.008-1.256l1.126,0.561c1.526,0.762,2.522,0.929,3.578,0.606
			c2.843-0.864,5.778-1.301,8.724-1.301c4.658,0,9.465,1.089,14.286,3.237l1.355,0.605l-1.265,0.778
			c-0.952,0.587-2.373,1.496-3.702,2.612c-8.03,6.744-12.627,14.608-13.659,23.381l-0.043,0.367
			c-0.367,1.455,0.372,2.863,1.701,3.357c1.447,0.531,3.046-0.246,3.562-1.629C137.555,65.497,137.604,65.099,137.672,64.486z"/>
	</g>
	<g>
		<g>
			<path fill="#124D5C" d="M44.563,40.787c0,0.898-0.727,1.625-1.623,1.625c-0.898,0-1.621-0.727-1.621-1.625
				c0-0.895,0.723-1.62,1.621-1.62C43.837,39.167,44.563,39.892,44.563,40.787z"/>
		</g>
		<g>
			<path fill="#124D5C" d="M42.94,43.196c-1.328,0-2.404-1.081-2.404-2.409c0-1.326,1.076-2.403,2.404-2.403
				c1.327,0,2.408,1.077,2.408,2.403C45.349,42.115,44.268,43.196,42.94,43.196z M42.94,39.95c-0.465,0-0.837,0.377-0.837,0.837
				c0,0.467,0.372,0.84,0.837,0.84c0.461,0,0.839-0.373,0.839-0.84C43.779,40.327,43.401,39.95,42.94,39.95z"/>
		</g>
	</g>
	<g>
		<g>
			<path fill="#124D5C" d="M132.223,40.787c0,0.898-0.728,1.625-1.624,1.625c-0.894,0-1.624-0.727-1.624-1.625
				c0-0.895,0.73-1.62,1.624-1.62C131.495,39.167,132.223,39.892,132.223,40.787z"/>
		</g>
		<g>
			<path fill="#124D5C" d="M130.599,43.196c-1.328,0-2.407-1.081-2.407-2.409c0-1.326,1.079-2.403,2.407-2.403
				c1.327,0,2.408,1.077,2.408,2.403C133.007,42.115,131.926,43.196,130.599,43.196z M130.599,39.95
				c-0.463,0-0.839,0.377-0.839,0.837c0,0.467,0.376,0.84,0.839,0.84s0.839-0.373,0.839-0.84
				C131.438,40.327,131.062,39.95,130.599,39.95z"/>
		</g>
	</g>
	<path fill="#829E3D" d="M101.826,55.512c-0.138,0.013-0.276,0.027-0.415,0.027c-0.781,0-1.551-0.213-2.225-0.616
		c-0.988-0.594-1.646-1.523-1.935-2.554c-3.771,4.839-7.16,10.504-10.141,16.905c-0.97-4.511-1.373-9.131-1.425-13.522
		c0.09-0.224,0.143-0.466,0.138-0.722c-0.013-0.427-0.053-0.92-0.134-1.45c0.025-1.897,0.106-3.736,0.239-5.496
		c0.06-0.08,0.128-0.156,0.174-0.248c1.599-3.064,5.636-5.714,7.157-6.712c0.818-0.536,1.593-1.045,1.446-2.183
		c-0.089-0.674-0.562-1.249-1.207-1.462c-0.661-0.221-1.362-0.031-1.82,0.433c-0.091,0.061-0.22,0.141-0.367,0.242
		c-0.985,0.645-2.896,1.912-4.734,3.589c0.81-6.069,1.884-10.136,1.908-10.229c0.256-0.949-0.308-1.922-1.252-2.179
		c-0.945-0.258-1.923,0.306-2.18,1.249c-0.142,0.535-1.997,7.545-2.695,17.013c-0.69-0.58-1.513-1.115-2.49-1.579
		c-0.442-0.293-1.007-0.39-1.546-0.206c-0.693,0.228-1.182,0.862-1.222,1.591c-0.029,0.562,0.162,1.331,1.253,1.83
		c2.076,0.951,3.32,2.471,3.745,4.506c-0.032,3.238,0.106,6.638,0.506,10.074c-2.216-4.047-4.614-7.741-7.19-11.049
		c-0.29,1.029-0.946,1.957-1.932,2.547c-0.678,0.404-1.445,0.617-2.227,0.617c-0.142,0-0.279-0.014-0.416-0.026
		c4.375,5.554,8.24,12.341,11.516,20.235c0.023,0.102,0.045,0.202,0.079,0.31c0.106,0.327,0.589,1.979,1.223,3.137
		c0.014,0.038,0.022,0.078,0.039,0.116c0.081,0.181,0.185,0.35,0.301,0.505c0.631,1.195,2.114,1.819,3.423,1.333
		c0.693-0.261,1.243-0.775,1.549-1.449c0.22-0.483,0.288-1.007,0.217-1.519C92.689,69.468,96.937,61.721,101.826,55.512z"/>
	<path fill="#829E3D" d="M166.272,111.433c-0.348-2.109-2.308-3.59-4.503-3.232l-74.882,12.303l-73.398-12.621
		c-0.227-0.037-0.451-0.055-0.672-0.055c-1.906,0-3.527,1.367-3.855,3.256c-0.177,1.029,0.058,2.07,0.662,2.924
		c0.603,0.854,1.505,1.422,2.537,1.6l68.809,11.83l-0.026,0.684c-0.003,0.074-0.011,0.146-0.022,0.217
		c-0.006,3.336,2.691,6.033,6.004,6.033c3.314,0,6.01-2.697,6.01-6.012l-0.025-0.205l-0.029-0.693l70.161-11.525
		C165.175,115.583,166.623,113.563,166.272,111.433z"/>
	<g>
		<path fill="#829E3D" d="M60.38,99.19c-2.014-0.98-4.132-1.935-6.344-2.858c2.131,1.789,3.578,2.663,3.763,2.77
			C58.593,99.569,59.573,99.563,60.38,99.19z"/>
		<path fill="#829E3D" d="M61.61,98.05c0.72-1.299,0.284-2.951-1.002-3.722c-0.131-0.079-12.396-7.686-19.143-26.573
			c-0.494,0.731-1.201,1.331-2.092,1.659c-0.484,0.183-0.992,0.274-1.506,0.274c-0.61,0-1.197-0.139-1.733-0.376
			c4.095,11.67,10.061,19.404,14.7,24.064C54.689,94.839,58.292,96.416,61.61,98.05z"/>
	</g>
	<g>
		<path fill="#829E3D" d="M162.817,55.538c-0.604-0.863-1.553-1.417-2.599-1.513c-1.114-0.101-2.198-0.211-3.259-0.316
			c-4.604-0.459-8.803-0.876-13.117-0.675c-2.025,2.862-3.14,5.458-3.766,7.544c5.014-0.824,9.677-0.439,15.171,0.104
			c-5.016,15.148-13.86,25.235-25.994,29.866c5.923-1.903,12.386-3.486,19.375-4.555c6.623-6.897,11.608-16.135,14.696-27.496
			C163.6,57.483,163.412,56.398,162.817,55.538z"/>
	</g>
	<g>
		<path fill="#829E3D" d="M111.171,97.848c3.253-1.65,6.773-3.256,10.568-4.752c4.648-4.642,10.661-12.396,14.793-24.177
			c-0.539,0.238-1.125,0.377-1.735,0.377c-0.507,0-1.016-0.092-1.509-0.271c-0.888-0.331-1.594-0.931-2.083-1.664
			c-6.804,19.086-19.025,26.502-19.152,26.577c-1.308,0.773-1.745,2.474-0.978,3.787C111.102,97.77,111.142,97.804,111.171,97.848z"
			/>
	</g>
	<path fill="#829E3D" d="M157.771,89.468c-0.174-1.597-1.509-2.8-3.105-2.8c-0.114,0-0.229,0.007-0.347,0.02
		c-37.604,4.068-61.008,23.581-67.738,29.942c-7.802-7.113-30.812-25.187-66.8-29.079c-0.115-0.013-0.23-0.019-0.342-0.019
		c-1.576,0-2.942,1.229-3.112,2.796c-0.185,1.718,1.063,3.269,2.78,3.455c28.247,3.055,48.372,15.668,58.454,23.526l9.334,1.605
		l1.784-0.293l0,0l6.405-1.053c9.487-7.711,30.116-21.425,59.906-24.649c0.832-0.09,1.581-0.499,2.105-1.151
		C157.622,91.119,157.86,90.3,157.771,89.468z"/>
	<g>
		<path fill="#829E3D" d="M10.091,55.538c0.604-0.863,1.551-1.417,2.599-1.513c1.114-0.101,2.198-0.211,3.259-0.316
			c4.604-0.459,8.801-0.876,13.117-0.675c2.025,2.862,3.14,5.458,3.764,7.544c-5.012-0.824-9.676-0.439-15.17,0.104
			c5.016,15.148,13.861,25.235,25.995,29.866c-5.923-1.903-12.386-3.486-19.375-4.555c-6.622-6.897-11.608-16.135-14.696-27.496
			C9.31,57.483,9.496,56.398,10.091,55.538z"/>
	</g>
</g>
</svg>
