<?xml version="1.0" encoding="utf-8"?>
<!-- Generator: Adobe Illustrator 14.0.0, SVG Export Plug-In . SVG Version: 6.00 Build 43363)  -->
<!DOCTYPE svg PUBLIC "-//W3C//DTD SVG 1.1//EN" "http://www.w3.org/Graphics/SVG/1.1/DTD/svg11.dtd">
<svg version="1.1" id="Layer_1" xmlns="http://www.w3.org/2000/svg" xmlns:xlink="http://www.w3.org/1999/xlink" x="0px" y="0px"
	 width="263.987px" height="250.487px" viewBox="0 0 263.987 250.487" enable-background="new 0 0 263.987 250.487"
	 xml:space="preserve">
<g>
	<path fill="#FFFFFF" stroke="#000000" d="M235.313,187.233H15.941c-3.358,0-6.078-2.722-6.078-6.079V39.462
		c0-3.357,2.72-6.079,6.078-6.079h219.371c3.355,0,6.075,2.721,6.075,6.079v141.692
		C241.388,184.512,238.668,187.233,235.313,187.233z"/>
	<path fill="#124D5C" d="M241.388,48.415H9.863v-9.149c0-3.247,2.633-5.882,5.882-5.882h219.771c3.241,0,5.872,2.631,5.872,5.876
		V48.415z"/>
	<path fill="#F7F7F6" d="M22.332,38.928c0,0.96-0.837,1.741-1.869,1.741c-1.035,0-1.872-0.781-1.872-1.741
		c0-0.961,0.837-1.74,1.872-1.74C21.495,37.188,22.332,37.967,22.332,38.928"/>
	<path fill="#F7F7F6" d="M28.369,38.928c0,0.96-0.836,1.741-1.869,1.741c-1.034,0-1.871-0.781-1.871-1.741
		c0-0.961,0.837-1.74,1.871-1.74C27.533,37.188,28.369,37.967,28.369,38.928"/>
	<path fill="#F7F7F6" d="M34.413,38.928c0,0.96-0.84,1.741-1.872,1.741c-1.035,0-1.872-0.781-1.872-1.741
		c0-0.961,0.837-1.74,1.872-1.74C33.573,37.188,34.413,37.967,34.413,38.928"/>
	<path fill="#124D5C" d="M145.058,73.456H93.904c-0.413,0-0.747-0.332-0.747-0.744V70.68c0-0.412,0.334-0.746,0.747-0.746h51.154
		c0.413,0,0.745,0.334,0.745,0.746v2.032C145.803,73.125,145.47,73.456,145.058,73.456z"/>
	<path fill="#124D5C" d="M74.981,122.349H23.83c-0.414,0-0.747-0.333-0.747-0.745v-2.031c0-0.411,0.333-0.745,0.747-0.745h51.151
		c0.415,0,0.747,0.334,0.747,0.745v2.031C75.728,122.016,75.396,122.349,74.981,122.349z"/>
	<g>
		<path fill="#438287" d="M74.324,110.918H24.487c-0.812,0-1.471-0.658-1.471-1.471v-48.12c0-0.812,0.658-1.47,1.47-1.47h49.838
			c0.812,0,1.471,0.659,1.471,1.471v48.118C75.795,110.26,75.136,110.918,74.324,110.918z"/>
		<rect x="27.122" y="64.297" fill="none" stroke="#124D5C" width="44.567" height="42.186"/>
		<circle fill="#124D5C" cx="54.938" cy="75.163" r="3.797"/>
		<polyline fill="#124D5C" points="27.122,106.482 41.709,80.274 53.65,97.067 60.908,88.149 71.689,106.482 27.122,106.482 		"/>
	</g>

		<line fill="none" stroke="#414042" stroke-width="0.5" stroke-linecap="round" stroke-miterlimit="10" x1="23.755" y1="135.643" x2="75.059" y2="135.643"/>

		<line fill="none" stroke="#414042" stroke-width="0.5" stroke-linecap="round" stroke-miterlimit="10" x1="23.755" y1="141.796" x2="75.059" y2="141.796"/>

		<line fill="none" stroke="#414042" stroke-width="0.5" stroke-linecap="round" stroke-miterlimit="10" x1="23.755" y1="148.463" x2="75.059" y2="148.463"/>

		<line fill="none" stroke="#414042" stroke-width="0.5" stroke-linecap="round" stroke-miterlimit="10" x1="23.755" y1="154.616" x2="75.059" y2="154.616"/>

		<line fill="none" stroke="#414042" stroke-width="0.5" stroke-linecap="round" stroke-miterlimit="10" x1="23.755" y1="161.169" x2="75.059" y2="161.169"/>
	<g>
		<path fill="#438287" d="M129.182,168.836H94.42c-0.81,0-1.468-0.657-1.468-1.468v-33.542c0-0.811,0.659-1.469,1.468-1.469h34.764
			c0.81,0,1.469,0.658,1.469,1.47v33.538C130.653,168.178,129.994,168.836,129.182,168.836z"/>
		<rect x="95.882" y="135.529" fill="none" stroke="#124D5C" width="31.837" height="30.136"/>
		<circle fill="#124D5C" cx="115.754" cy="143.292" r="2.714"/>
		<polyline fill="#124D5C" points="95.882,165.665 106.303,146.944 114.833,158.939 120.019,152.568 127.72,165.665 95.882,165.665
					"/>
	</g>

		<line fill="none" stroke="#414042" stroke-width="0.5" stroke-linecap="round" stroke-miterlimit="10" x1="93.157" y1="83.052" x2="224.1" y2="83.052"/>

		<line fill="none" stroke="#414042" stroke-width="0.5" stroke-linecap="round" stroke-miterlimit="10" x1="93.157" y1="90.74" x2="224.1" y2="90.74"/>

		<line fill="none" stroke="#414042" stroke-width="0.5" stroke-linecap="round" stroke-miterlimit="10" x1="93.157" y1="98.43" x2="224.1" y2="98.43"/>

		<line fill="none" stroke="#414042" stroke-width="0.5" stroke-linecap="round" stroke-miterlimit="10" x1="93.157" y1="106.121" x2="224.1" y2="106.121"/>

		<line fill="none" stroke="#414042" stroke-width="0.5" stroke-linecap="round" stroke-miterlimit="10" x1="93.157" y1="113.811" x2="224.1" y2="113.811"/>

		<line fill="none" stroke="#414042" stroke-width="0.5" stroke-linecap="round" stroke-miterlimit="10" x1="93.157" y1="121.5" x2="144.271" y2="121.5"/>

		<line fill="none" stroke="#414042" stroke-width="0.5" stroke-linecap="round" stroke-miterlimit="10" x1="137.076" y1="136.423" x2="223.141" y2="136.423"/>

		<line fill="none" stroke="#414042" stroke-width="0.5" stroke-linecap="round" stroke-miterlimit="10" x1="137.076" y1="144.584" x2="223.141" y2="144.584"/>

		<line fill="none" stroke="#414042" stroke-width="0.5" stroke-linecap="round" stroke-miterlimit="10" x1="137.076" y1="152.749" x2="223.141" y2="152.749"/>

		<line fill="none" stroke="#414042" stroke-width="0.5" stroke-linecap="round" stroke-miterlimit="10" x1="137.076" y1="160.911" x2="223.141" y2="160.911"/>
	<path fill="#124D5C" d="M202.136,144.456c-1.039-3.026-4.341-4.635-7.367-3.593l-0.397,0.136c-3.842,1.324-5.887,5.513-4.565,9.352
		l2.938,9.489l6.471,20.904c0.071,0.687,4.937,15.097,4.937,15.097c-1.646-0.821-3.483-1.774-5.168-2.712
		c-3.927-2.188-9.876-2.526-13.479-1.728c-1.896,0.416-3.205,1.149-3.895,2.166c-0.215,0.329-0.42,0.682-0.6,1.05
		c-1.182,2.376-1.555,5.688,0.414,7.342c0.854,0.725,1.989,1.012,3.192,1.311c1.601,0.395,4.114,0.553,6.496,2.095
		c3.989,2.589,13.131,8.305,18.528,11.176c0.995,0.228,3.328,1.363,4.298,1.519c3.034,0.732,5.58,1.53,6.565,2.097
		c0.769,0.441,4.6,0.987,4.6,0.987c3.205,0.761,8.533,0.669,14.07-1.236c5.526-1.903,10.658-3.298,13.243-7.839l0.2-0.066
		l0.014-0.281c2.583-4.757,3.282-10.354,1.455-15.648c-0.451-1.312-2.112-6.14-2.423-7.049l-6.291-18.27
		c-0.43-1.243-2.132-5.306-6.058-5.352c-1.888-0.02-3.399,0.755-4.553,1.804l-0.312,0.126l-0.093,0.037
		c-1.397-2.073-3.425-3.026-5.805-2.643c-2.875,0.462-4.478,1.92-5.326,3.129c-1.956-2.029-4.646-2.512-7.606-1.205
		c-2.222,0.979-3.539,2.691-4.261,4.599l-5.364-15.582L202.136,144.456z"/>
</g>
</svg>
